G04 #@! TF.GenerationSoftware,KiCad,Pcbnew,6.0.9-8da3e8f707~116~ubuntu20.04.1*
G04 #@! TF.CreationDate,2023-04-16T18:25:48+00:00*
G04 #@! TF.ProjectId,LEC005001-panel,4c454330-3035-4303-9031-2d70616e656c,rev?*
G04 #@! TF.SameCoordinates,Original*
G04 #@! TF.FileFunction,Legend,Top*
G04 #@! TF.FilePolarity,Positive*
%FSLAX46Y46*%
G04 Gerber Fmt 4.6, Leading zero omitted, Abs format (unit mm)*
G04 Created by KiCad (PCBNEW 6.0.9-8da3e8f707~116~ubuntu20.04.1) date 2023-04-16 18:25:48*
%MOMM*%
%LPD*%
G01*
G04 APERTURE LIST*
%ADD10C,0.120000*%
%ADD11C,0.150000*%
%ADD12C,0.010000*%
G04 APERTURE END LIST*
D10*
X17498912Y-7250000D02*
X7498912Y-7250000D01*
X71498912Y-7250000D02*
X61498912Y-7250000D01*
X44498912Y-7250000D02*
X34498912Y-7250000D01*
X17498912Y-21250000D02*
X7498912Y-21250000D01*
X44498912Y-21250000D02*
X34498912Y-21250000D01*
X71498912Y-21250000D02*
X61498912Y-21250000D01*
X17498912Y-35250000D02*
X7498912Y-35250000D01*
X44498912Y-35250000D02*
X34498912Y-35250000D01*
X71498912Y-35250000D02*
X61498912Y-35250000D01*
X17498912Y-49250000D02*
X7498912Y-49250000D01*
X44498912Y-49250000D02*
X34498912Y-49250000D01*
X71498912Y-49250000D02*
X61498912Y-49250000D01*
X17498912Y-63250000D02*
X7498912Y-63250000D01*
X44498912Y-63250000D02*
X34498912Y-63250000D01*
X71498912Y-63250000D02*
X61498912Y-63250000D01*
X17498912Y-11750000D02*
X17498912Y-7250000D01*
X71498912Y-11750000D02*
X71498912Y-7250000D01*
X44498912Y-11750000D02*
X44498912Y-7250000D01*
X17498912Y-25750000D02*
X17498912Y-21250000D01*
X44498912Y-25750000D02*
X44498912Y-21250000D01*
X71498912Y-25750000D02*
X71498912Y-21250000D01*
X17498912Y-39750000D02*
X17498912Y-35250000D01*
X44498912Y-39750000D02*
X44498912Y-35250000D01*
X71498912Y-39750000D02*
X71498912Y-35250000D01*
X17498912Y-53750000D02*
X17498912Y-49250000D01*
X44498912Y-53750000D02*
X44498912Y-49250000D01*
X71498912Y-53750000D02*
X71498912Y-49250000D01*
X17498912Y-67750000D02*
X17498912Y-63250000D01*
X44498912Y-67750000D02*
X44498912Y-63250000D01*
X71498912Y-67750000D02*
X71498912Y-63250000D01*
X7498912Y-7250000D02*
X7498912Y-11750000D01*
X34498912Y-7250000D02*
X34498912Y-11750000D01*
X61498912Y-7250000D02*
X61498912Y-11750000D01*
X7498912Y-21250000D02*
X7498912Y-25750000D01*
X34498912Y-21250000D02*
X34498912Y-25750000D01*
X61498912Y-21250000D02*
X61498912Y-25750000D01*
X7498912Y-35250000D02*
X7498912Y-39750000D01*
X34498912Y-35250000D02*
X34498912Y-39750000D01*
X61498912Y-35250000D02*
X61498912Y-39750000D01*
X7498912Y-49250000D02*
X7498912Y-53750000D01*
X34498912Y-49250000D02*
X34498912Y-53750000D01*
X61498912Y-49250000D02*
X61498912Y-53750000D01*
X7498912Y-63250000D02*
X7498912Y-67750000D01*
X34498912Y-63250000D02*
X34498912Y-67750000D01*
X61498912Y-63250000D02*
X61498912Y-67750000D01*
X7498912Y-11750000D02*
X17498912Y-11750000D01*
X34498912Y-11750000D02*
X44498912Y-11750000D01*
X61498912Y-11750000D02*
X71498912Y-11750000D01*
X7498912Y-25750000D02*
X17498912Y-25750000D01*
X34498912Y-25750000D02*
X44498912Y-25750000D01*
X61498912Y-25750000D02*
X71498912Y-25750000D01*
X7498912Y-39750000D02*
X17498912Y-39750000D01*
X34498912Y-39750000D02*
X44498912Y-39750000D01*
X61498912Y-39750000D02*
X71498912Y-39750000D01*
X7498912Y-53750000D02*
X17498912Y-53750000D01*
X34498912Y-53750000D02*
X44498912Y-53750000D01*
X61498912Y-53750000D02*
X71498912Y-53750000D01*
X7498912Y-67750000D02*
X17498912Y-67750000D01*
X34498912Y-67750000D02*
X44498912Y-67750000D01*
X61498912Y-67750000D02*
X71498912Y-67750000D01*
D11*
X42617959Y-17071428D02*
X43379864Y-17071428D01*
X69617959Y-17071428D02*
X70379864Y-17071428D01*
X15617959Y-17071428D02*
X16379864Y-17071428D01*
X15617959Y-31071428D02*
X16379864Y-31071428D01*
X42617959Y-31071428D02*
X43379864Y-31071428D01*
X69617959Y-31071428D02*
X70379864Y-31071428D01*
X15617959Y-45071428D02*
X16379864Y-45071428D01*
X42617959Y-45071428D02*
X43379864Y-45071428D01*
X69617959Y-45071428D02*
X70379864Y-45071428D01*
X15617959Y-59071428D02*
X16379864Y-59071428D01*
X42617959Y-59071428D02*
X43379864Y-59071428D01*
X69617959Y-59071428D02*
X70379864Y-59071428D01*
X15617959Y-73071428D02*
X16379864Y-73071428D01*
X42617959Y-73071428D02*
X43379864Y-73071428D01*
X69617959Y-73071428D02*
X70379864Y-73071428D01*
X8998911Y-11202380D02*
X8522721Y-11202380D01*
X8522721Y-10202380D01*
X9332245Y-10678571D02*
X9665578Y-10678571D01*
X9808435Y-11202380D02*
X9332245Y-11202380D01*
X9332245Y-10202380D01*
X9808435Y-10202380D01*
X10808435Y-11107142D02*
X10760816Y-11154761D01*
X10617959Y-11202380D01*
X10522721Y-11202380D01*
X10379864Y-11154761D01*
X10284626Y-11059523D01*
X10237007Y-10964285D01*
X10189388Y-10773809D01*
X10189388Y-10630952D01*
X10237007Y-10440476D01*
X10284626Y-10345238D01*
X10379864Y-10250000D01*
X10522721Y-10202380D01*
X10617959Y-10202380D01*
X10760816Y-10250000D01*
X10808435Y-10297619D01*
X11427483Y-10202380D02*
X11522721Y-10202380D01*
X11617959Y-10250000D01*
X11665578Y-10297619D01*
X11713197Y-10392857D01*
X11760816Y-10583333D01*
X11760816Y-10821428D01*
X11713197Y-11011904D01*
X11665578Y-11107142D01*
X11617959Y-11154761D01*
X11522721Y-11202380D01*
X11427483Y-11202380D01*
X11332245Y-11154761D01*
X11284626Y-11107142D01*
X11237007Y-11011904D01*
X11189388Y-10821428D01*
X11189388Y-10583333D01*
X11237007Y-10392857D01*
X11284626Y-10297619D01*
X11332245Y-10250000D01*
X11427483Y-10202380D01*
X12379864Y-10202380D02*
X12475102Y-10202380D01*
X12570340Y-10250000D01*
X12617959Y-10297619D01*
X12665578Y-10392857D01*
X12713197Y-10583333D01*
X12713197Y-10821428D01*
X12665578Y-11011904D01*
X12617959Y-11107142D01*
X12570340Y-11154761D01*
X12475102Y-11202380D01*
X12379864Y-11202380D01*
X12284626Y-11154761D01*
X12237007Y-11107142D01*
X12189388Y-11011904D01*
X12141769Y-10821428D01*
X12141769Y-10583333D01*
X12189388Y-10392857D01*
X12237007Y-10297619D01*
X12284626Y-10250000D01*
X12379864Y-10202380D01*
X13617959Y-10202380D02*
X13141769Y-10202380D01*
X13094150Y-10678571D01*
X13141769Y-10630952D01*
X13237007Y-10583333D01*
X13475102Y-10583333D01*
X13570340Y-10630952D01*
X13617959Y-10678571D01*
X13665578Y-10773809D01*
X13665578Y-11011904D01*
X13617959Y-11107142D01*
X13570340Y-11154761D01*
X13475102Y-11202380D01*
X13237007Y-11202380D01*
X13141769Y-11154761D01*
X13094150Y-11107142D01*
X14284626Y-10202380D02*
X14379864Y-10202380D01*
X14475102Y-10250000D01*
X14522721Y-10297619D01*
X14570340Y-10392857D01*
X14617959Y-10583333D01*
X14617959Y-10821428D01*
X14570340Y-11011904D01*
X14522721Y-11107142D01*
X14475102Y-11154761D01*
X14379864Y-11202380D01*
X14284626Y-11202380D01*
X14189388Y-11154761D01*
X14141769Y-11107142D01*
X14094150Y-11011904D01*
X14046531Y-10821428D01*
X14046531Y-10583333D01*
X14094150Y-10392857D01*
X14141769Y-10297619D01*
X14189388Y-10250000D01*
X14284626Y-10202380D01*
X15237007Y-10202380D02*
X15332245Y-10202380D01*
X15427483Y-10250000D01*
X15475102Y-10297619D01*
X15522721Y-10392857D01*
X15570340Y-10583333D01*
X15570340Y-10821428D01*
X15522721Y-11011904D01*
X15475102Y-11107142D01*
X15427483Y-11154761D01*
X15332245Y-11202380D01*
X15237007Y-11202380D01*
X15141769Y-11154761D01*
X15094150Y-11107142D01*
X15046531Y-11011904D01*
X14998911Y-10821428D01*
X14998911Y-10583333D01*
X15046531Y-10392857D01*
X15094150Y-10297619D01*
X15141769Y-10250000D01*
X15237007Y-10202380D01*
X16522721Y-11202380D02*
X15951292Y-11202380D01*
X16237007Y-11202380D02*
X16237007Y-10202380D01*
X16141769Y-10345238D01*
X16046531Y-10440476D01*
X15951292Y-10488095D01*
X35998912Y-11202380D02*
X35522721Y-11202380D01*
X35522721Y-10202380D01*
X36332245Y-10678571D02*
X36665578Y-10678571D01*
X36808435Y-11202380D02*
X36332245Y-11202380D01*
X36332245Y-10202380D01*
X36808435Y-10202380D01*
X37808435Y-11107142D02*
X37760816Y-11154761D01*
X37617959Y-11202380D01*
X37522721Y-11202380D01*
X37379864Y-11154761D01*
X37284626Y-11059523D01*
X37237007Y-10964285D01*
X37189388Y-10773809D01*
X37189388Y-10630952D01*
X37237007Y-10440476D01*
X37284626Y-10345238D01*
X37379864Y-10250000D01*
X37522721Y-10202380D01*
X37617959Y-10202380D01*
X37760816Y-10250000D01*
X37808435Y-10297619D01*
X38427483Y-10202380D02*
X38522721Y-10202380D01*
X38617959Y-10250000D01*
X38665578Y-10297619D01*
X38713197Y-10392857D01*
X38760816Y-10583333D01*
X38760816Y-10821428D01*
X38713197Y-11011904D01*
X38665578Y-11107142D01*
X38617959Y-11154761D01*
X38522721Y-11202380D01*
X38427483Y-11202380D01*
X38332245Y-11154761D01*
X38284626Y-11107142D01*
X38237007Y-11011904D01*
X38189388Y-10821428D01*
X38189388Y-10583333D01*
X38237007Y-10392857D01*
X38284626Y-10297619D01*
X38332245Y-10250000D01*
X38427483Y-10202380D01*
X39379864Y-10202380D02*
X39475102Y-10202380D01*
X39570340Y-10250000D01*
X39617959Y-10297619D01*
X39665578Y-10392857D01*
X39713197Y-10583333D01*
X39713197Y-10821428D01*
X39665578Y-11011904D01*
X39617959Y-11107142D01*
X39570340Y-11154761D01*
X39475102Y-11202380D01*
X39379864Y-11202380D01*
X39284626Y-11154761D01*
X39237007Y-11107142D01*
X39189388Y-11011904D01*
X39141769Y-10821428D01*
X39141769Y-10583333D01*
X39189388Y-10392857D01*
X39237007Y-10297619D01*
X39284626Y-10250000D01*
X39379864Y-10202380D01*
X40617959Y-10202380D02*
X40141769Y-10202380D01*
X40094150Y-10678571D01*
X40141769Y-10630952D01*
X40237007Y-10583333D01*
X40475102Y-10583333D01*
X40570340Y-10630952D01*
X40617959Y-10678571D01*
X40665578Y-10773809D01*
X40665578Y-11011904D01*
X40617959Y-11107142D01*
X40570340Y-11154761D01*
X40475102Y-11202380D01*
X40237007Y-11202380D01*
X40141769Y-11154761D01*
X40094150Y-11107142D01*
X41284626Y-10202380D02*
X41379864Y-10202380D01*
X41475102Y-10250000D01*
X41522721Y-10297619D01*
X41570340Y-10392857D01*
X41617959Y-10583333D01*
X41617959Y-10821428D01*
X41570340Y-11011904D01*
X41522721Y-11107142D01*
X41475102Y-11154761D01*
X41379864Y-11202380D01*
X41284626Y-11202380D01*
X41189388Y-11154761D01*
X41141769Y-11107142D01*
X41094150Y-11011904D01*
X41046531Y-10821428D01*
X41046531Y-10583333D01*
X41094150Y-10392857D01*
X41141769Y-10297619D01*
X41189388Y-10250000D01*
X41284626Y-10202380D01*
X42237007Y-10202380D02*
X42332245Y-10202380D01*
X42427483Y-10250000D01*
X42475102Y-10297619D01*
X42522721Y-10392857D01*
X42570340Y-10583333D01*
X42570340Y-10821428D01*
X42522721Y-11011904D01*
X42475102Y-11107142D01*
X42427483Y-11154761D01*
X42332245Y-11202380D01*
X42237007Y-11202380D01*
X42141769Y-11154761D01*
X42094150Y-11107142D01*
X42046531Y-11011904D01*
X41998912Y-10821428D01*
X41998912Y-10583333D01*
X42046531Y-10392857D01*
X42094150Y-10297619D01*
X42141769Y-10250000D01*
X42237007Y-10202380D01*
X43522721Y-11202380D02*
X42951292Y-11202380D01*
X43237007Y-11202380D02*
X43237007Y-10202380D01*
X43141769Y-10345238D01*
X43046531Y-10440476D01*
X42951292Y-10488095D01*
X62998912Y-11202380D02*
X62522721Y-11202380D01*
X62522721Y-10202380D01*
X63332245Y-10678571D02*
X63665578Y-10678571D01*
X63808435Y-11202380D02*
X63332245Y-11202380D01*
X63332245Y-10202380D01*
X63808435Y-10202380D01*
X64808435Y-11107142D02*
X64760816Y-11154761D01*
X64617959Y-11202380D01*
X64522721Y-11202380D01*
X64379864Y-11154761D01*
X64284626Y-11059523D01*
X64237007Y-10964285D01*
X64189388Y-10773809D01*
X64189388Y-10630952D01*
X64237007Y-10440476D01*
X64284626Y-10345238D01*
X64379864Y-10250000D01*
X64522721Y-10202380D01*
X64617959Y-10202380D01*
X64760816Y-10250000D01*
X64808435Y-10297619D01*
X65427483Y-10202380D02*
X65522721Y-10202380D01*
X65617959Y-10250000D01*
X65665578Y-10297619D01*
X65713197Y-10392857D01*
X65760816Y-10583333D01*
X65760816Y-10821428D01*
X65713197Y-11011904D01*
X65665578Y-11107142D01*
X65617959Y-11154761D01*
X65522721Y-11202380D01*
X65427483Y-11202380D01*
X65332245Y-11154761D01*
X65284626Y-11107142D01*
X65237007Y-11011904D01*
X65189388Y-10821428D01*
X65189388Y-10583333D01*
X65237007Y-10392857D01*
X65284626Y-10297619D01*
X65332245Y-10250000D01*
X65427483Y-10202380D01*
X66379864Y-10202380D02*
X66475102Y-10202380D01*
X66570340Y-10250000D01*
X66617959Y-10297619D01*
X66665578Y-10392857D01*
X66713197Y-10583333D01*
X66713197Y-10821428D01*
X66665578Y-11011904D01*
X66617959Y-11107142D01*
X66570340Y-11154761D01*
X66475102Y-11202380D01*
X66379864Y-11202380D01*
X66284626Y-11154761D01*
X66237007Y-11107142D01*
X66189388Y-11011904D01*
X66141769Y-10821428D01*
X66141769Y-10583333D01*
X66189388Y-10392857D01*
X66237007Y-10297619D01*
X66284626Y-10250000D01*
X66379864Y-10202380D01*
X67617959Y-10202380D02*
X67141769Y-10202380D01*
X67094150Y-10678571D01*
X67141769Y-10630952D01*
X67237007Y-10583333D01*
X67475102Y-10583333D01*
X67570340Y-10630952D01*
X67617959Y-10678571D01*
X67665578Y-10773809D01*
X67665578Y-11011904D01*
X67617959Y-11107142D01*
X67570340Y-11154761D01*
X67475102Y-11202380D01*
X67237007Y-11202380D01*
X67141769Y-11154761D01*
X67094150Y-11107142D01*
X68284626Y-10202380D02*
X68379864Y-10202380D01*
X68475102Y-10250000D01*
X68522721Y-10297619D01*
X68570340Y-10392857D01*
X68617959Y-10583333D01*
X68617959Y-10821428D01*
X68570340Y-11011904D01*
X68522721Y-11107142D01*
X68475102Y-11154761D01*
X68379864Y-11202380D01*
X68284626Y-11202380D01*
X68189388Y-11154761D01*
X68141769Y-11107142D01*
X68094150Y-11011904D01*
X68046531Y-10821428D01*
X68046531Y-10583333D01*
X68094150Y-10392857D01*
X68141769Y-10297619D01*
X68189388Y-10250000D01*
X68284626Y-10202380D01*
X69237007Y-10202380D02*
X69332245Y-10202380D01*
X69427483Y-10250000D01*
X69475102Y-10297619D01*
X69522721Y-10392857D01*
X69570340Y-10583333D01*
X69570340Y-10821428D01*
X69522721Y-11011904D01*
X69475102Y-11107142D01*
X69427483Y-11154761D01*
X69332245Y-11202380D01*
X69237007Y-11202380D01*
X69141769Y-11154761D01*
X69094150Y-11107142D01*
X69046531Y-11011904D01*
X68998912Y-10821428D01*
X68998912Y-10583333D01*
X69046531Y-10392857D01*
X69094150Y-10297619D01*
X69141769Y-10250000D01*
X69237007Y-10202380D01*
X70522721Y-11202380D02*
X69951292Y-11202380D01*
X70237007Y-11202380D02*
X70237007Y-10202380D01*
X70141769Y-10345238D01*
X70046531Y-10440476D01*
X69951292Y-10488095D01*
X8998911Y-25202380D02*
X8522721Y-25202380D01*
X8522721Y-24202380D01*
X9332245Y-24678571D02*
X9665578Y-24678571D01*
X9808435Y-25202380D02*
X9332245Y-25202380D01*
X9332245Y-24202380D01*
X9808435Y-24202380D01*
X10808435Y-25107142D02*
X10760816Y-25154761D01*
X10617959Y-25202380D01*
X10522721Y-25202380D01*
X10379864Y-25154761D01*
X10284626Y-25059523D01*
X10237007Y-24964285D01*
X10189388Y-24773809D01*
X10189388Y-24630952D01*
X10237007Y-24440476D01*
X10284626Y-24345238D01*
X10379864Y-24250000D01*
X10522721Y-24202380D01*
X10617959Y-24202380D01*
X10760816Y-24250000D01*
X10808435Y-24297619D01*
X11427483Y-24202380D02*
X11522721Y-24202380D01*
X11617959Y-24250000D01*
X11665578Y-24297619D01*
X11713197Y-24392857D01*
X11760816Y-24583333D01*
X11760816Y-24821428D01*
X11713197Y-25011904D01*
X11665578Y-25107142D01*
X11617959Y-25154761D01*
X11522721Y-25202380D01*
X11427483Y-25202380D01*
X11332245Y-25154761D01*
X11284626Y-25107142D01*
X11237007Y-25011904D01*
X11189388Y-24821428D01*
X11189388Y-24583333D01*
X11237007Y-24392857D01*
X11284626Y-24297619D01*
X11332245Y-24250000D01*
X11427483Y-24202380D01*
X12379864Y-24202380D02*
X12475102Y-24202380D01*
X12570340Y-24250000D01*
X12617959Y-24297619D01*
X12665578Y-24392857D01*
X12713197Y-24583333D01*
X12713197Y-24821428D01*
X12665578Y-25011904D01*
X12617959Y-25107142D01*
X12570340Y-25154761D01*
X12475102Y-25202380D01*
X12379864Y-25202380D01*
X12284626Y-25154761D01*
X12237007Y-25107142D01*
X12189388Y-25011904D01*
X12141769Y-24821428D01*
X12141769Y-24583333D01*
X12189388Y-24392857D01*
X12237007Y-24297619D01*
X12284626Y-24250000D01*
X12379864Y-24202380D01*
X13617959Y-24202380D02*
X13141769Y-24202380D01*
X13094150Y-24678571D01*
X13141769Y-24630952D01*
X13237007Y-24583333D01*
X13475102Y-24583333D01*
X13570340Y-24630952D01*
X13617959Y-24678571D01*
X13665578Y-24773809D01*
X13665578Y-25011904D01*
X13617959Y-25107142D01*
X13570340Y-25154761D01*
X13475102Y-25202380D01*
X13237007Y-25202380D01*
X13141769Y-25154761D01*
X13094150Y-25107142D01*
X14284626Y-24202380D02*
X14379864Y-24202380D01*
X14475102Y-24250000D01*
X14522721Y-24297619D01*
X14570340Y-24392857D01*
X14617959Y-24583333D01*
X14617959Y-24821428D01*
X14570340Y-25011904D01*
X14522721Y-25107142D01*
X14475102Y-25154761D01*
X14379864Y-25202380D01*
X14284626Y-25202380D01*
X14189388Y-25154761D01*
X14141769Y-25107142D01*
X14094150Y-25011904D01*
X14046531Y-24821428D01*
X14046531Y-24583333D01*
X14094150Y-24392857D01*
X14141769Y-24297619D01*
X14189388Y-24250000D01*
X14284626Y-24202380D01*
X15237007Y-24202380D02*
X15332245Y-24202380D01*
X15427483Y-24250000D01*
X15475102Y-24297619D01*
X15522721Y-24392857D01*
X15570340Y-24583333D01*
X15570340Y-24821428D01*
X15522721Y-25011904D01*
X15475102Y-25107142D01*
X15427483Y-25154761D01*
X15332245Y-25202380D01*
X15237007Y-25202380D01*
X15141769Y-25154761D01*
X15094150Y-25107142D01*
X15046531Y-25011904D01*
X14998911Y-24821428D01*
X14998911Y-24583333D01*
X15046531Y-24392857D01*
X15094150Y-24297619D01*
X15141769Y-24250000D01*
X15237007Y-24202380D01*
X16522721Y-25202380D02*
X15951292Y-25202380D01*
X16237007Y-25202380D02*
X16237007Y-24202380D01*
X16141769Y-24345238D01*
X16046531Y-24440476D01*
X15951292Y-24488095D01*
X35998912Y-25202380D02*
X35522721Y-25202380D01*
X35522721Y-24202380D01*
X36332245Y-24678571D02*
X36665578Y-24678571D01*
X36808435Y-25202380D02*
X36332245Y-25202380D01*
X36332245Y-24202380D01*
X36808435Y-24202380D01*
X37808435Y-25107142D02*
X37760816Y-25154761D01*
X37617959Y-25202380D01*
X37522721Y-25202380D01*
X37379864Y-25154761D01*
X37284626Y-25059523D01*
X37237007Y-24964285D01*
X37189388Y-24773809D01*
X37189388Y-24630952D01*
X37237007Y-24440476D01*
X37284626Y-24345238D01*
X37379864Y-24250000D01*
X37522721Y-24202380D01*
X37617959Y-24202380D01*
X37760816Y-24250000D01*
X37808435Y-24297619D01*
X38427483Y-24202380D02*
X38522721Y-24202380D01*
X38617959Y-24250000D01*
X38665578Y-24297619D01*
X38713197Y-24392857D01*
X38760816Y-24583333D01*
X38760816Y-24821428D01*
X38713197Y-25011904D01*
X38665578Y-25107142D01*
X38617959Y-25154761D01*
X38522721Y-25202380D01*
X38427483Y-25202380D01*
X38332245Y-25154761D01*
X38284626Y-25107142D01*
X38237007Y-25011904D01*
X38189388Y-24821428D01*
X38189388Y-24583333D01*
X38237007Y-24392857D01*
X38284626Y-24297619D01*
X38332245Y-24250000D01*
X38427483Y-24202380D01*
X39379864Y-24202380D02*
X39475102Y-24202380D01*
X39570340Y-24250000D01*
X39617959Y-24297619D01*
X39665578Y-24392857D01*
X39713197Y-24583333D01*
X39713197Y-24821428D01*
X39665578Y-25011904D01*
X39617959Y-25107142D01*
X39570340Y-25154761D01*
X39475102Y-25202380D01*
X39379864Y-25202380D01*
X39284626Y-25154761D01*
X39237007Y-25107142D01*
X39189388Y-25011904D01*
X39141769Y-24821428D01*
X39141769Y-24583333D01*
X39189388Y-24392857D01*
X39237007Y-24297619D01*
X39284626Y-24250000D01*
X39379864Y-24202380D01*
X40617959Y-24202380D02*
X40141769Y-24202380D01*
X40094150Y-24678571D01*
X40141769Y-24630952D01*
X40237007Y-24583333D01*
X40475102Y-24583333D01*
X40570340Y-24630952D01*
X40617959Y-24678571D01*
X40665578Y-24773809D01*
X40665578Y-25011904D01*
X40617959Y-25107142D01*
X40570340Y-25154761D01*
X40475102Y-25202380D01*
X40237007Y-25202380D01*
X40141769Y-25154761D01*
X40094150Y-25107142D01*
X41284626Y-24202380D02*
X41379864Y-24202380D01*
X41475102Y-24250000D01*
X41522721Y-24297619D01*
X41570340Y-24392857D01*
X41617959Y-24583333D01*
X41617959Y-24821428D01*
X41570340Y-25011904D01*
X41522721Y-25107142D01*
X41475102Y-25154761D01*
X41379864Y-25202380D01*
X41284626Y-25202380D01*
X41189388Y-25154761D01*
X41141769Y-25107142D01*
X41094150Y-25011904D01*
X41046531Y-24821428D01*
X41046531Y-24583333D01*
X41094150Y-24392857D01*
X41141769Y-24297619D01*
X41189388Y-24250000D01*
X41284626Y-24202380D01*
X42237007Y-24202380D02*
X42332245Y-24202380D01*
X42427483Y-24250000D01*
X42475102Y-24297619D01*
X42522721Y-24392857D01*
X42570340Y-24583333D01*
X42570340Y-24821428D01*
X42522721Y-25011904D01*
X42475102Y-25107142D01*
X42427483Y-25154761D01*
X42332245Y-25202380D01*
X42237007Y-25202380D01*
X42141769Y-25154761D01*
X42094150Y-25107142D01*
X42046531Y-25011904D01*
X41998912Y-24821428D01*
X41998912Y-24583333D01*
X42046531Y-24392857D01*
X42094150Y-24297619D01*
X42141769Y-24250000D01*
X42237007Y-24202380D01*
X43522721Y-25202380D02*
X42951292Y-25202380D01*
X43237007Y-25202380D02*
X43237007Y-24202380D01*
X43141769Y-24345238D01*
X43046531Y-24440476D01*
X42951292Y-24488095D01*
X62998912Y-25202380D02*
X62522721Y-25202380D01*
X62522721Y-24202380D01*
X63332245Y-24678571D02*
X63665578Y-24678571D01*
X63808435Y-25202380D02*
X63332245Y-25202380D01*
X63332245Y-24202380D01*
X63808435Y-24202380D01*
X64808435Y-25107142D02*
X64760816Y-25154761D01*
X64617959Y-25202380D01*
X64522721Y-25202380D01*
X64379864Y-25154761D01*
X64284626Y-25059523D01*
X64237007Y-24964285D01*
X64189388Y-24773809D01*
X64189388Y-24630952D01*
X64237007Y-24440476D01*
X64284626Y-24345238D01*
X64379864Y-24250000D01*
X64522721Y-24202380D01*
X64617959Y-24202380D01*
X64760816Y-24250000D01*
X64808435Y-24297619D01*
X65427483Y-24202380D02*
X65522721Y-24202380D01*
X65617959Y-24250000D01*
X65665578Y-24297619D01*
X65713197Y-24392857D01*
X65760816Y-24583333D01*
X65760816Y-24821428D01*
X65713197Y-25011904D01*
X65665578Y-25107142D01*
X65617959Y-25154761D01*
X65522721Y-25202380D01*
X65427483Y-25202380D01*
X65332245Y-25154761D01*
X65284626Y-25107142D01*
X65237007Y-25011904D01*
X65189388Y-24821428D01*
X65189388Y-24583333D01*
X65237007Y-24392857D01*
X65284626Y-24297619D01*
X65332245Y-24250000D01*
X65427483Y-24202380D01*
X66379864Y-24202380D02*
X66475102Y-24202380D01*
X66570340Y-24250000D01*
X66617959Y-24297619D01*
X66665578Y-24392857D01*
X66713197Y-24583333D01*
X66713197Y-24821428D01*
X66665578Y-25011904D01*
X66617959Y-25107142D01*
X66570340Y-25154761D01*
X66475102Y-25202380D01*
X66379864Y-25202380D01*
X66284626Y-25154761D01*
X66237007Y-25107142D01*
X66189388Y-25011904D01*
X66141769Y-24821428D01*
X66141769Y-24583333D01*
X66189388Y-24392857D01*
X66237007Y-24297619D01*
X66284626Y-24250000D01*
X66379864Y-24202380D01*
X67617959Y-24202380D02*
X67141769Y-24202380D01*
X67094150Y-24678571D01*
X67141769Y-24630952D01*
X67237007Y-24583333D01*
X67475102Y-24583333D01*
X67570340Y-24630952D01*
X67617959Y-24678571D01*
X67665578Y-24773809D01*
X67665578Y-25011904D01*
X67617959Y-25107142D01*
X67570340Y-25154761D01*
X67475102Y-25202380D01*
X67237007Y-25202380D01*
X67141769Y-25154761D01*
X67094150Y-25107142D01*
X68284626Y-24202380D02*
X68379864Y-24202380D01*
X68475102Y-24250000D01*
X68522721Y-24297619D01*
X68570340Y-24392857D01*
X68617959Y-24583333D01*
X68617959Y-24821428D01*
X68570340Y-25011904D01*
X68522721Y-25107142D01*
X68475102Y-25154761D01*
X68379864Y-25202380D01*
X68284626Y-25202380D01*
X68189388Y-25154761D01*
X68141769Y-25107142D01*
X68094150Y-25011904D01*
X68046531Y-24821428D01*
X68046531Y-24583333D01*
X68094150Y-24392857D01*
X68141769Y-24297619D01*
X68189388Y-24250000D01*
X68284626Y-24202380D01*
X69237007Y-24202380D02*
X69332245Y-24202380D01*
X69427483Y-24250000D01*
X69475102Y-24297619D01*
X69522721Y-24392857D01*
X69570340Y-24583333D01*
X69570340Y-24821428D01*
X69522721Y-25011904D01*
X69475102Y-25107142D01*
X69427483Y-25154761D01*
X69332245Y-25202380D01*
X69237007Y-25202380D01*
X69141769Y-25154761D01*
X69094150Y-25107142D01*
X69046531Y-25011904D01*
X68998912Y-24821428D01*
X68998912Y-24583333D01*
X69046531Y-24392857D01*
X69094150Y-24297619D01*
X69141769Y-24250000D01*
X69237007Y-24202380D01*
X70522721Y-25202380D02*
X69951292Y-25202380D01*
X70237007Y-25202380D02*
X70237007Y-24202380D01*
X70141769Y-24345238D01*
X70046531Y-24440476D01*
X69951292Y-24488095D01*
X8998911Y-39202380D02*
X8522721Y-39202380D01*
X8522721Y-38202380D01*
X9332245Y-38678571D02*
X9665578Y-38678571D01*
X9808435Y-39202380D02*
X9332245Y-39202380D01*
X9332245Y-38202380D01*
X9808435Y-38202380D01*
X10808435Y-39107142D02*
X10760816Y-39154761D01*
X10617959Y-39202380D01*
X10522721Y-39202380D01*
X10379864Y-39154761D01*
X10284626Y-39059523D01*
X10237007Y-38964285D01*
X10189388Y-38773809D01*
X10189388Y-38630952D01*
X10237007Y-38440476D01*
X10284626Y-38345238D01*
X10379864Y-38250000D01*
X10522721Y-38202380D01*
X10617959Y-38202380D01*
X10760816Y-38250000D01*
X10808435Y-38297619D01*
X11427483Y-38202380D02*
X11522721Y-38202380D01*
X11617959Y-38250000D01*
X11665578Y-38297619D01*
X11713197Y-38392857D01*
X11760816Y-38583333D01*
X11760816Y-38821428D01*
X11713197Y-39011904D01*
X11665578Y-39107142D01*
X11617959Y-39154761D01*
X11522721Y-39202380D01*
X11427483Y-39202380D01*
X11332245Y-39154761D01*
X11284626Y-39107142D01*
X11237007Y-39011904D01*
X11189388Y-38821428D01*
X11189388Y-38583333D01*
X11237007Y-38392857D01*
X11284626Y-38297619D01*
X11332245Y-38250000D01*
X11427483Y-38202380D01*
X12379864Y-38202380D02*
X12475102Y-38202380D01*
X12570340Y-38250000D01*
X12617959Y-38297619D01*
X12665578Y-38392857D01*
X12713197Y-38583333D01*
X12713197Y-38821428D01*
X12665578Y-39011904D01*
X12617959Y-39107142D01*
X12570340Y-39154761D01*
X12475102Y-39202380D01*
X12379864Y-39202380D01*
X12284626Y-39154761D01*
X12237007Y-39107142D01*
X12189388Y-39011904D01*
X12141769Y-38821428D01*
X12141769Y-38583333D01*
X12189388Y-38392857D01*
X12237007Y-38297619D01*
X12284626Y-38250000D01*
X12379864Y-38202380D01*
X13617959Y-38202380D02*
X13141769Y-38202380D01*
X13094150Y-38678571D01*
X13141769Y-38630952D01*
X13237007Y-38583333D01*
X13475102Y-38583333D01*
X13570340Y-38630952D01*
X13617959Y-38678571D01*
X13665578Y-38773809D01*
X13665578Y-39011904D01*
X13617959Y-39107142D01*
X13570340Y-39154761D01*
X13475102Y-39202380D01*
X13237007Y-39202380D01*
X13141769Y-39154761D01*
X13094150Y-39107142D01*
X14284626Y-38202380D02*
X14379864Y-38202380D01*
X14475102Y-38250000D01*
X14522721Y-38297619D01*
X14570340Y-38392857D01*
X14617959Y-38583333D01*
X14617959Y-38821428D01*
X14570340Y-39011904D01*
X14522721Y-39107142D01*
X14475102Y-39154761D01*
X14379864Y-39202380D01*
X14284626Y-39202380D01*
X14189388Y-39154761D01*
X14141769Y-39107142D01*
X14094150Y-39011904D01*
X14046531Y-38821428D01*
X14046531Y-38583333D01*
X14094150Y-38392857D01*
X14141769Y-38297619D01*
X14189388Y-38250000D01*
X14284626Y-38202380D01*
X15237007Y-38202380D02*
X15332245Y-38202380D01*
X15427483Y-38250000D01*
X15475102Y-38297619D01*
X15522721Y-38392857D01*
X15570340Y-38583333D01*
X15570340Y-38821428D01*
X15522721Y-39011904D01*
X15475102Y-39107142D01*
X15427483Y-39154761D01*
X15332245Y-39202380D01*
X15237007Y-39202380D01*
X15141769Y-39154761D01*
X15094150Y-39107142D01*
X15046531Y-39011904D01*
X14998911Y-38821428D01*
X14998911Y-38583333D01*
X15046531Y-38392857D01*
X15094150Y-38297619D01*
X15141769Y-38250000D01*
X15237007Y-38202380D01*
X16522721Y-39202380D02*
X15951292Y-39202380D01*
X16237007Y-39202380D02*
X16237007Y-38202380D01*
X16141769Y-38345238D01*
X16046531Y-38440476D01*
X15951292Y-38488095D01*
X35998912Y-39202380D02*
X35522721Y-39202380D01*
X35522721Y-38202380D01*
X36332245Y-38678571D02*
X36665578Y-38678571D01*
X36808435Y-39202380D02*
X36332245Y-39202380D01*
X36332245Y-38202380D01*
X36808435Y-38202380D01*
X37808435Y-39107142D02*
X37760816Y-39154761D01*
X37617959Y-39202380D01*
X37522721Y-39202380D01*
X37379864Y-39154761D01*
X37284626Y-39059523D01*
X37237007Y-38964285D01*
X37189388Y-38773809D01*
X37189388Y-38630952D01*
X37237007Y-38440476D01*
X37284626Y-38345238D01*
X37379864Y-38250000D01*
X37522721Y-38202380D01*
X37617959Y-38202380D01*
X37760816Y-38250000D01*
X37808435Y-38297619D01*
X38427483Y-38202380D02*
X38522721Y-38202380D01*
X38617959Y-38250000D01*
X38665578Y-38297619D01*
X38713197Y-38392857D01*
X38760816Y-38583333D01*
X38760816Y-38821428D01*
X38713197Y-39011904D01*
X38665578Y-39107142D01*
X38617959Y-39154761D01*
X38522721Y-39202380D01*
X38427483Y-39202380D01*
X38332245Y-39154761D01*
X38284626Y-39107142D01*
X38237007Y-39011904D01*
X38189388Y-38821428D01*
X38189388Y-38583333D01*
X38237007Y-38392857D01*
X38284626Y-38297619D01*
X38332245Y-38250000D01*
X38427483Y-38202380D01*
X39379864Y-38202380D02*
X39475102Y-38202380D01*
X39570340Y-38250000D01*
X39617959Y-38297619D01*
X39665578Y-38392857D01*
X39713197Y-38583333D01*
X39713197Y-38821428D01*
X39665578Y-39011904D01*
X39617959Y-39107142D01*
X39570340Y-39154761D01*
X39475102Y-39202380D01*
X39379864Y-39202380D01*
X39284626Y-39154761D01*
X39237007Y-39107142D01*
X39189388Y-39011904D01*
X39141769Y-38821428D01*
X39141769Y-38583333D01*
X39189388Y-38392857D01*
X39237007Y-38297619D01*
X39284626Y-38250000D01*
X39379864Y-38202380D01*
X40617959Y-38202380D02*
X40141769Y-38202380D01*
X40094150Y-38678571D01*
X40141769Y-38630952D01*
X40237007Y-38583333D01*
X40475102Y-38583333D01*
X40570340Y-38630952D01*
X40617959Y-38678571D01*
X40665578Y-38773809D01*
X40665578Y-39011904D01*
X40617959Y-39107142D01*
X40570340Y-39154761D01*
X40475102Y-39202380D01*
X40237007Y-39202380D01*
X40141769Y-39154761D01*
X40094150Y-39107142D01*
X41284626Y-38202380D02*
X41379864Y-38202380D01*
X41475102Y-38250000D01*
X41522721Y-38297619D01*
X41570340Y-38392857D01*
X41617959Y-38583333D01*
X41617959Y-38821428D01*
X41570340Y-39011904D01*
X41522721Y-39107142D01*
X41475102Y-39154761D01*
X41379864Y-39202380D01*
X41284626Y-39202380D01*
X41189388Y-39154761D01*
X41141769Y-39107142D01*
X41094150Y-39011904D01*
X41046531Y-38821428D01*
X41046531Y-38583333D01*
X41094150Y-38392857D01*
X41141769Y-38297619D01*
X41189388Y-38250000D01*
X41284626Y-38202380D01*
X42237007Y-38202380D02*
X42332245Y-38202380D01*
X42427483Y-38250000D01*
X42475102Y-38297619D01*
X42522721Y-38392857D01*
X42570340Y-38583333D01*
X42570340Y-38821428D01*
X42522721Y-39011904D01*
X42475102Y-39107142D01*
X42427483Y-39154761D01*
X42332245Y-39202380D01*
X42237007Y-39202380D01*
X42141769Y-39154761D01*
X42094150Y-39107142D01*
X42046531Y-39011904D01*
X41998912Y-38821428D01*
X41998912Y-38583333D01*
X42046531Y-38392857D01*
X42094150Y-38297619D01*
X42141769Y-38250000D01*
X42237007Y-38202380D01*
X43522721Y-39202380D02*
X42951292Y-39202380D01*
X43237007Y-39202380D02*
X43237007Y-38202380D01*
X43141769Y-38345238D01*
X43046531Y-38440476D01*
X42951292Y-38488095D01*
X62998912Y-39202380D02*
X62522721Y-39202380D01*
X62522721Y-38202380D01*
X63332245Y-38678571D02*
X63665578Y-38678571D01*
X63808435Y-39202380D02*
X63332245Y-39202380D01*
X63332245Y-38202380D01*
X63808435Y-38202380D01*
X64808435Y-39107142D02*
X64760816Y-39154761D01*
X64617959Y-39202380D01*
X64522721Y-39202380D01*
X64379864Y-39154761D01*
X64284626Y-39059523D01*
X64237007Y-38964285D01*
X64189388Y-38773809D01*
X64189388Y-38630952D01*
X64237007Y-38440476D01*
X64284626Y-38345238D01*
X64379864Y-38250000D01*
X64522721Y-38202380D01*
X64617959Y-38202380D01*
X64760816Y-38250000D01*
X64808435Y-38297619D01*
X65427483Y-38202380D02*
X65522721Y-38202380D01*
X65617959Y-38250000D01*
X65665578Y-38297619D01*
X65713197Y-38392857D01*
X65760816Y-38583333D01*
X65760816Y-38821428D01*
X65713197Y-39011904D01*
X65665578Y-39107142D01*
X65617959Y-39154761D01*
X65522721Y-39202380D01*
X65427483Y-39202380D01*
X65332245Y-39154761D01*
X65284626Y-39107142D01*
X65237007Y-39011904D01*
X65189388Y-38821428D01*
X65189388Y-38583333D01*
X65237007Y-38392857D01*
X65284626Y-38297619D01*
X65332245Y-38250000D01*
X65427483Y-38202380D01*
X66379864Y-38202380D02*
X66475102Y-38202380D01*
X66570340Y-38250000D01*
X66617959Y-38297619D01*
X66665578Y-38392857D01*
X66713197Y-38583333D01*
X66713197Y-38821428D01*
X66665578Y-39011904D01*
X66617959Y-39107142D01*
X66570340Y-39154761D01*
X66475102Y-39202380D01*
X66379864Y-39202380D01*
X66284626Y-39154761D01*
X66237007Y-39107142D01*
X66189388Y-39011904D01*
X66141769Y-38821428D01*
X66141769Y-38583333D01*
X66189388Y-38392857D01*
X66237007Y-38297619D01*
X66284626Y-38250000D01*
X66379864Y-38202380D01*
X67617959Y-38202380D02*
X67141769Y-38202380D01*
X67094150Y-38678571D01*
X67141769Y-38630952D01*
X67237007Y-38583333D01*
X67475102Y-38583333D01*
X67570340Y-38630952D01*
X67617959Y-38678571D01*
X67665578Y-38773809D01*
X67665578Y-39011904D01*
X67617959Y-39107142D01*
X67570340Y-39154761D01*
X67475102Y-39202380D01*
X67237007Y-39202380D01*
X67141769Y-39154761D01*
X67094150Y-39107142D01*
X68284626Y-38202380D02*
X68379864Y-38202380D01*
X68475102Y-38250000D01*
X68522721Y-38297619D01*
X68570340Y-38392857D01*
X68617959Y-38583333D01*
X68617959Y-38821428D01*
X68570340Y-39011904D01*
X68522721Y-39107142D01*
X68475102Y-39154761D01*
X68379864Y-39202380D01*
X68284626Y-39202380D01*
X68189388Y-39154761D01*
X68141769Y-39107142D01*
X68094150Y-39011904D01*
X68046531Y-38821428D01*
X68046531Y-38583333D01*
X68094150Y-38392857D01*
X68141769Y-38297619D01*
X68189388Y-38250000D01*
X68284626Y-38202380D01*
X69237007Y-38202380D02*
X69332245Y-38202380D01*
X69427483Y-38250000D01*
X69475102Y-38297619D01*
X69522721Y-38392857D01*
X69570340Y-38583333D01*
X69570340Y-38821428D01*
X69522721Y-39011904D01*
X69475102Y-39107142D01*
X69427483Y-39154761D01*
X69332245Y-39202380D01*
X69237007Y-39202380D01*
X69141769Y-39154761D01*
X69094150Y-39107142D01*
X69046531Y-39011904D01*
X68998912Y-38821428D01*
X68998912Y-38583333D01*
X69046531Y-38392857D01*
X69094150Y-38297619D01*
X69141769Y-38250000D01*
X69237007Y-38202380D01*
X70522721Y-39202380D02*
X69951292Y-39202380D01*
X70237007Y-39202380D02*
X70237007Y-38202380D01*
X70141769Y-38345238D01*
X70046531Y-38440476D01*
X69951292Y-38488095D01*
X8998911Y-53202380D02*
X8522721Y-53202380D01*
X8522721Y-52202380D01*
X9332245Y-52678571D02*
X9665578Y-52678571D01*
X9808435Y-53202380D02*
X9332245Y-53202380D01*
X9332245Y-52202380D01*
X9808435Y-52202380D01*
X10808435Y-53107142D02*
X10760816Y-53154761D01*
X10617959Y-53202380D01*
X10522721Y-53202380D01*
X10379864Y-53154761D01*
X10284626Y-53059523D01*
X10237007Y-52964285D01*
X10189388Y-52773809D01*
X10189388Y-52630952D01*
X10237007Y-52440476D01*
X10284626Y-52345238D01*
X10379864Y-52250000D01*
X10522721Y-52202380D01*
X10617959Y-52202380D01*
X10760816Y-52250000D01*
X10808435Y-52297619D01*
X11427483Y-52202380D02*
X11522721Y-52202380D01*
X11617959Y-52250000D01*
X11665578Y-52297619D01*
X11713197Y-52392857D01*
X11760816Y-52583333D01*
X11760816Y-52821428D01*
X11713197Y-53011904D01*
X11665578Y-53107142D01*
X11617959Y-53154761D01*
X11522721Y-53202380D01*
X11427483Y-53202380D01*
X11332245Y-53154761D01*
X11284626Y-53107142D01*
X11237007Y-53011904D01*
X11189388Y-52821428D01*
X11189388Y-52583333D01*
X11237007Y-52392857D01*
X11284626Y-52297619D01*
X11332245Y-52250000D01*
X11427483Y-52202380D01*
X12379864Y-52202380D02*
X12475102Y-52202380D01*
X12570340Y-52250000D01*
X12617959Y-52297619D01*
X12665578Y-52392857D01*
X12713197Y-52583333D01*
X12713197Y-52821428D01*
X12665578Y-53011904D01*
X12617959Y-53107142D01*
X12570340Y-53154761D01*
X12475102Y-53202380D01*
X12379864Y-53202380D01*
X12284626Y-53154761D01*
X12237007Y-53107142D01*
X12189388Y-53011904D01*
X12141769Y-52821428D01*
X12141769Y-52583333D01*
X12189388Y-52392857D01*
X12237007Y-52297619D01*
X12284626Y-52250000D01*
X12379864Y-52202380D01*
X13617959Y-52202380D02*
X13141769Y-52202380D01*
X13094150Y-52678571D01*
X13141769Y-52630952D01*
X13237007Y-52583333D01*
X13475102Y-52583333D01*
X13570340Y-52630952D01*
X13617959Y-52678571D01*
X13665578Y-52773809D01*
X13665578Y-53011904D01*
X13617959Y-53107142D01*
X13570340Y-53154761D01*
X13475102Y-53202380D01*
X13237007Y-53202380D01*
X13141769Y-53154761D01*
X13094150Y-53107142D01*
X14284626Y-52202380D02*
X14379864Y-52202380D01*
X14475102Y-52250000D01*
X14522721Y-52297619D01*
X14570340Y-52392857D01*
X14617959Y-52583333D01*
X14617959Y-52821428D01*
X14570340Y-53011904D01*
X14522721Y-53107142D01*
X14475102Y-53154761D01*
X14379864Y-53202380D01*
X14284626Y-53202380D01*
X14189388Y-53154761D01*
X14141769Y-53107142D01*
X14094150Y-53011904D01*
X14046531Y-52821428D01*
X14046531Y-52583333D01*
X14094150Y-52392857D01*
X14141769Y-52297619D01*
X14189388Y-52250000D01*
X14284626Y-52202380D01*
X15237007Y-52202380D02*
X15332245Y-52202380D01*
X15427483Y-52250000D01*
X15475102Y-52297619D01*
X15522721Y-52392857D01*
X15570340Y-52583333D01*
X15570340Y-52821428D01*
X15522721Y-53011904D01*
X15475102Y-53107142D01*
X15427483Y-53154761D01*
X15332245Y-53202380D01*
X15237007Y-53202380D01*
X15141769Y-53154761D01*
X15094150Y-53107142D01*
X15046531Y-53011904D01*
X14998911Y-52821428D01*
X14998911Y-52583333D01*
X15046531Y-52392857D01*
X15094150Y-52297619D01*
X15141769Y-52250000D01*
X15237007Y-52202380D01*
X16522721Y-53202380D02*
X15951292Y-53202380D01*
X16237007Y-53202380D02*
X16237007Y-52202380D01*
X16141769Y-52345238D01*
X16046531Y-52440476D01*
X15951292Y-52488095D01*
X35998912Y-53202380D02*
X35522721Y-53202380D01*
X35522721Y-52202380D01*
X36332245Y-52678571D02*
X36665578Y-52678571D01*
X36808435Y-53202380D02*
X36332245Y-53202380D01*
X36332245Y-52202380D01*
X36808435Y-52202380D01*
X37808435Y-53107142D02*
X37760816Y-53154761D01*
X37617959Y-53202380D01*
X37522721Y-53202380D01*
X37379864Y-53154761D01*
X37284626Y-53059523D01*
X37237007Y-52964285D01*
X37189388Y-52773809D01*
X37189388Y-52630952D01*
X37237007Y-52440476D01*
X37284626Y-52345238D01*
X37379864Y-52250000D01*
X37522721Y-52202380D01*
X37617959Y-52202380D01*
X37760816Y-52250000D01*
X37808435Y-52297619D01*
X38427483Y-52202380D02*
X38522721Y-52202380D01*
X38617959Y-52250000D01*
X38665578Y-52297619D01*
X38713197Y-52392857D01*
X38760816Y-52583333D01*
X38760816Y-52821428D01*
X38713197Y-53011904D01*
X38665578Y-53107142D01*
X38617959Y-53154761D01*
X38522721Y-53202380D01*
X38427483Y-53202380D01*
X38332245Y-53154761D01*
X38284626Y-53107142D01*
X38237007Y-53011904D01*
X38189388Y-52821428D01*
X38189388Y-52583333D01*
X38237007Y-52392857D01*
X38284626Y-52297619D01*
X38332245Y-52250000D01*
X38427483Y-52202380D01*
X39379864Y-52202380D02*
X39475102Y-52202380D01*
X39570340Y-52250000D01*
X39617959Y-52297619D01*
X39665578Y-52392857D01*
X39713197Y-52583333D01*
X39713197Y-52821428D01*
X39665578Y-53011904D01*
X39617959Y-53107142D01*
X39570340Y-53154761D01*
X39475102Y-53202380D01*
X39379864Y-53202380D01*
X39284626Y-53154761D01*
X39237007Y-53107142D01*
X39189388Y-53011904D01*
X39141769Y-52821428D01*
X39141769Y-52583333D01*
X39189388Y-52392857D01*
X39237007Y-52297619D01*
X39284626Y-52250000D01*
X39379864Y-52202380D01*
X40617959Y-52202380D02*
X40141769Y-52202380D01*
X40094150Y-52678571D01*
X40141769Y-52630952D01*
X40237007Y-52583333D01*
X40475102Y-52583333D01*
X40570340Y-52630952D01*
X40617959Y-52678571D01*
X40665578Y-52773809D01*
X40665578Y-53011904D01*
X40617959Y-53107142D01*
X40570340Y-53154761D01*
X40475102Y-53202380D01*
X40237007Y-53202380D01*
X40141769Y-53154761D01*
X40094150Y-53107142D01*
X41284626Y-52202380D02*
X41379864Y-52202380D01*
X41475102Y-52250000D01*
X41522721Y-52297619D01*
X41570340Y-52392857D01*
X41617959Y-52583333D01*
X41617959Y-52821428D01*
X41570340Y-53011904D01*
X41522721Y-53107142D01*
X41475102Y-53154761D01*
X41379864Y-53202380D01*
X41284626Y-53202380D01*
X41189388Y-53154761D01*
X41141769Y-53107142D01*
X41094150Y-53011904D01*
X41046531Y-52821428D01*
X41046531Y-52583333D01*
X41094150Y-52392857D01*
X41141769Y-52297619D01*
X41189388Y-52250000D01*
X41284626Y-52202380D01*
X42237007Y-52202380D02*
X42332245Y-52202380D01*
X42427483Y-52250000D01*
X42475102Y-52297619D01*
X42522721Y-52392857D01*
X42570340Y-52583333D01*
X42570340Y-52821428D01*
X42522721Y-53011904D01*
X42475102Y-53107142D01*
X42427483Y-53154761D01*
X42332245Y-53202380D01*
X42237007Y-53202380D01*
X42141769Y-53154761D01*
X42094150Y-53107142D01*
X42046531Y-53011904D01*
X41998912Y-52821428D01*
X41998912Y-52583333D01*
X42046531Y-52392857D01*
X42094150Y-52297619D01*
X42141769Y-52250000D01*
X42237007Y-52202380D01*
X43522721Y-53202380D02*
X42951292Y-53202380D01*
X43237007Y-53202380D02*
X43237007Y-52202380D01*
X43141769Y-52345238D01*
X43046531Y-52440476D01*
X42951292Y-52488095D01*
X62998912Y-53202380D02*
X62522721Y-53202380D01*
X62522721Y-52202380D01*
X63332245Y-52678571D02*
X63665578Y-52678571D01*
X63808435Y-53202380D02*
X63332245Y-53202380D01*
X63332245Y-52202380D01*
X63808435Y-52202380D01*
X64808435Y-53107142D02*
X64760816Y-53154761D01*
X64617959Y-53202380D01*
X64522721Y-53202380D01*
X64379864Y-53154761D01*
X64284626Y-53059523D01*
X64237007Y-52964285D01*
X64189388Y-52773809D01*
X64189388Y-52630952D01*
X64237007Y-52440476D01*
X64284626Y-52345238D01*
X64379864Y-52250000D01*
X64522721Y-52202380D01*
X64617959Y-52202380D01*
X64760816Y-52250000D01*
X64808435Y-52297619D01*
X65427483Y-52202380D02*
X65522721Y-52202380D01*
X65617959Y-52250000D01*
X65665578Y-52297619D01*
X65713197Y-52392857D01*
X65760816Y-52583333D01*
X65760816Y-52821428D01*
X65713197Y-53011904D01*
X65665578Y-53107142D01*
X65617959Y-53154761D01*
X65522721Y-53202380D01*
X65427483Y-53202380D01*
X65332245Y-53154761D01*
X65284626Y-53107142D01*
X65237007Y-53011904D01*
X65189388Y-52821428D01*
X65189388Y-52583333D01*
X65237007Y-52392857D01*
X65284626Y-52297619D01*
X65332245Y-52250000D01*
X65427483Y-52202380D01*
X66379864Y-52202380D02*
X66475102Y-52202380D01*
X66570340Y-52250000D01*
X66617959Y-52297619D01*
X66665578Y-52392857D01*
X66713197Y-52583333D01*
X66713197Y-52821428D01*
X66665578Y-53011904D01*
X66617959Y-53107142D01*
X66570340Y-53154761D01*
X66475102Y-53202380D01*
X66379864Y-53202380D01*
X66284626Y-53154761D01*
X66237007Y-53107142D01*
X66189388Y-53011904D01*
X66141769Y-52821428D01*
X66141769Y-52583333D01*
X66189388Y-52392857D01*
X66237007Y-52297619D01*
X66284626Y-52250000D01*
X66379864Y-52202380D01*
X67617959Y-52202380D02*
X67141769Y-52202380D01*
X67094150Y-52678571D01*
X67141769Y-52630952D01*
X67237007Y-52583333D01*
X67475102Y-52583333D01*
X67570340Y-52630952D01*
X67617959Y-52678571D01*
X67665578Y-52773809D01*
X67665578Y-53011904D01*
X67617959Y-53107142D01*
X67570340Y-53154761D01*
X67475102Y-53202380D01*
X67237007Y-53202380D01*
X67141769Y-53154761D01*
X67094150Y-53107142D01*
X68284626Y-52202380D02*
X68379864Y-52202380D01*
X68475102Y-52250000D01*
X68522721Y-52297619D01*
X68570340Y-52392857D01*
X68617959Y-52583333D01*
X68617959Y-52821428D01*
X68570340Y-53011904D01*
X68522721Y-53107142D01*
X68475102Y-53154761D01*
X68379864Y-53202380D01*
X68284626Y-53202380D01*
X68189388Y-53154761D01*
X68141769Y-53107142D01*
X68094150Y-53011904D01*
X68046531Y-52821428D01*
X68046531Y-52583333D01*
X68094150Y-52392857D01*
X68141769Y-52297619D01*
X68189388Y-52250000D01*
X68284626Y-52202380D01*
X69237007Y-52202380D02*
X69332245Y-52202380D01*
X69427483Y-52250000D01*
X69475102Y-52297619D01*
X69522721Y-52392857D01*
X69570340Y-52583333D01*
X69570340Y-52821428D01*
X69522721Y-53011904D01*
X69475102Y-53107142D01*
X69427483Y-53154761D01*
X69332245Y-53202380D01*
X69237007Y-53202380D01*
X69141769Y-53154761D01*
X69094150Y-53107142D01*
X69046531Y-53011904D01*
X68998912Y-52821428D01*
X68998912Y-52583333D01*
X69046531Y-52392857D01*
X69094150Y-52297619D01*
X69141769Y-52250000D01*
X69237007Y-52202380D01*
X70522721Y-53202380D02*
X69951292Y-53202380D01*
X70237007Y-53202380D02*
X70237007Y-52202380D01*
X70141769Y-52345238D01*
X70046531Y-52440476D01*
X69951292Y-52488095D01*
X8998911Y-67202380D02*
X8522721Y-67202380D01*
X8522721Y-66202380D01*
X9332245Y-66678571D02*
X9665578Y-66678571D01*
X9808435Y-67202380D02*
X9332245Y-67202380D01*
X9332245Y-66202380D01*
X9808435Y-66202380D01*
X10808435Y-67107142D02*
X10760816Y-67154761D01*
X10617959Y-67202380D01*
X10522721Y-67202380D01*
X10379864Y-67154761D01*
X10284626Y-67059523D01*
X10237007Y-66964285D01*
X10189388Y-66773809D01*
X10189388Y-66630952D01*
X10237007Y-66440476D01*
X10284626Y-66345238D01*
X10379864Y-66250000D01*
X10522721Y-66202380D01*
X10617959Y-66202380D01*
X10760816Y-66250000D01*
X10808435Y-66297619D01*
X11427483Y-66202380D02*
X11522721Y-66202380D01*
X11617959Y-66250000D01*
X11665578Y-66297619D01*
X11713197Y-66392857D01*
X11760816Y-66583333D01*
X11760816Y-66821428D01*
X11713197Y-67011904D01*
X11665578Y-67107142D01*
X11617959Y-67154761D01*
X11522721Y-67202380D01*
X11427483Y-67202380D01*
X11332245Y-67154761D01*
X11284626Y-67107142D01*
X11237007Y-67011904D01*
X11189388Y-66821428D01*
X11189388Y-66583333D01*
X11237007Y-66392857D01*
X11284626Y-66297619D01*
X11332245Y-66250000D01*
X11427483Y-66202380D01*
X12379864Y-66202380D02*
X12475102Y-66202380D01*
X12570340Y-66250000D01*
X12617959Y-66297619D01*
X12665578Y-66392857D01*
X12713197Y-66583333D01*
X12713197Y-66821428D01*
X12665578Y-67011904D01*
X12617959Y-67107142D01*
X12570340Y-67154761D01*
X12475102Y-67202380D01*
X12379864Y-67202380D01*
X12284626Y-67154761D01*
X12237007Y-67107142D01*
X12189388Y-67011904D01*
X12141769Y-66821428D01*
X12141769Y-66583333D01*
X12189388Y-66392857D01*
X12237007Y-66297619D01*
X12284626Y-66250000D01*
X12379864Y-66202380D01*
X13617959Y-66202380D02*
X13141769Y-66202380D01*
X13094150Y-66678571D01*
X13141769Y-66630952D01*
X13237007Y-66583333D01*
X13475102Y-66583333D01*
X13570340Y-66630952D01*
X13617959Y-66678571D01*
X13665578Y-66773809D01*
X13665578Y-67011904D01*
X13617959Y-67107142D01*
X13570340Y-67154761D01*
X13475102Y-67202380D01*
X13237007Y-67202380D01*
X13141769Y-67154761D01*
X13094150Y-67107142D01*
X14284626Y-66202380D02*
X14379864Y-66202380D01*
X14475102Y-66250000D01*
X14522721Y-66297619D01*
X14570340Y-66392857D01*
X14617959Y-66583333D01*
X14617959Y-66821428D01*
X14570340Y-67011904D01*
X14522721Y-67107142D01*
X14475102Y-67154761D01*
X14379864Y-67202380D01*
X14284626Y-67202380D01*
X14189388Y-67154761D01*
X14141769Y-67107142D01*
X14094150Y-67011904D01*
X14046531Y-66821428D01*
X14046531Y-66583333D01*
X14094150Y-66392857D01*
X14141769Y-66297619D01*
X14189388Y-66250000D01*
X14284626Y-66202380D01*
X15237007Y-66202380D02*
X15332245Y-66202380D01*
X15427483Y-66250000D01*
X15475102Y-66297619D01*
X15522721Y-66392857D01*
X15570340Y-66583333D01*
X15570340Y-66821428D01*
X15522721Y-67011904D01*
X15475102Y-67107142D01*
X15427483Y-67154761D01*
X15332245Y-67202380D01*
X15237007Y-67202380D01*
X15141769Y-67154761D01*
X15094150Y-67107142D01*
X15046531Y-67011904D01*
X14998911Y-66821428D01*
X14998911Y-66583333D01*
X15046531Y-66392857D01*
X15094150Y-66297619D01*
X15141769Y-66250000D01*
X15237007Y-66202380D01*
X16522721Y-67202380D02*
X15951292Y-67202380D01*
X16237007Y-67202380D02*
X16237007Y-66202380D01*
X16141769Y-66345238D01*
X16046531Y-66440476D01*
X15951292Y-66488095D01*
X35998912Y-67202380D02*
X35522721Y-67202380D01*
X35522721Y-66202380D01*
X36332245Y-66678571D02*
X36665578Y-66678571D01*
X36808435Y-67202380D02*
X36332245Y-67202380D01*
X36332245Y-66202380D01*
X36808435Y-66202380D01*
X37808435Y-67107142D02*
X37760816Y-67154761D01*
X37617959Y-67202380D01*
X37522721Y-67202380D01*
X37379864Y-67154761D01*
X37284626Y-67059523D01*
X37237007Y-66964285D01*
X37189388Y-66773809D01*
X37189388Y-66630952D01*
X37237007Y-66440476D01*
X37284626Y-66345238D01*
X37379864Y-66250000D01*
X37522721Y-66202380D01*
X37617959Y-66202380D01*
X37760816Y-66250000D01*
X37808435Y-66297619D01*
X38427483Y-66202380D02*
X38522721Y-66202380D01*
X38617959Y-66250000D01*
X38665578Y-66297619D01*
X38713197Y-66392857D01*
X38760816Y-66583333D01*
X38760816Y-66821428D01*
X38713197Y-67011904D01*
X38665578Y-67107142D01*
X38617959Y-67154761D01*
X38522721Y-67202380D01*
X38427483Y-67202380D01*
X38332245Y-67154761D01*
X38284626Y-67107142D01*
X38237007Y-67011904D01*
X38189388Y-66821428D01*
X38189388Y-66583333D01*
X38237007Y-66392857D01*
X38284626Y-66297619D01*
X38332245Y-66250000D01*
X38427483Y-66202380D01*
X39379864Y-66202380D02*
X39475102Y-66202380D01*
X39570340Y-66250000D01*
X39617959Y-66297619D01*
X39665578Y-66392857D01*
X39713197Y-66583333D01*
X39713197Y-66821428D01*
X39665578Y-67011904D01*
X39617959Y-67107142D01*
X39570340Y-67154761D01*
X39475102Y-67202380D01*
X39379864Y-67202380D01*
X39284626Y-67154761D01*
X39237007Y-67107142D01*
X39189388Y-67011904D01*
X39141769Y-66821428D01*
X39141769Y-66583333D01*
X39189388Y-66392857D01*
X39237007Y-66297619D01*
X39284626Y-66250000D01*
X39379864Y-66202380D01*
X40617959Y-66202380D02*
X40141769Y-66202380D01*
X40094150Y-66678571D01*
X40141769Y-66630952D01*
X40237007Y-66583333D01*
X40475102Y-66583333D01*
X40570340Y-66630952D01*
X40617959Y-66678571D01*
X40665578Y-66773809D01*
X40665578Y-67011904D01*
X40617959Y-67107142D01*
X40570340Y-67154761D01*
X40475102Y-67202380D01*
X40237007Y-67202380D01*
X40141769Y-67154761D01*
X40094150Y-67107142D01*
X41284626Y-66202380D02*
X41379864Y-66202380D01*
X41475102Y-66250000D01*
X41522721Y-66297619D01*
X41570340Y-66392857D01*
X41617959Y-66583333D01*
X41617959Y-66821428D01*
X41570340Y-67011904D01*
X41522721Y-67107142D01*
X41475102Y-67154761D01*
X41379864Y-67202380D01*
X41284626Y-67202380D01*
X41189388Y-67154761D01*
X41141769Y-67107142D01*
X41094150Y-67011904D01*
X41046531Y-66821428D01*
X41046531Y-66583333D01*
X41094150Y-66392857D01*
X41141769Y-66297619D01*
X41189388Y-66250000D01*
X41284626Y-66202380D01*
X42237007Y-66202380D02*
X42332245Y-66202380D01*
X42427483Y-66250000D01*
X42475102Y-66297619D01*
X42522721Y-66392857D01*
X42570340Y-66583333D01*
X42570340Y-66821428D01*
X42522721Y-67011904D01*
X42475102Y-67107142D01*
X42427483Y-67154761D01*
X42332245Y-67202380D01*
X42237007Y-67202380D01*
X42141769Y-67154761D01*
X42094150Y-67107142D01*
X42046531Y-67011904D01*
X41998912Y-66821428D01*
X41998912Y-66583333D01*
X42046531Y-66392857D01*
X42094150Y-66297619D01*
X42141769Y-66250000D01*
X42237007Y-66202380D01*
X43522721Y-67202380D02*
X42951292Y-67202380D01*
X43237007Y-67202380D02*
X43237007Y-66202380D01*
X43141769Y-66345238D01*
X43046531Y-66440476D01*
X42951292Y-66488095D01*
X62998912Y-67202380D02*
X62522721Y-67202380D01*
X62522721Y-66202380D01*
X63332245Y-66678571D02*
X63665578Y-66678571D01*
X63808435Y-67202380D02*
X63332245Y-67202380D01*
X63332245Y-66202380D01*
X63808435Y-66202380D01*
X64808435Y-67107142D02*
X64760816Y-67154761D01*
X64617959Y-67202380D01*
X64522721Y-67202380D01*
X64379864Y-67154761D01*
X64284626Y-67059523D01*
X64237007Y-66964285D01*
X64189388Y-66773809D01*
X64189388Y-66630952D01*
X64237007Y-66440476D01*
X64284626Y-66345238D01*
X64379864Y-66250000D01*
X64522721Y-66202380D01*
X64617959Y-66202380D01*
X64760816Y-66250000D01*
X64808435Y-66297619D01*
X65427483Y-66202380D02*
X65522721Y-66202380D01*
X65617959Y-66250000D01*
X65665578Y-66297619D01*
X65713197Y-66392857D01*
X65760816Y-66583333D01*
X65760816Y-66821428D01*
X65713197Y-67011904D01*
X65665578Y-67107142D01*
X65617959Y-67154761D01*
X65522721Y-67202380D01*
X65427483Y-67202380D01*
X65332245Y-67154761D01*
X65284626Y-67107142D01*
X65237007Y-67011904D01*
X65189388Y-66821428D01*
X65189388Y-66583333D01*
X65237007Y-66392857D01*
X65284626Y-66297619D01*
X65332245Y-66250000D01*
X65427483Y-66202380D01*
X66379864Y-66202380D02*
X66475102Y-66202380D01*
X66570340Y-66250000D01*
X66617959Y-66297619D01*
X66665578Y-66392857D01*
X66713197Y-66583333D01*
X66713197Y-66821428D01*
X66665578Y-67011904D01*
X66617959Y-67107142D01*
X66570340Y-67154761D01*
X66475102Y-67202380D01*
X66379864Y-67202380D01*
X66284626Y-67154761D01*
X66237007Y-67107142D01*
X66189388Y-67011904D01*
X66141769Y-66821428D01*
X66141769Y-66583333D01*
X66189388Y-66392857D01*
X66237007Y-66297619D01*
X66284626Y-66250000D01*
X66379864Y-66202380D01*
X67617959Y-66202380D02*
X67141769Y-66202380D01*
X67094150Y-66678571D01*
X67141769Y-66630952D01*
X67237007Y-66583333D01*
X67475102Y-66583333D01*
X67570340Y-66630952D01*
X67617959Y-66678571D01*
X67665578Y-66773809D01*
X67665578Y-67011904D01*
X67617959Y-67107142D01*
X67570340Y-67154761D01*
X67475102Y-67202380D01*
X67237007Y-67202380D01*
X67141769Y-67154761D01*
X67094150Y-67107142D01*
X68284626Y-66202380D02*
X68379864Y-66202380D01*
X68475102Y-66250000D01*
X68522721Y-66297619D01*
X68570340Y-66392857D01*
X68617959Y-66583333D01*
X68617959Y-66821428D01*
X68570340Y-67011904D01*
X68522721Y-67107142D01*
X68475102Y-67154761D01*
X68379864Y-67202380D01*
X68284626Y-67202380D01*
X68189388Y-67154761D01*
X68141769Y-67107142D01*
X68094150Y-67011904D01*
X68046531Y-66821428D01*
X68046531Y-66583333D01*
X68094150Y-66392857D01*
X68141769Y-66297619D01*
X68189388Y-66250000D01*
X68284626Y-66202380D01*
X69237007Y-66202380D02*
X69332245Y-66202380D01*
X69427483Y-66250000D01*
X69475102Y-66297619D01*
X69522721Y-66392857D01*
X69570340Y-66583333D01*
X69570340Y-66821428D01*
X69522721Y-67011904D01*
X69475102Y-67107142D01*
X69427483Y-67154761D01*
X69332245Y-67202380D01*
X69237007Y-67202380D01*
X69141769Y-67154761D01*
X69094150Y-67107142D01*
X69046531Y-67011904D01*
X68998912Y-66821428D01*
X68998912Y-66583333D01*
X69046531Y-66392857D01*
X69094150Y-66297619D01*
X69141769Y-66250000D01*
X69237007Y-66202380D01*
X70522721Y-67202380D02*
X69951292Y-67202380D01*
X70237007Y-67202380D02*
X70237007Y-66202380D01*
X70141769Y-66345238D01*
X70046531Y-66440476D01*
X69951292Y-66488095D01*
X8617959Y-17071428D02*
X9379864Y-17071428D01*
X8998912Y-17452380D02*
X8998912Y-16690476D01*
X35617959Y-17071428D02*
X36379864Y-17071428D01*
X35998912Y-17452380D02*
X35998912Y-16690476D01*
X62617959Y-17071428D02*
X63379864Y-17071428D01*
X62998912Y-17452380D02*
X62998912Y-16690476D01*
X8617959Y-31071428D02*
X9379864Y-31071428D01*
X8998912Y-31452380D02*
X8998912Y-30690476D01*
X35617959Y-31071428D02*
X36379864Y-31071428D01*
X35998912Y-31452380D02*
X35998912Y-30690476D01*
X62617959Y-31071428D02*
X63379864Y-31071428D01*
X62998912Y-31452380D02*
X62998912Y-30690476D01*
X8617959Y-45071428D02*
X9379864Y-45071428D01*
X8998912Y-45452380D02*
X8998912Y-44690476D01*
X35617959Y-45071428D02*
X36379864Y-45071428D01*
X35998912Y-45452380D02*
X35998912Y-44690476D01*
X62617959Y-45071428D02*
X63379864Y-45071428D01*
X62998912Y-45452380D02*
X62998912Y-44690476D01*
X8617959Y-59071428D02*
X9379864Y-59071428D01*
X8998912Y-59452380D02*
X8998912Y-58690476D01*
X35617959Y-59071428D02*
X36379864Y-59071428D01*
X35998912Y-59452380D02*
X35998912Y-58690476D01*
X62617959Y-59071428D02*
X63379864Y-59071428D01*
X62998912Y-59452380D02*
X62998912Y-58690476D01*
X8617959Y-73071428D02*
X9379864Y-73071428D01*
X8998912Y-73452380D02*
X8998912Y-72690476D01*
X35617959Y-73071428D02*
X36379864Y-73071428D01*
X35998912Y-73452380D02*
X35998912Y-72690476D01*
X62617959Y-73071428D02*
X63379864Y-73071428D01*
X62998912Y-73452380D02*
X62998912Y-72690476D01*
G04 #@! TO.C,R1*
X69951292Y-15666666D02*
X69475102Y-16000000D01*
X69951292Y-16238095D02*
X68951292Y-16238095D01*
X68951292Y-15857142D01*
X68998912Y-15761904D01*
X69046531Y-15714285D01*
X69141769Y-15666666D01*
X69284626Y-15666666D01*
X69379864Y-15714285D01*
X69427483Y-15761904D01*
X69475102Y-15857142D01*
X69475102Y-16238095D01*
X69951292Y-14714285D02*
X69951292Y-15285714D01*
X69951292Y-15000000D02*
X68951292Y-15000000D01*
X69094150Y-15095238D01*
X69189388Y-15190476D01*
X69237007Y-15285714D01*
G04 #@! TO.C,R2*
X10951292Y-43666666D02*
X10475102Y-44000000D01*
X10951292Y-44238095D02*
X9951292Y-44238095D01*
X9951292Y-43857142D01*
X9998912Y-43761904D01*
X10046531Y-43714285D01*
X10141769Y-43666666D01*
X10284626Y-43666666D01*
X10379864Y-43714285D01*
X10427483Y-43761904D01*
X10475102Y-43857142D01*
X10475102Y-44238095D01*
X10046531Y-43285714D02*
X9998912Y-43238095D01*
X9951292Y-43142857D01*
X9951292Y-42904761D01*
X9998912Y-42809523D01*
X10046531Y-42761904D01*
X10141769Y-42714285D01*
X10237007Y-42714285D01*
X10379864Y-42761904D01*
X10951292Y-43333333D01*
X10951292Y-42714285D01*
G04 #@! TO.C,R1*
X15951292Y-29666666D02*
X15475102Y-30000000D01*
X15951292Y-30238095D02*
X14951292Y-30238095D01*
X14951292Y-29857142D01*
X14998912Y-29761904D01*
X15046531Y-29714285D01*
X15141769Y-29666666D01*
X15284626Y-29666666D01*
X15379864Y-29714285D01*
X15427483Y-29761904D01*
X15475102Y-29857142D01*
X15475102Y-30238095D01*
X15951292Y-28714285D02*
X15951292Y-29285714D01*
X15951292Y-29000000D02*
X14951292Y-29000000D01*
X15094150Y-29095238D01*
X15189388Y-29190476D01*
X15237007Y-29285714D01*
X15951292Y-71666666D02*
X15475102Y-72000000D01*
X15951292Y-72238095D02*
X14951292Y-72238095D01*
X14951292Y-71857142D01*
X14998912Y-71761904D01*
X15046531Y-71714285D01*
X15141769Y-71666666D01*
X15284626Y-71666666D01*
X15379864Y-71714285D01*
X15427483Y-71761904D01*
X15475102Y-71857142D01*
X15475102Y-72238095D01*
X15951292Y-70714285D02*
X15951292Y-71285714D01*
X15951292Y-71000000D02*
X14951292Y-71000000D01*
X15094150Y-71095238D01*
X15189388Y-71190476D01*
X15237007Y-71285714D01*
G04 #@! TO.C,R2*
X64951292Y-15666666D02*
X64475102Y-16000000D01*
X64951292Y-16238095D02*
X63951292Y-16238095D01*
X63951292Y-15857142D01*
X63998912Y-15761904D01*
X64046531Y-15714285D01*
X64141769Y-15666666D01*
X64284626Y-15666666D01*
X64379864Y-15714285D01*
X64427483Y-15761904D01*
X64475102Y-15857142D01*
X64475102Y-16238095D01*
X64046531Y-15285714D02*
X63998912Y-15238095D01*
X63951292Y-15142857D01*
X63951292Y-14904761D01*
X63998912Y-14809523D01*
X64046531Y-14761904D01*
X64141769Y-14714285D01*
X64237007Y-14714285D01*
X64379864Y-14761904D01*
X64951292Y-15333333D01*
X64951292Y-14714285D01*
G04 #@! TO.C,D1*
X68260816Y-55452380D02*
X68260816Y-54452380D01*
X68498912Y-54452380D01*
X68641769Y-54500000D01*
X68737007Y-54595238D01*
X68784626Y-54690476D01*
X68832245Y-54880952D01*
X68832245Y-55023809D01*
X68784626Y-55214285D01*
X68737007Y-55309523D01*
X68641769Y-55404761D01*
X68498912Y-55452380D01*
X68260816Y-55452380D01*
X69784626Y-55452380D02*
X69213197Y-55452380D01*
X69498912Y-55452380D02*
X69498912Y-54452380D01*
X69403673Y-54595238D01*
X69308435Y-54690476D01*
X69213197Y-54738095D01*
X68260816Y-69452380D02*
X68260816Y-68452380D01*
X68498912Y-68452380D01*
X68641769Y-68500000D01*
X68737007Y-68595238D01*
X68784626Y-68690476D01*
X68832245Y-68880952D01*
X68832245Y-69023809D01*
X68784626Y-69214285D01*
X68737007Y-69309523D01*
X68641769Y-69404761D01*
X68498912Y-69452380D01*
X68260816Y-69452380D01*
X69784626Y-69452380D02*
X69213197Y-69452380D01*
X69498912Y-69452380D02*
X69498912Y-68452380D01*
X69403673Y-68595238D01*
X69308435Y-68690476D01*
X69213197Y-68738095D01*
G04 #@! TO.C,R1*
X42951292Y-57666666D02*
X42475102Y-58000000D01*
X42951292Y-58238095D02*
X41951292Y-58238095D01*
X41951292Y-57857142D01*
X41998912Y-57761904D01*
X42046531Y-57714285D01*
X42141769Y-57666666D01*
X42284626Y-57666666D01*
X42379864Y-57714285D01*
X42427483Y-57761904D01*
X42475102Y-57857142D01*
X42475102Y-58238095D01*
X42951292Y-56714285D02*
X42951292Y-57285714D01*
X42951292Y-57000000D02*
X41951292Y-57000000D01*
X42094150Y-57095238D01*
X42189388Y-57190476D01*
X42237007Y-57285714D01*
G04 #@! TO.C,R2*
X64951292Y-57666666D02*
X64475102Y-58000000D01*
X64951292Y-58238095D02*
X63951292Y-58238095D01*
X63951292Y-57857142D01*
X63998912Y-57761904D01*
X64046531Y-57714285D01*
X64141769Y-57666666D01*
X64284626Y-57666666D01*
X64379864Y-57714285D01*
X64427483Y-57761904D01*
X64475102Y-57857142D01*
X64475102Y-58238095D01*
X64046531Y-57285714D02*
X63998912Y-57238095D01*
X63951292Y-57142857D01*
X63951292Y-56904761D01*
X63998912Y-56809523D01*
X64046531Y-56761904D01*
X64141769Y-56714285D01*
X64237007Y-56714285D01*
X64379864Y-56761904D01*
X64951292Y-57333333D01*
X64951292Y-56714285D01*
G04 #@! TO.C,D1*
X14260816Y-27452380D02*
X14260816Y-26452380D01*
X14498912Y-26452380D01*
X14641769Y-26500000D01*
X14737007Y-26595238D01*
X14784626Y-26690476D01*
X14832245Y-26880952D01*
X14832245Y-27023809D01*
X14784626Y-27214285D01*
X14737007Y-27309523D01*
X14641769Y-27404761D01*
X14498912Y-27452380D01*
X14260816Y-27452380D01*
X15784626Y-27452380D02*
X15213197Y-27452380D01*
X15498912Y-27452380D02*
X15498912Y-26452380D01*
X15403673Y-26595238D01*
X15308435Y-26690476D01*
X15213197Y-26738095D01*
G04 #@! TO.C,R2*
X37951292Y-43666666D02*
X37475102Y-44000000D01*
X37951292Y-44238095D02*
X36951292Y-44238095D01*
X36951292Y-43857142D01*
X36998912Y-43761904D01*
X37046531Y-43714285D01*
X37141769Y-43666666D01*
X37284626Y-43666666D01*
X37379864Y-43714285D01*
X37427483Y-43761904D01*
X37475102Y-43857142D01*
X37475102Y-44238095D01*
X37046531Y-43285714D02*
X36998912Y-43238095D01*
X36951292Y-43142857D01*
X36951292Y-42904761D01*
X36998912Y-42809523D01*
X37046531Y-42761904D01*
X37141769Y-42714285D01*
X37237007Y-42714285D01*
X37379864Y-42761904D01*
X37951292Y-43333333D01*
X37951292Y-42714285D01*
G04 #@! TO.C,R1*
X69951292Y-57666666D02*
X69475102Y-58000000D01*
X69951292Y-58238095D02*
X68951292Y-58238095D01*
X68951292Y-57857142D01*
X68998912Y-57761904D01*
X69046531Y-57714285D01*
X69141769Y-57666666D01*
X69284626Y-57666666D01*
X69379864Y-57714285D01*
X69427483Y-57761904D01*
X69475102Y-57857142D01*
X69475102Y-58238095D01*
X69951292Y-56714285D02*
X69951292Y-57285714D01*
X69951292Y-57000000D02*
X68951292Y-57000000D01*
X69094150Y-57095238D01*
X69189388Y-57190476D01*
X69237007Y-57285714D01*
X15951292Y-43666666D02*
X15475102Y-44000000D01*
X15951292Y-44238095D02*
X14951292Y-44238095D01*
X14951292Y-43857142D01*
X14998912Y-43761904D01*
X15046531Y-43714285D01*
X15141769Y-43666666D01*
X15284626Y-43666666D01*
X15379864Y-43714285D01*
X15427483Y-43761904D01*
X15475102Y-43857142D01*
X15475102Y-44238095D01*
X15951292Y-42714285D02*
X15951292Y-43285714D01*
X15951292Y-43000000D02*
X14951292Y-43000000D01*
X15094150Y-43095238D01*
X15189388Y-43190476D01*
X15237007Y-43285714D01*
G04 #@! TO.C,R2*
X64951292Y-43666666D02*
X64475102Y-44000000D01*
X64951292Y-44238095D02*
X63951292Y-44238095D01*
X63951292Y-43857142D01*
X63998912Y-43761904D01*
X64046531Y-43714285D01*
X64141769Y-43666666D01*
X64284626Y-43666666D01*
X64379864Y-43714285D01*
X64427483Y-43761904D01*
X64475102Y-43857142D01*
X64475102Y-44238095D01*
X64046531Y-43285714D02*
X63998912Y-43238095D01*
X63951292Y-43142857D01*
X63951292Y-42904761D01*
X63998912Y-42809523D01*
X64046531Y-42761904D01*
X64141769Y-42714285D01*
X64237007Y-42714285D01*
X64379864Y-42761904D01*
X64951292Y-43333333D01*
X64951292Y-42714285D01*
X10951292Y-29666666D02*
X10475102Y-30000000D01*
X10951292Y-30238095D02*
X9951292Y-30238095D01*
X9951292Y-29857142D01*
X9998912Y-29761904D01*
X10046531Y-29714285D01*
X10141769Y-29666666D01*
X10284626Y-29666666D01*
X10379864Y-29714285D01*
X10427483Y-29761904D01*
X10475102Y-29857142D01*
X10475102Y-30238095D01*
X10046531Y-29285714D02*
X9998912Y-29238095D01*
X9951292Y-29142857D01*
X9951292Y-28904761D01*
X9998912Y-28809523D01*
X10046531Y-28761904D01*
X10141769Y-28714285D01*
X10237007Y-28714285D01*
X10379864Y-28761904D01*
X10951292Y-29333333D01*
X10951292Y-28714285D01*
G04 #@! TO.C,D1*
X41260816Y-41452380D02*
X41260816Y-40452380D01*
X41498912Y-40452380D01*
X41641769Y-40500000D01*
X41737007Y-40595238D01*
X41784626Y-40690476D01*
X41832245Y-40880952D01*
X41832245Y-41023809D01*
X41784626Y-41214285D01*
X41737007Y-41309523D01*
X41641769Y-41404761D01*
X41498912Y-41452380D01*
X41260816Y-41452380D01*
X42784626Y-41452380D02*
X42213197Y-41452380D01*
X42498912Y-41452380D02*
X42498912Y-40452380D01*
X42403673Y-40595238D01*
X42308435Y-40690476D01*
X42213197Y-40738095D01*
G04 #@! TO.C,R1*
X69951292Y-29666666D02*
X69475102Y-30000000D01*
X69951292Y-30238095D02*
X68951292Y-30238095D01*
X68951292Y-29857142D01*
X68998912Y-29761904D01*
X69046531Y-29714285D01*
X69141769Y-29666666D01*
X69284626Y-29666666D01*
X69379864Y-29714285D01*
X69427483Y-29761904D01*
X69475102Y-29857142D01*
X69475102Y-30238095D01*
X69951292Y-28714285D02*
X69951292Y-29285714D01*
X69951292Y-29000000D02*
X68951292Y-29000000D01*
X69094150Y-29095238D01*
X69189388Y-29190476D01*
X69237007Y-29285714D01*
G04 #@! TO.C,R2*
X37951292Y-29666666D02*
X37475102Y-30000000D01*
X37951292Y-30238095D02*
X36951292Y-30238095D01*
X36951292Y-29857142D01*
X36998912Y-29761904D01*
X37046531Y-29714285D01*
X37141769Y-29666666D01*
X37284626Y-29666666D01*
X37379864Y-29714285D01*
X37427483Y-29761904D01*
X37475102Y-29857142D01*
X37475102Y-30238095D01*
X37046531Y-29285714D02*
X36998912Y-29238095D01*
X36951292Y-29142857D01*
X36951292Y-28904761D01*
X36998912Y-28809523D01*
X37046531Y-28761904D01*
X37141769Y-28714285D01*
X37237007Y-28714285D01*
X37379864Y-28761904D01*
X37951292Y-29333333D01*
X37951292Y-28714285D01*
G04 #@! TO.C,R1*
X42951292Y-29666666D02*
X42475102Y-30000000D01*
X42951292Y-30238095D02*
X41951292Y-30238095D01*
X41951292Y-29857142D01*
X41998912Y-29761904D01*
X42046531Y-29714285D01*
X42141769Y-29666666D01*
X42284626Y-29666666D01*
X42379864Y-29714285D01*
X42427483Y-29761904D01*
X42475102Y-29857142D01*
X42475102Y-30238095D01*
X42951292Y-28714285D02*
X42951292Y-29285714D01*
X42951292Y-29000000D02*
X41951292Y-29000000D01*
X42094150Y-29095238D01*
X42189388Y-29190476D01*
X42237007Y-29285714D01*
X42951292Y-71666666D02*
X42475102Y-72000000D01*
X42951292Y-72238095D02*
X41951292Y-72238095D01*
X41951292Y-71857142D01*
X41998912Y-71761904D01*
X42046531Y-71714285D01*
X42141769Y-71666666D01*
X42284626Y-71666666D01*
X42379864Y-71714285D01*
X42427483Y-71761904D01*
X42475102Y-71857142D01*
X42475102Y-72238095D01*
X42951292Y-70714285D02*
X42951292Y-71285714D01*
X42951292Y-71000000D02*
X41951292Y-71000000D01*
X42094150Y-71095238D01*
X42189388Y-71190476D01*
X42237007Y-71285714D01*
G04 #@! TO.C,R2*
X10951292Y-57666666D02*
X10475102Y-58000000D01*
X10951292Y-58238095D02*
X9951292Y-58238095D01*
X9951292Y-57857142D01*
X9998912Y-57761904D01*
X10046531Y-57714285D01*
X10141769Y-57666666D01*
X10284626Y-57666666D01*
X10379864Y-57714285D01*
X10427483Y-57761904D01*
X10475102Y-57857142D01*
X10475102Y-58238095D01*
X10046531Y-57285714D02*
X9998912Y-57238095D01*
X9951292Y-57142857D01*
X9951292Y-56904761D01*
X9998912Y-56809523D01*
X10046531Y-56761904D01*
X10141769Y-56714285D01*
X10237007Y-56714285D01*
X10379864Y-56761904D01*
X10951292Y-57333333D01*
X10951292Y-56714285D01*
X37951292Y-71666666D02*
X37475102Y-72000000D01*
X37951292Y-72238095D02*
X36951292Y-72238095D01*
X36951292Y-71857142D01*
X36998912Y-71761904D01*
X37046531Y-71714285D01*
X37141769Y-71666666D01*
X37284626Y-71666666D01*
X37379864Y-71714285D01*
X37427483Y-71761904D01*
X37475102Y-71857142D01*
X37475102Y-72238095D01*
X37046531Y-71285714D02*
X36998912Y-71238095D01*
X36951292Y-71142857D01*
X36951292Y-70904761D01*
X36998912Y-70809523D01*
X37046531Y-70761904D01*
X37141769Y-70714285D01*
X37237007Y-70714285D01*
X37379864Y-70761904D01*
X37951292Y-71333333D01*
X37951292Y-70714285D01*
G04 #@! TO.C,R1*
X15951292Y-57666666D02*
X15475102Y-58000000D01*
X15951292Y-58238095D02*
X14951292Y-58238095D01*
X14951292Y-57857142D01*
X14998912Y-57761904D01*
X15046531Y-57714285D01*
X15141769Y-57666666D01*
X15284626Y-57666666D01*
X15379864Y-57714285D01*
X15427483Y-57761904D01*
X15475102Y-57857142D01*
X15475102Y-58238095D01*
X15951292Y-56714285D02*
X15951292Y-57285714D01*
X15951292Y-57000000D02*
X14951292Y-57000000D01*
X15094150Y-57095238D01*
X15189388Y-57190476D01*
X15237007Y-57285714D01*
G04 #@! TO.C,D1*
X68260816Y-13452380D02*
X68260816Y-12452380D01*
X68498912Y-12452380D01*
X68641769Y-12500000D01*
X68737007Y-12595238D01*
X68784626Y-12690476D01*
X68832245Y-12880952D01*
X68832245Y-13023809D01*
X68784626Y-13214285D01*
X68737007Y-13309523D01*
X68641769Y-13404761D01*
X68498912Y-13452380D01*
X68260816Y-13452380D01*
X69784626Y-13452380D02*
X69213197Y-13452380D01*
X69498912Y-13452380D02*
X69498912Y-12452380D01*
X69403673Y-12595238D01*
X69308435Y-12690476D01*
X69213197Y-12738095D01*
X14260816Y-41452380D02*
X14260816Y-40452380D01*
X14498912Y-40452380D01*
X14641769Y-40500000D01*
X14737007Y-40595238D01*
X14784626Y-40690476D01*
X14832245Y-40880952D01*
X14832245Y-41023809D01*
X14784626Y-41214285D01*
X14737007Y-41309523D01*
X14641769Y-41404761D01*
X14498912Y-41452380D01*
X14260816Y-41452380D01*
X15784626Y-41452380D02*
X15213197Y-41452380D01*
X15498912Y-41452380D02*
X15498912Y-40452380D01*
X15403673Y-40595238D01*
X15308435Y-40690476D01*
X15213197Y-40738095D01*
G04 #@! TO.C,R1*
X15951292Y-15666666D02*
X15475102Y-16000000D01*
X15951292Y-16238095D02*
X14951292Y-16238095D01*
X14951292Y-15857142D01*
X14998912Y-15761904D01*
X15046531Y-15714285D01*
X15141769Y-15666666D01*
X15284626Y-15666666D01*
X15379864Y-15714285D01*
X15427483Y-15761904D01*
X15475102Y-15857142D01*
X15475102Y-16238095D01*
X15951292Y-14714285D02*
X15951292Y-15285714D01*
X15951292Y-15000000D02*
X14951292Y-15000000D01*
X15094150Y-15095238D01*
X15189388Y-15190476D01*
X15237007Y-15285714D01*
G04 #@! TO.C,D1*
X14260816Y-55452380D02*
X14260816Y-54452380D01*
X14498912Y-54452380D01*
X14641769Y-54500000D01*
X14737007Y-54595238D01*
X14784626Y-54690476D01*
X14832245Y-54880952D01*
X14832245Y-55023809D01*
X14784626Y-55214285D01*
X14737007Y-55309523D01*
X14641769Y-55404761D01*
X14498912Y-55452380D01*
X14260816Y-55452380D01*
X15784626Y-55452380D02*
X15213197Y-55452380D01*
X15498912Y-55452380D02*
X15498912Y-54452380D01*
X15403673Y-54595238D01*
X15308435Y-54690476D01*
X15213197Y-54738095D01*
X41260816Y-13452380D02*
X41260816Y-12452380D01*
X41498912Y-12452380D01*
X41641769Y-12500000D01*
X41737007Y-12595238D01*
X41784626Y-12690476D01*
X41832245Y-12880952D01*
X41832245Y-13023809D01*
X41784626Y-13214285D01*
X41737007Y-13309523D01*
X41641769Y-13404761D01*
X41498912Y-13452380D01*
X41260816Y-13452380D01*
X42784626Y-13452380D02*
X42213197Y-13452380D01*
X42498912Y-13452380D02*
X42498912Y-12452380D01*
X42403673Y-12595238D01*
X42308435Y-12690476D01*
X42213197Y-12738095D01*
X68260816Y-41452380D02*
X68260816Y-40452380D01*
X68498912Y-40452380D01*
X68641769Y-40500000D01*
X68737007Y-40595238D01*
X68784626Y-40690476D01*
X68832245Y-40880952D01*
X68832245Y-41023809D01*
X68784626Y-41214285D01*
X68737007Y-41309523D01*
X68641769Y-41404761D01*
X68498912Y-41452380D01*
X68260816Y-41452380D01*
X69784626Y-41452380D02*
X69213197Y-41452380D01*
X69498912Y-41452380D02*
X69498912Y-40452380D01*
X69403673Y-40595238D01*
X69308435Y-40690476D01*
X69213197Y-40738095D01*
G04 #@! TO.C,R2*
X37951292Y-15666666D02*
X37475102Y-16000000D01*
X37951292Y-16238095D02*
X36951292Y-16238095D01*
X36951292Y-15857142D01*
X36998912Y-15761904D01*
X37046531Y-15714285D01*
X37141769Y-15666666D01*
X37284626Y-15666666D01*
X37379864Y-15714285D01*
X37427483Y-15761904D01*
X37475102Y-15857142D01*
X37475102Y-16238095D01*
X37046531Y-15285714D02*
X36998912Y-15238095D01*
X36951292Y-15142857D01*
X36951292Y-14904761D01*
X36998912Y-14809523D01*
X37046531Y-14761904D01*
X37141769Y-14714285D01*
X37237007Y-14714285D01*
X37379864Y-14761904D01*
X37951292Y-15333333D01*
X37951292Y-14714285D01*
G04 #@! TO.C,R1*
X42951292Y-43666666D02*
X42475102Y-44000000D01*
X42951292Y-44238095D02*
X41951292Y-44238095D01*
X41951292Y-43857142D01*
X41998912Y-43761904D01*
X42046531Y-43714285D01*
X42141769Y-43666666D01*
X42284626Y-43666666D01*
X42379864Y-43714285D01*
X42427483Y-43761904D01*
X42475102Y-43857142D01*
X42475102Y-44238095D01*
X42951292Y-42714285D02*
X42951292Y-43285714D01*
X42951292Y-43000000D02*
X41951292Y-43000000D01*
X42094150Y-43095238D01*
X42189388Y-43190476D01*
X42237007Y-43285714D01*
G04 #@! TO.C,D1*
X41260816Y-69452380D02*
X41260816Y-68452380D01*
X41498912Y-68452380D01*
X41641769Y-68500000D01*
X41737007Y-68595238D01*
X41784626Y-68690476D01*
X41832245Y-68880952D01*
X41832245Y-69023809D01*
X41784626Y-69214285D01*
X41737007Y-69309523D01*
X41641769Y-69404761D01*
X41498912Y-69452380D01*
X41260816Y-69452380D01*
X42784626Y-69452380D02*
X42213197Y-69452380D01*
X42498912Y-69452380D02*
X42498912Y-68452380D01*
X42403673Y-68595238D01*
X42308435Y-68690476D01*
X42213197Y-68738095D01*
X14260816Y-13452380D02*
X14260816Y-12452380D01*
X14498912Y-12452380D01*
X14641769Y-12500000D01*
X14737007Y-12595238D01*
X14784626Y-12690476D01*
X14832245Y-12880952D01*
X14832245Y-13023809D01*
X14784626Y-13214285D01*
X14737007Y-13309523D01*
X14641769Y-13404761D01*
X14498912Y-13452380D01*
X14260816Y-13452380D01*
X15784626Y-13452380D02*
X15213197Y-13452380D01*
X15498912Y-13452380D02*
X15498912Y-12452380D01*
X15403673Y-12595238D01*
X15308435Y-12690476D01*
X15213197Y-12738095D01*
G04 #@! TO.C,R2*
X37951292Y-57666666D02*
X37475102Y-58000000D01*
X37951292Y-58238095D02*
X36951292Y-58238095D01*
X36951292Y-57857142D01*
X36998912Y-57761904D01*
X37046531Y-57714285D01*
X37141769Y-57666666D01*
X37284626Y-57666666D01*
X37379864Y-57714285D01*
X37427483Y-57761904D01*
X37475102Y-57857142D01*
X37475102Y-58238095D01*
X37046531Y-57285714D02*
X36998912Y-57238095D01*
X36951292Y-57142857D01*
X36951292Y-56904761D01*
X36998912Y-56809523D01*
X37046531Y-56761904D01*
X37141769Y-56714285D01*
X37237007Y-56714285D01*
X37379864Y-56761904D01*
X37951292Y-57333333D01*
X37951292Y-56714285D01*
X10951292Y-15666666D02*
X10475102Y-16000000D01*
X10951292Y-16238095D02*
X9951292Y-16238095D01*
X9951292Y-15857142D01*
X9998912Y-15761904D01*
X10046531Y-15714285D01*
X10141769Y-15666666D01*
X10284626Y-15666666D01*
X10379864Y-15714285D01*
X10427483Y-15761904D01*
X10475102Y-15857142D01*
X10475102Y-16238095D01*
X10046531Y-15285714D02*
X9998912Y-15238095D01*
X9951292Y-15142857D01*
X9951292Y-14904761D01*
X9998912Y-14809523D01*
X10046531Y-14761904D01*
X10141769Y-14714285D01*
X10237007Y-14714285D01*
X10379864Y-14761904D01*
X10951292Y-15333333D01*
X10951292Y-14714285D01*
G04 #@! TO.C,R1*
X69951292Y-43666666D02*
X69475102Y-44000000D01*
X69951292Y-44238095D02*
X68951292Y-44238095D01*
X68951292Y-43857142D01*
X68998912Y-43761904D01*
X69046531Y-43714285D01*
X69141769Y-43666666D01*
X69284626Y-43666666D01*
X69379864Y-43714285D01*
X69427483Y-43761904D01*
X69475102Y-43857142D01*
X69475102Y-44238095D01*
X69951292Y-42714285D02*
X69951292Y-43285714D01*
X69951292Y-43000000D02*
X68951292Y-43000000D01*
X69094150Y-43095238D01*
X69189388Y-43190476D01*
X69237007Y-43285714D01*
X42951292Y-15666666D02*
X42475102Y-16000000D01*
X42951292Y-16238095D02*
X41951292Y-16238095D01*
X41951292Y-15857142D01*
X41998912Y-15761904D01*
X42046531Y-15714285D01*
X42141769Y-15666666D01*
X42284626Y-15666666D01*
X42379864Y-15714285D01*
X42427483Y-15761904D01*
X42475102Y-15857142D01*
X42475102Y-16238095D01*
X42951292Y-14714285D02*
X42951292Y-15285714D01*
X42951292Y-15000000D02*
X41951292Y-15000000D01*
X42094150Y-15095238D01*
X42189388Y-15190476D01*
X42237007Y-15285714D01*
G04 #@! TO.C,R2*
X64951292Y-29666666D02*
X64475102Y-30000000D01*
X64951292Y-30238095D02*
X63951292Y-30238095D01*
X63951292Y-29857142D01*
X63998912Y-29761904D01*
X64046531Y-29714285D01*
X64141769Y-29666666D01*
X64284626Y-29666666D01*
X64379864Y-29714285D01*
X64427483Y-29761904D01*
X64475102Y-29857142D01*
X64475102Y-30238095D01*
X64046531Y-29285714D02*
X63998912Y-29238095D01*
X63951292Y-29142857D01*
X63951292Y-28904761D01*
X63998912Y-28809523D01*
X64046531Y-28761904D01*
X64141769Y-28714285D01*
X64237007Y-28714285D01*
X64379864Y-28761904D01*
X64951292Y-29333333D01*
X64951292Y-28714285D01*
G04 #@! TO.C,D1*
X14260816Y-69452380D02*
X14260816Y-68452380D01*
X14498912Y-68452380D01*
X14641769Y-68500000D01*
X14737007Y-68595238D01*
X14784626Y-68690476D01*
X14832245Y-68880952D01*
X14832245Y-69023809D01*
X14784626Y-69214285D01*
X14737007Y-69309523D01*
X14641769Y-69404761D01*
X14498912Y-69452380D01*
X14260816Y-69452380D01*
X15784626Y-69452380D02*
X15213197Y-69452380D01*
X15498912Y-69452380D02*
X15498912Y-68452380D01*
X15403673Y-68595238D01*
X15308435Y-68690476D01*
X15213197Y-68738095D01*
X41260816Y-55452380D02*
X41260816Y-54452380D01*
X41498912Y-54452380D01*
X41641769Y-54500000D01*
X41737007Y-54595238D01*
X41784626Y-54690476D01*
X41832245Y-54880952D01*
X41832245Y-55023809D01*
X41784626Y-55214285D01*
X41737007Y-55309523D01*
X41641769Y-55404761D01*
X41498912Y-55452380D01*
X41260816Y-55452380D01*
X42784626Y-55452380D02*
X42213197Y-55452380D01*
X42498912Y-55452380D02*
X42498912Y-54452380D01*
X42403673Y-54595238D01*
X42308435Y-54690476D01*
X42213197Y-54738095D01*
G04 #@! TO.C,R2*
X64951292Y-71666666D02*
X64475102Y-72000000D01*
X64951292Y-72238095D02*
X63951292Y-72238095D01*
X63951292Y-71857142D01*
X63998912Y-71761904D01*
X64046531Y-71714285D01*
X64141769Y-71666666D01*
X64284626Y-71666666D01*
X64379864Y-71714285D01*
X64427483Y-71761904D01*
X64475102Y-71857142D01*
X64475102Y-72238095D01*
X64046531Y-71285714D02*
X63998912Y-71238095D01*
X63951292Y-71142857D01*
X63951292Y-70904761D01*
X63998912Y-70809523D01*
X64046531Y-70761904D01*
X64141769Y-70714285D01*
X64237007Y-70714285D01*
X64379864Y-70761904D01*
X64951292Y-71333333D01*
X64951292Y-70714285D01*
G04 #@! TO.C,D1*
X68260816Y-27452380D02*
X68260816Y-26452380D01*
X68498912Y-26452380D01*
X68641769Y-26500000D01*
X68737007Y-26595238D01*
X68784626Y-26690476D01*
X68832245Y-26880952D01*
X68832245Y-27023809D01*
X68784626Y-27214285D01*
X68737007Y-27309523D01*
X68641769Y-27404761D01*
X68498912Y-27452380D01*
X68260816Y-27452380D01*
X69784626Y-27452380D02*
X69213197Y-27452380D01*
X69498912Y-27452380D02*
X69498912Y-26452380D01*
X69403673Y-26595238D01*
X69308435Y-26690476D01*
X69213197Y-26738095D01*
G04 #@! TO.C,R1*
X69951292Y-71666666D02*
X69475102Y-72000000D01*
X69951292Y-72238095D02*
X68951292Y-72238095D01*
X68951292Y-71857142D01*
X68998912Y-71761904D01*
X69046531Y-71714285D01*
X69141769Y-71666666D01*
X69284626Y-71666666D01*
X69379864Y-71714285D01*
X69427483Y-71761904D01*
X69475102Y-71857142D01*
X69475102Y-72238095D01*
X69951292Y-70714285D02*
X69951292Y-71285714D01*
X69951292Y-71000000D02*
X68951292Y-71000000D01*
X69094150Y-71095238D01*
X69189388Y-71190476D01*
X69237007Y-71285714D01*
G04 #@! TO.C,D1*
X41260816Y-27452380D02*
X41260816Y-26452380D01*
X41498912Y-26452380D01*
X41641769Y-26500000D01*
X41737007Y-26595238D01*
X41784626Y-26690476D01*
X41832245Y-26880952D01*
X41832245Y-27023809D01*
X41784626Y-27214285D01*
X41737007Y-27309523D01*
X41641769Y-27404761D01*
X41498912Y-27452380D01*
X41260816Y-27452380D01*
X42784626Y-27452380D02*
X42213197Y-27452380D01*
X42498912Y-27452380D02*
X42498912Y-26452380D01*
X42403673Y-26595238D01*
X42308435Y-26690476D01*
X42213197Y-26738095D01*
G04 #@! TO.C,R2*
X10951292Y-71666666D02*
X10475102Y-72000000D01*
X10951292Y-72238095D02*
X9951292Y-72238095D01*
X9951292Y-71857142D01*
X9998912Y-71761904D01*
X10046531Y-71714285D01*
X10141769Y-71666666D01*
X10284626Y-71666666D01*
X10379864Y-71714285D01*
X10427483Y-71761904D01*
X10475102Y-71857142D01*
X10475102Y-72238095D01*
X10046531Y-71285714D02*
X9998912Y-71238095D01*
X9951292Y-71142857D01*
X9951292Y-70904761D01*
X9998912Y-70809523D01*
X10046531Y-70761904D01*
X10141769Y-70714285D01*
X10237007Y-70714285D01*
X10379864Y-70761904D01*
X10951292Y-71333333D01*
X10951292Y-70714285D01*
D10*
G04 #@! TO.C,J2*
X46198912Y-59000000D02*
G75*
G03*
X46198912Y-59000000I-1200000J0D01*
G01*
G04 #@! TO.C,J1*
X35198912Y-46200000D02*
X32798912Y-46200000D01*
X32798912Y-43800000D02*
X35198912Y-43800000D01*
X35198912Y-43800000D02*
X35198912Y-46200000D01*
X32798912Y-46200000D02*
X32798912Y-43800000D01*
G04 #@! TO.C,H1*
X60723815Y-54500000D02*
G75*
G03*
X60723815Y-54500000I-3224903J0D01*
G01*
G36*
X57998912Y-51300000D02*
G01*
X58998912Y-51600000D01*
X59798912Y-52200000D01*
X60298912Y-52900000D01*
X60598912Y-53600000D01*
X60698912Y-54000000D01*
X60698912Y-54500000D01*
X59098912Y-54500000D01*
X59098912Y-54400000D01*
X58998912Y-54000000D01*
X58798912Y-53600000D01*
X58398912Y-53200000D01*
X57998912Y-53000000D01*
X57598912Y-52900000D01*
X57498912Y-52900000D01*
X57498912Y-51275097D01*
X57998912Y-51300000D01*
G37*
D12*
X57998912Y-51300000D02*
X58998912Y-51600000D01*
X59798912Y-52200000D01*
X60298912Y-52900000D01*
X60598912Y-53600000D01*
X60698912Y-54000000D01*
X60698912Y-54500000D01*
X59098912Y-54500000D01*
X59098912Y-54400000D01*
X58998912Y-54000000D01*
X58798912Y-53600000D01*
X58398912Y-53200000D01*
X57998912Y-53000000D01*
X57598912Y-52900000D01*
X57498912Y-52900000D01*
X57498912Y-51275097D01*
X57998912Y-51300000D01*
G36*
X55898912Y-54600000D02*
G01*
X55998912Y-55000000D01*
X56198912Y-55400000D01*
X56598912Y-55800000D01*
X56998912Y-56000000D01*
X57398912Y-56100000D01*
X57498912Y-56100000D01*
X57498912Y-57724903D01*
X56998912Y-57700000D01*
X55998912Y-57400000D01*
X55198912Y-56800000D01*
X54698912Y-56100000D01*
X54398912Y-55400000D01*
X54298912Y-55000000D01*
X54298912Y-54500000D01*
X55898912Y-54500000D01*
X55898912Y-54600000D01*
G37*
X55898912Y-54600000D02*
X55998912Y-55000000D01*
X56198912Y-55400000D01*
X56598912Y-55800000D01*
X56998912Y-56000000D01*
X57398912Y-56100000D01*
X57498912Y-56100000D01*
X57498912Y-57724903D01*
X56998912Y-57700000D01*
X55998912Y-57400000D01*
X55198912Y-56800000D01*
X54698912Y-56100000D01*
X54398912Y-55400000D01*
X54298912Y-55000000D01*
X54298912Y-54500000D01*
X55898912Y-54500000D01*
X55898912Y-54600000D01*
D10*
G04 #@! TO.C,H2*
X51723815Y-40500000D02*
G75*
G03*
X51723815Y-40500000I-3224903J0D01*
G01*
G36*
X48998912Y-37300000D02*
G01*
X49998912Y-37600000D01*
X50798912Y-38200000D01*
X51298912Y-38900000D01*
X51598912Y-39600000D01*
X51698912Y-40000000D01*
X51698912Y-40500000D01*
X50098912Y-40500000D01*
X50098912Y-40400000D01*
X49998912Y-40000000D01*
X49798912Y-39600000D01*
X49398912Y-39200000D01*
X48998912Y-39000000D01*
X48598912Y-38900000D01*
X48498912Y-38900000D01*
X48498912Y-37275097D01*
X48998912Y-37300000D01*
G37*
D12*
X48998912Y-37300000D02*
X49998912Y-37600000D01*
X50798912Y-38200000D01*
X51298912Y-38900000D01*
X51598912Y-39600000D01*
X51698912Y-40000000D01*
X51698912Y-40500000D01*
X50098912Y-40500000D01*
X50098912Y-40400000D01*
X49998912Y-40000000D01*
X49798912Y-39600000D01*
X49398912Y-39200000D01*
X48998912Y-39000000D01*
X48598912Y-38900000D01*
X48498912Y-38900000D01*
X48498912Y-37275097D01*
X48998912Y-37300000D01*
G36*
X46898912Y-40600000D02*
G01*
X46998912Y-41000000D01*
X47198912Y-41400000D01*
X47598912Y-41800000D01*
X47998912Y-42000000D01*
X48398912Y-42100000D01*
X48498912Y-42100000D01*
X48498912Y-43724903D01*
X47998912Y-43700000D01*
X46998912Y-43400000D01*
X46198912Y-42800000D01*
X45698912Y-42100000D01*
X45398912Y-41400000D01*
X45298912Y-41000000D01*
X45298912Y-40500000D01*
X46898912Y-40500000D01*
X46898912Y-40600000D01*
G37*
X46898912Y-40600000D02*
X46998912Y-41000000D01*
X47198912Y-41400000D01*
X47598912Y-41800000D01*
X47998912Y-42000000D01*
X48398912Y-42100000D01*
X48498912Y-42100000D01*
X48498912Y-43724903D01*
X47998912Y-43700000D01*
X46998912Y-43400000D01*
X46198912Y-42800000D01*
X45698912Y-42100000D01*
X45398912Y-41400000D01*
X45298912Y-41000000D01*
X45298912Y-40500000D01*
X46898912Y-40500000D01*
X46898912Y-40600000D01*
D10*
G04 #@! TO.C,R1*
X68708912Y-15741422D02*
X68708912Y-16258578D01*
X67288912Y-15741422D02*
X67288912Y-16258578D01*
G04 #@! TO.C,R2*
X12708912Y-43741422D02*
X12708912Y-44258578D01*
X11288912Y-43741422D02*
X11288912Y-44258578D01*
G04 #@! TO.C,H1*
X60723815Y-26500000D02*
G75*
G03*
X60723815Y-26500000I-3224903J0D01*
G01*
G36*
X57998912Y-23300000D02*
G01*
X58998912Y-23600000D01*
X59798912Y-24200000D01*
X60298912Y-24900000D01*
X60598912Y-25600000D01*
X60698912Y-26000000D01*
X60698912Y-26500000D01*
X59098912Y-26500000D01*
X59098912Y-26400000D01*
X58998912Y-26000000D01*
X58798912Y-25600000D01*
X58398912Y-25200000D01*
X57998912Y-25000000D01*
X57598912Y-24900000D01*
X57498912Y-24900000D01*
X57498912Y-23275097D01*
X57998912Y-23300000D01*
G37*
D12*
X57998912Y-23300000D02*
X58998912Y-23600000D01*
X59798912Y-24200000D01*
X60298912Y-24900000D01*
X60598912Y-25600000D01*
X60698912Y-26000000D01*
X60698912Y-26500000D01*
X59098912Y-26500000D01*
X59098912Y-26400000D01*
X58998912Y-26000000D01*
X58798912Y-25600000D01*
X58398912Y-25200000D01*
X57998912Y-25000000D01*
X57598912Y-24900000D01*
X57498912Y-24900000D01*
X57498912Y-23275097D01*
X57998912Y-23300000D01*
G36*
X55898912Y-26600000D02*
G01*
X55998912Y-27000000D01*
X56198912Y-27400000D01*
X56598912Y-27800000D01*
X56998912Y-28000000D01*
X57398912Y-28100000D01*
X57498912Y-28100000D01*
X57498912Y-29724903D01*
X56998912Y-29700000D01*
X55998912Y-29400000D01*
X55198912Y-28800000D01*
X54698912Y-28100000D01*
X54398912Y-27400000D01*
X54298912Y-27000000D01*
X54298912Y-26500000D01*
X55898912Y-26500000D01*
X55898912Y-26600000D01*
G37*
X55898912Y-26600000D02*
X55998912Y-27000000D01*
X56198912Y-27400000D01*
X56598912Y-27800000D01*
X56998912Y-28000000D01*
X57398912Y-28100000D01*
X57498912Y-28100000D01*
X57498912Y-29724903D01*
X56998912Y-29700000D01*
X55998912Y-29400000D01*
X55198912Y-28800000D01*
X54698912Y-28100000D01*
X54398912Y-27400000D01*
X54298912Y-27000000D01*
X54298912Y-26500000D01*
X55898912Y-26500000D01*
X55898912Y-26600000D01*
D10*
X33723815Y-54500000D02*
G75*
G03*
X33723815Y-54500000I-3224903J0D01*
G01*
G36*
X30998912Y-51300000D02*
G01*
X31998912Y-51600000D01*
X32798912Y-52200000D01*
X33298912Y-52900000D01*
X33598912Y-53600000D01*
X33698912Y-54000000D01*
X33698912Y-54500000D01*
X32098912Y-54500000D01*
X32098912Y-54400000D01*
X31998912Y-54000000D01*
X31798912Y-53600000D01*
X31398912Y-53200000D01*
X30998912Y-53000000D01*
X30598912Y-52900000D01*
X30498912Y-52900000D01*
X30498912Y-51275097D01*
X30998912Y-51300000D01*
G37*
D12*
X30998912Y-51300000D02*
X31998912Y-51600000D01*
X32798912Y-52200000D01*
X33298912Y-52900000D01*
X33598912Y-53600000D01*
X33698912Y-54000000D01*
X33698912Y-54500000D01*
X32098912Y-54500000D01*
X32098912Y-54400000D01*
X31998912Y-54000000D01*
X31798912Y-53600000D01*
X31398912Y-53200000D01*
X30998912Y-53000000D01*
X30598912Y-52900000D01*
X30498912Y-52900000D01*
X30498912Y-51275097D01*
X30998912Y-51300000D01*
G36*
X28898912Y-54600000D02*
G01*
X28998912Y-55000000D01*
X29198912Y-55400000D01*
X29598912Y-55800000D01*
X29998912Y-56000000D01*
X30398912Y-56100000D01*
X30498912Y-56100000D01*
X30498912Y-57724903D01*
X29998912Y-57700000D01*
X28998912Y-57400000D01*
X28198912Y-56800000D01*
X27698912Y-56100000D01*
X27398912Y-55400000D01*
X27298912Y-55000000D01*
X27298912Y-54500000D01*
X28898912Y-54500000D01*
X28898912Y-54600000D01*
G37*
X28898912Y-54600000D02*
X28998912Y-55000000D01*
X29198912Y-55400000D01*
X29598912Y-55800000D01*
X29998912Y-56000000D01*
X30398912Y-56100000D01*
X30498912Y-56100000D01*
X30498912Y-57724903D01*
X29998912Y-57700000D01*
X28998912Y-57400000D01*
X28198912Y-56800000D01*
X27698912Y-56100000D01*
X27398912Y-55400000D01*
X27298912Y-55000000D01*
X27298912Y-54500000D01*
X28898912Y-54500000D01*
X28898912Y-54600000D01*
D10*
G04 #@! TO.C,R1*
X14708912Y-29741422D02*
X14708912Y-30258578D01*
X13288912Y-29741422D02*
X13288912Y-30258578D01*
X13288912Y-71741422D02*
X13288912Y-72258578D01*
X14708912Y-71741422D02*
X14708912Y-72258578D01*
G04 #@! TO.C,R2*
X65288912Y-15741422D02*
X65288912Y-16258578D01*
X66708912Y-15741422D02*
X66708912Y-16258578D01*
G04 #@! TO.C,J1*
X5798912Y-74200000D02*
X5798912Y-71800000D01*
X8198912Y-71800000D02*
X8198912Y-74200000D01*
X5798912Y-71800000D02*
X8198912Y-71800000D01*
X8198912Y-74200000D02*
X5798912Y-74200000D01*
G04 #@! TO.C,D1*
X67483912Y-55735000D02*
X67483912Y-54265000D01*
X65198912Y-55735000D02*
X67483912Y-55735000D01*
X67483912Y-54265000D02*
X65198912Y-54265000D01*
X65198912Y-69735000D02*
X67483912Y-69735000D01*
X67483912Y-69735000D02*
X67483912Y-68265000D01*
X67483912Y-68265000D02*
X65198912Y-68265000D01*
G04 #@! TO.C,R1*
X40288912Y-57741422D02*
X40288912Y-58258578D01*
X41708912Y-57741422D02*
X41708912Y-58258578D01*
G04 #@! TO.C,R2*
X66708912Y-57741422D02*
X66708912Y-58258578D01*
X65288912Y-57741422D02*
X65288912Y-58258578D01*
G04 #@! TO.C,D1*
X13483912Y-27735000D02*
X13483912Y-26265000D01*
X11198912Y-27735000D02*
X13483912Y-27735000D01*
X13483912Y-26265000D02*
X11198912Y-26265000D01*
G04 #@! TO.C,H2*
X51723815Y-54500000D02*
G75*
G03*
X51723815Y-54500000I-3224903J0D01*
G01*
G36*
X48998912Y-51300000D02*
G01*
X49998912Y-51600000D01*
X50798912Y-52200000D01*
X51298912Y-52900000D01*
X51598912Y-53600000D01*
X51698912Y-54000000D01*
X51698912Y-54500000D01*
X50098912Y-54500000D01*
X50098912Y-54400000D01*
X49998912Y-54000000D01*
X49798912Y-53600000D01*
X49398912Y-53200000D01*
X48998912Y-53000000D01*
X48598912Y-52900000D01*
X48498912Y-52900000D01*
X48498912Y-51275097D01*
X48998912Y-51300000D01*
G37*
D12*
X48998912Y-51300000D02*
X49998912Y-51600000D01*
X50798912Y-52200000D01*
X51298912Y-52900000D01*
X51598912Y-53600000D01*
X51698912Y-54000000D01*
X51698912Y-54500000D01*
X50098912Y-54500000D01*
X50098912Y-54400000D01*
X49998912Y-54000000D01*
X49798912Y-53600000D01*
X49398912Y-53200000D01*
X48998912Y-53000000D01*
X48598912Y-52900000D01*
X48498912Y-52900000D01*
X48498912Y-51275097D01*
X48998912Y-51300000D01*
G36*
X46898912Y-54600000D02*
G01*
X46998912Y-55000000D01*
X47198912Y-55400000D01*
X47598912Y-55800000D01*
X47998912Y-56000000D01*
X48398912Y-56100000D01*
X48498912Y-56100000D01*
X48498912Y-57724903D01*
X47998912Y-57700000D01*
X46998912Y-57400000D01*
X46198912Y-56800000D01*
X45698912Y-56100000D01*
X45398912Y-55400000D01*
X45298912Y-55000000D01*
X45298912Y-54500000D01*
X46898912Y-54500000D01*
X46898912Y-54600000D01*
G37*
X46898912Y-54600000D02*
X46998912Y-55000000D01*
X47198912Y-55400000D01*
X47598912Y-55800000D01*
X47998912Y-56000000D01*
X48398912Y-56100000D01*
X48498912Y-56100000D01*
X48498912Y-57724903D01*
X47998912Y-57700000D01*
X46998912Y-57400000D01*
X46198912Y-56800000D01*
X45698912Y-56100000D01*
X45398912Y-55400000D01*
X45298912Y-55000000D01*
X45298912Y-54500000D01*
X46898912Y-54500000D01*
X46898912Y-54600000D01*
D10*
X78723815Y-68500000D02*
G75*
G03*
X78723815Y-68500000I-3224903J0D01*
G01*
G36*
X73898912Y-68600000D02*
G01*
X73998912Y-69000000D01*
X74198912Y-69400000D01*
X74598912Y-69800000D01*
X74998912Y-70000000D01*
X75398912Y-70100000D01*
X75498912Y-70100000D01*
X75498912Y-71724903D01*
X74998912Y-71700000D01*
X73998912Y-71400000D01*
X73198912Y-70800000D01*
X72698912Y-70100000D01*
X72398912Y-69400000D01*
X72298912Y-69000000D01*
X72298912Y-68500000D01*
X73898912Y-68500000D01*
X73898912Y-68600000D01*
G37*
D12*
X73898912Y-68600000D02*
X73998912Y-69000000D01*
X74198912Y-69400000D01*
X74598912Y-69800000D01*
X74998912Y-70000000D01*
X75398912Y-70100000D01*
X75498912Y-70100000D01*
X75498912Y-71724903D01*
X74998912Y-71700000D01*
X73998912Y-71400000D01*
X73198912Y-70800000D01*
X72698912Y-70100000D01*
X72398912Y-69400000D01*
X72298912Y-69000000D01*
X72298912Y-68500000D01*
X73898912Y-68500000D01*
X73898912Y-68600000D01*
G36*
X75998912Y-65300000D02*
G01*
X76998912Y-65600000D01*
X77798912Y-66200000D01*
X78298912Y-66900000D01*
X78598912Y-67600000D01*
X78698912Y-68000000D01*
X78698912Y-68500000D01*
X77098912Y-68500000D01*
X77098912Y-68400000D01*
X76998912Y-68000000D01*
X76798912Y-67600000D01*
X76398912Y-67200000D01*
X75998912Y-67000000D01*
X75598912Y-66900000D01*
X75498912Y-66900000D01*
X75498912Y-65275097D01*
X75998912Y-65300000D01*
G37*
X75998912Y-65300000D02*
X76998912Y-65600000D01*
X77798912Y-66200000D01*
X78298912Y-66900000D01*
X78598912Y-67600000D01*
X78698912Y-68000000D01*
X78698912Y-68500000D01*
X77098912Y-68500000D01*
X77098912Y-68400000D01*
X76998912Y-68000000D01*
X76798912Y-67600000D01*
X76398912Y-67200000D01*
X75998912Y-67000000D01*
X75598912Y-66900000D01*
X75498912Y-66900000D01*
X75498912Y-65275097D01*
X75998912Y-65300000D01*
D10*
G04 #@! TO.C,R2*
X39708912Y-43741422D02*
X39708912Y-44258578D01*
X38288912Y-43741422D02*
X38288912Y-44258578D01*
G04 #@! TO.C,H1*
X6723815Y-68500000D02*
G75*
G03*
X6723815Y-68500000I-3224903J0D01*
G01*
G36*
X3998912Y-65300000D02*
G01*
X4998912Y-65600000D01*
X5798912Y-66200000D01*
X6298912Y-66900000D01*
X6598912Y-67600000D01*
X6698912Y-68000000D01*
X6698912Y-68500000D01*
X5098912Y-68500000D01*
X5098912Y-68400000D01*
X4998912Y-68000000D01*
X4798912Y-67600000D01*
X4398912Y-67200000D01*
X3998912Y-67000000D01*
X3598912Y-66900000D01*
X3498912Y-66900000D01*
X3498912Y-65275097D01*
X3998912Y-65300000D01*
G37*
D12*
X3998912Y-65300000D02*
X4998912Y-65600000D01*
X5798912Y-66200000D01*
X6298912Y-66900000D01*
X6598912Y-67600000D01*
X6698912Y-68000000D01*
X6698912Y-68500000D01*
X5098912Y-68500000D01*
X5098912Y-68400000D01*
X4998912Y-68000000D01*
X4798912Y-67600000D01*
X4398912Y-67200000D01*
X3998912Y-67000000D01*
X3598912Y-66900000D01*
X3498912Y-66900000D01*
X3498912Y-65275097D01*
X3998912Y-65300000D01*
G36*
X1898912Y-68600000D02*
G01*
X1998912Y-69000000D01*
X2198912Y-69400000D01*
X2598912Y-69800000D01*
X2998912Y-70000000D01*
X3398912Y-70100000D01*
X3498912Y-70100000D01*
X3498912Y-71724903D01*
X2998912Y-71700000D01*
X1998912Y-71400000D01*
X1198912Y-70800000D01*
X698912Y-70100000D01*
X398912Y-69400000D01*
X298912Y-69000000D01*
X298912Y-68500000D01*
X1898912Y-68500000D01*
X1898912Y-68600000D01*
G37*
X1898912Y-68600000D02*
X1998912Y-69000000D01*
X2198912Y-69400000D01*
X2598912Y-69800000D01*
X2998912Y-70000000D01*
X3398912Y-70100000D01*
X3498912Y-70100000D01*
X3498912Y-71724903D01*
X2998912Y-71700000D01*
X1998912Y-71400000D01*
X1198912Y-70800000D01*
X698912Y-70100000D01*
X398912Y-69400000D01*
X298912Y-69000000D01*
X298912Y-68500000D01*
X1898912Y-68500000D01*
X1898912Y-68600000D01*
D10*
G04 #@! TO.C,J1*
X59798912Y-43800000D02*
X62198912Y-43800000D01*
X62198912Y-46200000D02*
X59798912Y-46200000D01*
X62198912Y-43800000D02*
X62198912Y-46200000D01*
X59798912Y-46200000D02*
X59798912Y-43800000D01*
G04 #@! TO.C,R1*
X67288912Y-57741422D02*
X67288912Y-58258578D01*
X68708912Y-57741422D02*
X68708912Y-58258578D01*
G04 #@! TO.C,H1*
X6723815Y-54500000D02*
G75*
G03*
X6723815Y-54500000I-3224903J0D01*
G01*
G36*
X1898912Y-54600000D02*
G01*
X1998912Y-55000000D01*
X2198912Y-55400000D01*
X2598912Y-55800000D01*
X2998912Y-56000000D01*
X3398912Y-56100000D01*
X3498912Y-56100000D01*
X3498912Y-57724903D01*
X2998912Y-57700000D01*
X1998912Y-57400000D01*
X1198912Y-56800000D01*
X698912Y-56100000D01*
X398912Y-55400000D01*
X298912Y-55000000D01*
X298912Y-54500000D01*
X1898912Y-54500000D01*
X1898912Y-54600000D01*
G37*
D12*
X1898912Y-54600000D02*
X1998912Y-55000000D01*
X2198912Y-55400000D01*
X2598912Y-55800000D01*
X2998912Y-56000000D01*
X3398912Y-56100000D01*
X3498912Y-56100000D01*
X3498912Y-57724903D01*
X2998912Y-57700000D01*
X1998912Y-57400000D01*
X1198912Y-56800000D01*
X698912Y-56100000D01*
X398912Y-55400000D01*
X298912Y-55000000D01*
X298912Y-54500000D01*
X1898912Y-54500000D01*
X1898912Y-54600000D01*
G36*
X3998912Y-51300000D02*
G01*
X4998912Y-51600000D01*
X5798912Y-52200000D01*
X6298912Y-52900000D01*
X6598912Y-53600000D01*
X6698912Y-54000000D01*
X6698912Y-54500000D01*
X5098912Y-54500000D01*
X5098912Y-54400000D01*
X4998912Y-54000000D01*
X4798912Y-53600000D01*
X4398912Y-53200000D01*
X3998912Y-53000000D01*
X3598912Y-52900000D01*
X3498912Y-52900000D01*
X3498912Y-51275097D01*
X3998912Y-51300000D01*
G37*
X3998912Y-51300000D02*
X4998912Y-51600000D01*
X5798912Y-52200000D01*
X6298912Y-52900000D01*
X6598912Y-53600000D01*
X6698912Y-54000000D01*
X6698912Y-54500000D01*
X5098912Y-54500000D01*
X5098912Y-54400000D01*
X4998912Y-54000000D01*
X4798912Y-53600000D01*
X4398912Y-53200000D01*
X3998912Y-53000000D01*
X3598912Y-52900000D01*
X3498912Y-52900000D01*
X3498912Y-51275097D01*
X3998912Y-51300000D01*
D10*
G04 #@! TO.C,R1*
X13288912Y-43741422D02*
X13288912Y-44258578D01*
X14708912Y-43741422D02*
X14708912Y-44258578D01*
G04 #@! TO.C,H1*
X6723815Y-12500000D02*
G75*
G03*
X6723815Y-12500000I-3224903J0D01*
G01*
G36*
X1898912Y-12600000D02*
G01*
X1998912Y-13000000D01*
X2198912Y-13400000D01*
X2598912Y-13800000D01*
X2998912Y-14000000D01*
X3398912Y-14100000D01*
X3498912Y-14100000D01*
X3498912Y-15724903D01*
X2998912Y-15700000D01*
X1998912Y-15400000D01*
X1198912Y-14800000D01*
X698912Y-14100000D01*
X398912Y-13400000D01*
X298912Y-13000000D01*
X298912Y-12500000D01*
X1898912Y-12500000D01*
X1898912Y-12600000D01*
G37*
D12*
X1898912Y-12600000D02*
X1998912Y-13000000D01*
X2198912Y-13400000D01*
X2598912Y-13800000D01*
X2998912Y-14000000D01*
X3398912Y-14100000D01*
X3498912Y-14100000D01*
X3498912Y-15724903D01*
X2998912Y-15700000D01*
X1998912Y-15400000D01*
X1198912Y-14800000D01*
X698912Y-14100000D01*
X398912Y-13400000D01*
X298912Y-13000000D01*
X298912Y-12500000D01*
X1898912Y-12500000D01*
X1898912Y-12600000D01*
G36*
X3998912Y-9300000D02*
G01*
X4998912Y-9600000D01*
X5798912Y-10200000D01*
X6298912Y-10900000D01*
X6598912Y-11600000D01*
X6698912Y-12000000D01*
X6698912Y-12500000D01*
X5098912Y-12500000D01*
X5098912Y-12400000D01*
X4998912Y-12000000D01*
X4798912Y-11600000D01*
X4398912Y-11200000D01*
X3998912Y-11000000D01*
X3598912Y-10900000D01*
X3498912Y-10900000D01*
X3498912Y-9275097D01*
X3998912Y-9300000D01*
G37*
X3998912Y-9300000D02*
X4998912Y-9600000D01*
X5798912Y-10200000D01*
X6298912Y-10900000D01*
X6598912Y-11600000D01*
X6698912Y-12000000D01*
X6698912Y-12500000D01*
X5098912Y-12500000D01*
X5098912Y-12400000D01*
X4998912Y-12000000D01*
X4798912Y-11600000D01*
X4398912Y-11200000D01*
X3998912Y-11000000D01*
X3598912Y-10900000D01*
X3498912Y-10900000D01*
X3498912Y-9275097D01*
X3998912Y-9300000D01*
D10*
X33723815Y-40500000D02*
G75*
G03*
X33723815Y-40500000I-3224903J0D01*
G01*
G36*
X28898912Y-40600000D02*
G01*
X28998912Y-41000000D01*
X29198912Y-41400000D01*
X29598912Y-41800000D01*
X29998912Y-42000000D01*
X30398912Y-42100000D01*
X30498912Y-42100000D01*
X30498912Y-43724903D01*
X29998912Y-43700000D01*
X28998912Y-43400000D01*
X28198912Y-42800000D01*
X27698912Y-42100000D01*
X27398912Y-41400000D01*
X27298912Y-41000000D01*
X27298912Y-40500000D01*
X28898912Y-40500000D01*
X28898912Y-40600000D01*
G37*
D12*
X28898912Y-40600000D02*
X28998912Y-41000000D01*
X29198912Y-41400000D01*
X29598912Y-41800000D01*
X29998912Y-42000000D01*
X30398912Y-42100000D01*
X30498912Y-42100000D01*
X30498912Y-43724903D01*
X29998912Y-43700000D01*
X28998912Y-43400000D01*
X28198912Y-42800000D01*
X27698912Y-42100000D01*
X27398912Y-41400000D01*
X27298912Y-41000000D01*
X27298912Y-40500000D01*
X28898912Y-40500000D01*
X28898912Y-40600000D01*
G36*
X30998912Y-37300000D02*
G01*
X31998912Y-37600000D01*
X32798912Y-38200000D01*
X33298912Y-38900000D01*
X33598912Y-39600000D01*
X33698912Y-40000000D01*
X33698912Y-40500000D01*
X32098912Y-40500000D01*
X32098912Y-40400000D01*
X31998912Y-40000000D01*
X31798912Y-39600000D01*
X31398912Y-39200000D01*
X30998912Y-39000000D01*
X30598912Y-38900000D01*
X30498912Y-38900000D01*
X30498912Y-37275097D01*
X30998912Y-37300000D01*
G37*
X30998912Y-37300000D02*
X31998912Y-37600000D01*
X32798912Y-38200000D01*
X33298912Y-38900000D01*
X33598912Y-39600000D01*
X33698912Y-40000000D01*
X33698912Y-40500000D01*
X32098912Y-40500000D01*
X32098912Y-40400000D01*
X31998912Y-40000000D01*
X31798912Y-39600000D01*
X31398912Y-39200000D01*
X30998912Y-39000000D01*
X30598912Y-38900000D01*
X30498912Y-38900000D01*
X30498912Y-37275097D01*
X30998912Y-37300000D01*
D10*
G04 #@! TO.C,R2*
X65288912Y-43741422D02*
X65288912Y-44258578D01*
X66708912Y-43741422D02*
X66708912Y-44258578D01*
X11288912Y-29741422D02*
X11288912Y-30258578D01*
X12708912Y-29741422D02*
X12708912Y-30258578D01*
G04 #@! TO.C,D1*
X38198912Y-41735000D02*
X40483912Y-41735000D01*
X40483912Y-41735000D02*
X40483912Y-40265000D01*
X40483912Y-40265000D02*
X38198912Y-40265000D01*
G04 #@! TO.C,H1*
X60723815Y-40500000D02*
G75*
G03*
X60723815Y-40500000I-3224903J0D01*
G01*
G36*
X55898912Y-40600000D02*
G01*
X55998912Y-41000000D01*
X56198912Y-41400000D01*
X56598912Y-41800000D01*
X56998912Y-42000000D01*
X57398912Y-42100000D01*
X57498912Y-42100000D01*
X57498912Y-43724903D01*
X56998912Y-43700000D01*
X55998912Y-43400000D01*
X55198912Y-42800000D01*
X54698912Y-42100000D01*
X54398912Y-41400000D01*
X54298912Y-41000000D01*
X54298912Y-40500000D01*
X55898912Y-40500000D01*
X55898912Y-40600000D01*
G37*
D12*
X55898912Y-40600000D02*
X55998912Y-41000000D01*
X56198912Y-41400000D01*
X56598912Y-41800000D01*
X56998912Y-42000000D01*
X57398912Y-42100000D01*
X57498912Y-42100000D01*
X57498912Y-43724903D01*
X56998912Y-43700000D01*
X55998912Y-43400000D01*
X55198912Y-42800000D01*
X54698912Y-42100000D01*
X54398912Y-41400000D01*
X54298912Y-41000000D01*
X54298912Y-40500000D01*
X55898912Y-40500000D01*
X55898912Y-40600000D01*
G36*
X57998912Y-37300000D02*
G01*
X58998912Y-37600000D01*
X59798912Y-38200000D01*
X60298912Y-38900000D01*
X60598912Y-39600000D01*
X60698912Y-40000000D01*
X60698912Y-40500000D01*
X59098912Y-40500000D01*
X59098912Y-40400000D01*
X58998912Y-40000000D01*
X58798912Y-39600000D01*
X58398912Y-39200000D01*
X57998912Y-39000000D01*
X57598912Y-38900000D01*
X57498912Y-38900000D01*
X57498912Y-37275097D01*
X57998912Y-37300000D01*
G37*
X57998912Y-37300000D02*
X58998912Y-37600000D01*
X59798912Y-38200000D01*
X60298912Y-38900000D01*
X60598912Y-39600000D01*
X60698912Y-40000000D01*
X60698912Y-40500000D01*
X59098912Y-40500000D01*
X59098912Y-40400000D01*
X58998912Y-40000000D01*
X58798912Y-39600000D01*
X58398912Y-39200000D01*
X57998912Y-39000000D01*
X57598912Y-38900000D01*
X57498912Y-38900000D01*
X57498912Y-37275097D01*
X57998912Y-37300000D01*
D10*
G04 #@! TO.C,R1*
X67288912Y-29741422D02*
X67288912Y-30258578D01*
X68708912Y-29741422D02*
X68708912Y-30258578D01*
G04 #@! TO.C,R2*
X38288912Y-29741422D02*
X38288912Y-30258578D01*
X39708912Y-29741422D02*
X39708912Y-30258578D01*
G04 #@! TO.C,H1*
X33723815Y-12500000D02*
G75*
G03*
X33723815Y-12500000I-3224903J0D01*
G01*
G36*
X28898912Y-12600000D02*
G01*
X28998912Y-13000000D01*
X29198912Y-13400000D01*
X29598912Y-13800000D01*
X29998912Y-14000000D01*
X30398912Y-14100000D01*
X30498912Y-14100000D01*
X30498912Y-15724903D01*
X29998912Y-15700000D01*
X28998912Y-15400000D01*
X28198912Y-14800000D01*
X27698912Y-14100000D01*
X27398912Y-13400000D01*
X27298912Y-13000000D01*
X27298912Y-12500000D01*
X28898912Y-12500000D01*
X28898912Y-12600000D01*
G37*
D12*
X28898912Y-12600000D02*
X28998912Y-13000000D01*
X29198912Y-13400000D01*
X29598912Y-13800000D01*
X29998912Y-14000000D01*
X30398912Y-14100000D01*
X30498912Y-14100000D01*
X30498912Y-15724903D01*
X29998912Y-15700000D01*
X28998912Y-15400000D01*
X28198912Y-14800000D01*
X27698912Y-14100000D01*
X27398912Y-13400000D01*
X27298912Y-13000000D01*
X27298912Y-12500000D01*
X28898912Y-12500000D01*
X28898912Y-12600000D01*
G36*
X30998912Y-9300000D02*
G01*
X31998912Y-9600000D01*
X32798912Y-10200000D01*
X33298912Y-10900000D01*
X33598912Y-11600000D01*
X33698912Y-12000000D01*
X33698912Y-12500000D01*
X32098912Y-12500000D01*
X32098912Y-12400000D01*
X31998912Y-12000000D01*
X31798912Y-11600000D01*
X31398912Y-11200000D01*
X30998912Y-11000000D01*
X30598912Y-10900000D01*
X30498912Y-10900000D01*
X30498912Y-9275097D01*
X30998912Y-9300000D01*
G37*
X30998912Y-9300000D02*
X31998912Y-9600000D01*
X32798912Y-10200000D01*
X33298912Y-10900000D01*
X33598912Y-11600000D01*
X33698912Y-12000000D01*
X33698912Y-12500000D01*
X32098912Y-12500000D01*
X32098912Y-12400000D01*
X31998912Y-12000000D01*
X31798912Y-11600000D01*
X31398912Y-11200000D01*
X30998912Y-11000000D01*
X30598912Y-10900000D01*
X30498912Y-10900000D01*
X30498912Y-9275097D01*
X30998912Y-9300000D01*
D10*
X60723815Y-12500000D02*
G75*
G03*
X60723815Y-12500000I-3224903J0D01*
G01*
G36*
X55898912Y-12600000D02*
G01*
X55998912Y-13000000D01*
X56198912Y-13400000D01*
X56598912Y-13800000D01*
X56998912Y-14000000D01*
X57398912Y-14100000D01*
X57498912Y-14100000D01*
X57498912Y-15724903D01*
X56998912Y-15700000D01*
X55998912Y-15400000D01*
X55198912Y-14800000D01*
X54698912Y-14100000D01*
X54398912Y-13400000D01*
X54298912Y-13000000D01*
X54298912Y-12500000D01*
X55898912Y-12500000D01*
X55898912Y-12600000D01*
G37*
D12*
X55898912Y-12600000D02*
X55998912Y-13000000D01*
X56198912Y-13400000D01*
X56598912Y-13800000D01*
X56998912Y-14000000D01*
X57398912Y-14100000D01*
X57498912Y-14100000D01*
X57498912Y-15724903D01*
X56998912Y-15700000D01*
X55998912Y-15400000D01*
X55198912Y-14800000D01*
X54698912Y-14100000D01*
X54398912Y-13400000D01*
X54298912Y-13000000D01*
X54298912Y-12500000D01*
X55898912Y-12500000D01*
X55898912Y-12600000D01*
G36*
X57998912Y-9300000D02*
G01*
X58998912Y-9600000D01*
X59798912Y-10200000D01*
X60298912Y-10900000D01*
X60598912Y-11600000D01*
X60698912Y-12000000D01*
X60698912Y-12500000D01*
X59098912Y-12500000D01*
X59098912Y-12400000D01*
X58998912Y-12000000D01*
X58798912Y-11600000D01*
X58398912Y-11200000D01*
X57998912Y-11000000D01*
X57598912Y-10900000D01*
X57498912Y-10900000D01*
X57498912Y-9275097D01*
X57998912Y-9300000D01*
G37*
X57998912Y-9300000D02*
X58998912Y-9600000D01*
X59798912Y-10200000D01*
X60298912Y-10900000D01*
X60598912Y-11600000D01*
X60698912Y-12000000D01*
X60698912Y-12500000D01*
X59098912Y-12500000D01*
X59098912Y-12400000D01*
X58998912Y-12000000D01*
X58798912Y-11600000D01*
X58398912Y-11200000D01*
X57998912Y-11000000D01*
X57598912Y-10900000D01*
X57498912Y-10900000D01*
X57498912Y-9275097D01*
X57998912Y-9300000D01*
D10*
G04 #@! TO.C,J1*
X62198912Y-60200000D02*
X59798912Y-60200000D01*
X59798912Y-57800000D02*
X62198912Y-57800000D01*
X59798912Y-60200000D02*
X59798912Y-57800000D01*
X62198912Y-57800000D02*
X62198912Y-60200000D01*
G04 #@! TO.C,H2*
X51723815Y-26500000D02*
G75*
G03*
X51723815Y-26500000I-3224903J0D01*
G01*
G36*
X48998912Y-23300000D02*
G01*
X49998912Y-23600000D01*
X50798912Y-24200000D01*
X51298912Y-24900000D01*
X51598912Y-25600000D01*
X51698912Y-26000000D01*
X51698912Y-26500000D01*
X50098912Y-26500000D01*
X50098912Y-26400000D01*
X49998912Y-26000000D01*
X49798912Y-25600000D01*
X49398912Y-25200000D01*
X48998912Y-25000000D01*
X48598912Y-24900000D01*
X48498912Y-24900000D01*
X48498912Y-23275097D01*
X48998912Y-23300000D01*
G37*
D12*
X48998912Y-23300000D02*
X49998912Y-23600000D01*
X50798912Y-24200000D01*
X51298912Y-24900000D01*
X51598912Y-25600000D01*
X51698912Y-26000000D01*
X51698912Y-26500000D01*
X50098912Y-26500000D01*
X50098912Y-26400000D01*
X49998912Y-26000000D01*
X49798912Y-25600000D01*
X49398912Y-25200000D01*
X48998912Y-25000000D01*
X48598912Y-24900000D01*
X48498912Y-24900000D01*
X48498912Y-23275097D01*
X48998912Y-23300000D01*
G36*
X46898912Y-26600000D02*
G01*
X46998912Y-27000000D01*
X47198912Y-27400000D01*
X47598912Y-27800000D01*
X47998912Y-28000000D01*
X48398912Y-28100000D01*
X48498912Y-28100000D01*
X48498912Y-29724903D01*
X47998912Y-29700000D01*
X46998912Y-29400000D01*
X46198912Y-28800000D01*
X45698912Y-28100000D01*
X45398912Y-27400000D01*
X45298912Y-27000000D01*
X45298912Y-26500000D01*
X46898912Y-26500000D01*
X46898912Y-26600000D01*
G37*
X46898912Y-26600000D02*
X46998912Y-27000000D01*
X47198912Y-27400000D01*
X47598912Y-27800000D01*
X47998912Y-28000000D01*
X48398912Y-28100000D01*
X48498912Y-28100000D01*
X48498912Y-29724903D01*
X47998912Y-29700000D01*
X46998912Y-29400000D01*
X46198912Y-28800000D01*
X45698912Y-28100000D01*
X45398912Y-27400000D01*
X45298912Y-27000000D01*
X45298912Y-26500000D01*
X46898912Y-26500000D01*
X46898912Y-26600000D01*
D10*
G04 #@! TO.C,R1*
X40288912Y-29741422D02*
X40288912Y-30258578D01*
X41708912Y-29741422D02*
X41708912Y-30258578D01*
G04 #@! TO.C,J2*
X73198912Y-59000000D02*
G75*
G03*
X73198912Y-59000000I-1200000J0D01*
G01*
G04 #@! TO.C,H2*
X51723815Y-12500000D02*
G75*
G03*
X51723815Y-12500000I-3224903J0D01*
G01*
G36*
X48998912Y-9300000D02*
G01*
X49998912Y-9600000D01*
X50798912Y-10200000D01*
X51298912Y-10900000D01*
X51598912Y-11600000D01*
X51698912Y-12000000D01*
X51698912Y-12500000D01*
X50098912Y-12500000D01*
X50098912Y-12400000D01*
X49998912Y-12000000D01*
X49798912Y-11600000D01*
X49398912Y-11200000D01*
X48998912Y-11000000D01*
X48598912Y-10900000D01*
X48498912Y-10900000D01*
X48498912Y-9275097D01*
X48998912Y-9300000D01*
G37*
D12*
X48998912Y-9300000D02*
X49998912Y-9600000D01*
X50798912Y-10200000D01*
X51298912Y-10900000D01*
X51598912Y-11600000D01*
X51698912Y-12000000D01*
X51698912Y-12500000D01*
X50098912Y-12500000D01*
X50098912Y-12400000D01*
X49998912Y-12000000D01*
X49798912Y-11600000D01*
X49398912Y-11200000D01*
X48998912Y-11000000D01*
X48598912Y-10900000D01*
X48498912Y-10900000D01*
X48498912Y-9275097D01*
X48998912Y-9300000D01*
G36*
X46898912Y-12600000D02*
G01*
X46998912Y-13000000D01*
X47198912Y-13400000D01*
X47598912Y-13800000D01*
X47998912Y-14000000D01*
X48398912Y-14100000D01*
X48498912Y-14100000D01*
X48498912Y-15724903D01*
X47998912Y-15700000D01*
X46998912Y-15400000D01*
X46198912Y-14800000D01*
X45698912Y-14100000D01*
X45398912Y-13400000D01*
X45298912Y-13000000D01*
X45298912Y-12500000D01*
X46898912Y-12500000D01*
X46898912Y-12600000D01*
G37*
X46898912Y-12600000D02*
X46998912Y-13000000D01*
X47198912Y-13400000D01*
X47598912Y-13800000D01*
X47998912Y-14000000D01*
X48398912Y-14100000D01*
X48498912Y-14100000D01*
X48498912Y-15724903D01*
X47998912Y-15700000D01*
X46998912Y-15400000D01*
X46198912Y-14800000D01*
X45698912Y-14100000D01*
X45398912Y-13400000D01*
X45298912Y-13000000D01*
X45298912Y-12500000D01*
X46898912Y-12500000D01*
X46898912Y-12600000D01*
D10*
G04 #@! TO.C,R1*
X41708912Y-71741422D02*
X41708912Y-72258578D01*
X40288912Y-71741422D02*
X40288912Y-72258578D01*
G04 #@! TO.C,J2*
X46198912Y-31000000D02*
G75*
G03*
X46198912Y-31000000I-1200000J0D01*
G01*
G04 #@! TO.C,H2*
X24723815Y-68500000D02*
G75*
G03*
X24723815Y-68500000I-3224903J0D01*
G01*
G36*
X21998912Y-65300000D02*
G01*
X22998912Y-65600000D01*
X23798912Y-66200000D01*
X24298912Y-66900000D01*
X24598912Y-67600000D01*
X24698912Y-68000000D01*
X24698912Y-68500000D01*
X23098912Y-68500000D01*
X23098912Y-68400000D01*
X22998912Y-68000000D01*
X22798912Y-67600000D01*
X22398912Y-67200000D01*
X21998912Y-67000000D01*
X21598912Y-66900000D01*
X21498912Y-66900000D01*
X21498912Y-65275097D01*
X21998912Y-65300000D01*
G37*
D12*
X21998912Y-65300000D02*
X22998912Y-65600000D01*
X23798912Y-66200000D01*
X24298912Y-66900000D01*
X24598912Y-67600000D01*
X24698912Y-68000000D01*
X24698912Y-68500000D01*
X23098912Y-68500000D01*
X23098912Y-68400000D01*
X22998912Y-68000000D01*
X22798912Y-67600000D01*
X22398912Y-67200000D01*
X21998912Y-67000000D01*
X21598912Y-66900000D01*
X21498912Y-66900000D01*
X21498912Y-65275097D01*
X21998912Y-65300000D01*
G36*
X19898912Y-68600000D02*
G01*
X19998912Y-69000000D01*
X20198912Y-69400000D01*
X20598912Y-69800000D01*
X20998912Y-70000000D01*
X21398912Y-70100000D01*
X21498912Y-70100000D01*
X21498912Y-71724903D01*
X20998912Y-71700000D01*
X19998912Y-71400000D01*
X19198912Y-70800000D01*
X18698912Y-70100000D01*
X18398912Y-69400000D01*
X18298912Y-69000000D01*
X18298912Y-68500000D01*
X19898912Y-68500000D01*
X19898912Y-68600000D01*
G37*
X19898912Y-68600000D02*
X19998912Y-69000000D01*
X20198912Y-69400000D01*
X20598912Y-69800000D01*
X20998912Y-70000000D01*
X21398912Y-70100000D01*
X21498912Y-70100000D01*
X21498912Y-71724903D01*
X20998912Y-71700000D01*
X19998912Y-71400000D01*
X19198912Y-70800000D01*
X18698912Y-70100000D01*
X18398912Y-69400000D01*
X18298912Y-69000000D01*
X18298912Y-68500000D01*
X19898912Y-68500000D01*
X19898912Y-68600000D01*
D10*
G04 #@! TO.C,R2*
X11288912Y-57741422D02*
X11288912Y-58258578D01*
X12708912Y-57741422D02*
X12708912Y-58258578D01*
G04 #@! TO.C,J2*
X46198912Y-17000000D02*
G75*
G03*
X46198912Y-17000000I-1200000J0D01*
G01*
G04 #@! TO.C,R2*
X39708912Y-71741422D02*
X39708912Y-72258578D01*
X38288912Y-71741422D02*
X38288912Y-72258578D01*
G04 #@! TO.C,R1*
X13288912Y-57741422D02*
X13288912Y-58258578D01*
X14708912Y-57741422D02*
X14708912Y-58258578D01*
G04 #@! TO.C,J1*
X32798912Y-32200000D02*
X32798912Y-29800000D01*
X35198912Y-32200000D02*
X32798912Y-32200000D01*
X32798912Y-29800000D02*
X35198912Y-29800000D01*
X35198912Y-29800000D02*
X35198912Y-32200000D01*
G04 #@! TO.C,H2*
X78723815Y-40500000D02*
G75*
G03*
X78723815Y-40500000I-3224903J0D01*
G01*
G36*
X73898912Y-40600000D02*
G01*
X73998912Y-41000000D01*
X74198912Y-41400000D01*
X74598912Y-41800000D01*
X74998912Y-42000000D01*
X75398912Y-42100000D01*
X75498912Y-42100000D01*
X75498912Y-43724903D01*
X74998912Y-43700000D01*
X73998912Y-43400000D01*
X73198912Y-42800000D01*
X72698912Y-42100000D01*
X72398912Y-41400000D01*
X72298912Y-41000000D01*
X72298912Y-40500000D01*
X73898912Y-40500000D01*
X73898912Y-40600000D01*
G37*
D12*
X73898912Y-40600000D02*
X73998912Y-41000000D01*
X74198912Y-41400000D01*
X74598912Y-41800000D01*
X74998912Y-42000000D01*
X75398912Y-42100000D01*
X75498912Y-42100000D01*
X75498912Y-43724903D01*
X74998912Y-43700000D01*
X73998912Y-43400000D01*
X73198912Y-42800000D01*
X72698912Y-42100000D01*
X72398912Y-41400000D01*
X72298912Y-41000000D01*
X72298912Y-40500000D01*
X73898912Y-40500000D01*
X73898912Y-40600000D01*
G36*
X75998912Y-37300000D02*
G01*
X76998912Y-37600000D01*
X77798912Y-38200000D01*
X78298912Y-38900000D01*
X78598912Y-39600000D01*
X78698912Y-40000000D01*
X78698912Y-40500000D01*
X77098912Y-40500000D01*
X77098912Y-40400000D01*
X76998912Y-40000000D01*
X76798912Y-39600000D01*
X76398912Y-39200000D01*
X75998912Y-39000000D01*
X75598912Y-38900000D01*
X75498912Y-38900000D01*
X75498912Y-37275097D01*
X75998912Y-37300000D01*
G37*
X75998912Y-37300000D02*
X76998912Y-37600000D01*
X77798912Y-38200000D01*
X78298912Y-38900000D01*
X78598912Y-39600000D01*
X78698912Y-40000000D01*
X78698912Y-40500000D01*
X77098912Y-40500000D01*
X77098912Y-40400000D01*
X76998912Y-40000000D01*
X76798912Y-39600000D01*
X76398912Y-39200000D01*
X75998912Y-39000000D01*
X75598912Y-38900000D01*
X75498912Y-38900000D01*
X75498912Y-37275097D01*
X75998912Y-37300000D01*
D10*
G04 #@! TO.C,J1*
X59798912Y-29800000D02*
X62198912Y-29800000D01*
X62198912Y-29800000D02*
X62198912Y-32200000D01*
X59798912Y-32200000D02*
X59798912Y-29800000D01*
X62198912Y-32200000D02*
X59798912Y-32200000D01*
G04 #@! TO.C,D1*
X65198912Y-13735000D02*
X67483912Y-13735000D01*
X67483912Y-12265000D02*
X65198912Y-12265000D01*
X67483912Y-13735000D02*
X67483912Y-12265000D01*
X13483912Y-41735000D02*
X13483912Y-40265000D01*
X11198912Y-41735000D02*
X13483912Y-41735000D01*
X13483912Y-40265000D02*
X11198912Y-40265000D01*
G04 #@! TO.C,R1*
X14708912Y-15741422D02*
X14708912Y-16258578D01*
X13288912Y-15741422D02*
X13288912Y-16258578D01*
G04 #@! TO.C,D1*
X13483912Y-54265000D02*
X11198912Y-54265000D01*
X13483912Y-55735000D02*
X13483912Y-54265000D01*
X11198912Y-55735000D02*
X13483912Y-55735000D01*
G04 #@! TO.C,H1*
X60723815Y-68500000D02*
G75*
G03*
X60723815Y-68500000I-3224903J0D01*
G01*
G36*
X57998912Y-65300000D02*
G01*
X58998912Y-65600000D01*
X59798912Y-66200000D01*
X60298912Y-66900000D01*
X60598912Y-67600000D01*
X60698912Y-68000000D01*
X60698912Y-68500000D01*
X59098912Y-68500000D01*
X59098912Y-68400000D01*
X58998912Y-68000000D01*
X58798912Y-67600000D01*
X58398912Y-67200000D01*
X57998912Y-67000000D01*
X57598912Y-66900000D01*
X57498912Y-66900000D01*
X57498912Y-65275097D01*
X57998912Y-65300000D01*
G37*
D12*
X57998912Y-65300000D02*
X58998912Y-65600000D01*
X59798912Y-66200000D01*
X60298912Y-66900000D01*
X60598912Y-67600000D01*
X60698912Y-68000000D01*
X60698912Y-68500000D01*
X59098912Y-68500000D01*
X59098912Y-68400000D01*
X58998912Y-68000000D01*
X58798912Y-67600000D01*
X58398912Y-67200000D01*
X57998912Y-67000000D01*
X57598912Y-66900000D01*
X57498912Y-66900000D01*
X57498912Y-65275097D01*
X57998912Y-65300000D01*
G36*
X55898912Y-68600000D02*
G01*
X55998912Y-69000000D01*
X56198912Y-69400000D01*
X56598912Y-69800000D01*
X56998912Y-70000000D01*
X57398912Y-70100000D01*
X57498912Y-70100000D01*
X57498912Y-71724903D01*
X56998912Y-71700000D01*
X55998912Y-71400000D01*
X55198912Y-70800000D01*
X54698912Y-70100000D01*
X54398912Y-69400000D01*
X54298912Y-69000000D01*
X54298912Y-68500000D01*
X55898912Y-68500000D01*
X55898912Y-68600000D01*
G37*
X55898912Y-68600000D02*
X55998912Y-69000000D01*
X56198912Y-69400000D01*
X56598912Y-69800000D01*
X56998912Y-70000000D01*
X57398912Y-70100000D01*
X57498912Y-70100000D01*
X57498912Y-71724903D01*
X56998912Y-71700000D01*
X55998912Y-71400000D01*
X55198912Y-70800000D01*
X54698912Y-70100000D01*
X54398912Y-69400000D01*
X54298912Y-69000000D01*
X54298912Y-68500000D01*
X55898912Y-68500000D01*
X55898912Y-68600000D01*
D10*
G04 #@! TO.C,H2*
X24723815Y-12500000D02*
G75*
G03*
X24723815Y-12500000I-3224903J0D01*
G01*
G36*
X19898912Y-12600000D02*
G01*
X19998912Y-13000000D01*
X20198912Y-13400000D01*
X20598912Y-13800000D01*
X20998912Y-14000000D01*
X21398912Y-14100000D01*
X21498912Y-14100000D01*
X21498912Y-15724903D01*
X20998912Y-15700000D01*
X19998912Y-15400000D01*
X19198912Y-14800000D01*
X18698912Y-14100000D01*
X18398912Y-13400000D01*
X18298912Y-13000000D01*
X18298912Y-12500000D01*
X19898912Y-12500000D01*
X19898912Y-12600000D01*
G37*
D12*
X19898912Y-12600000D02*
X19998912Y-13000000D01*
X20198912Y-13400000D01*
X20598912Y-13800000D01*
X20998912Y-14000000D01*
X21398912Y-14100000D01*
X21498912Y-14100000D01*
X21498912Y-15724903D01*
X20998912Y-15700000D01*
X19998912Y-15400000D01*
X19198912Y-14800000D01*
X18698912Y-14100000D01*
X18398912Y-13400000D01*
X18298912Y-13000000D01*
X18298912Y-12500000D01*
X19898912Y-12500000D01*
X19898912Y-12600000D01*
G36*
X21998912Y-9300000D02*
G01*
X22998912Y-9600000D01*
X23798912Y-10200000D01*
X24298912Y-10900000D01*
X24598912Y-11600000D01*
X24698912Y-12000000D01*
X24698912Y-12500000D01*
X23098912Y-12500000D01*
X23098912Y-12400000D01*
X22998912Y-12000000D01*
X22798912Y-11600000D01*
X22398912Y-11200000D01*
X21998912Y-11000000D01*
X21598912Y-10900000D01*
X21498912Y-10900000D01*
X21498912Y-9275097D01*
X21998912Y-9300000D01*
G37*
X21998912Y-9300000D02*
X22998912Y-9600000D01*
X23798912Y-10200000D01*
X24298912Y-10900000D01*
X24598912Y-11600000D01*
X24698912Y-12000000D01*
X24698912Y-12500000D01*
X23098912Y-12500000D01*
X23098912Y-12400000D01*
X22998912Y-12000000D01*
X22798912Y-11600000D01*
X22398912Y-11200000D01*
X21998912Y-11000000D01*
X21598912Y-10900000D01*
X21498912Y-10900000D01*
X21498912Y-9275097D01*
X21998912Y-9300000D01*
D10*
G04 #@! TO.C,J1*
X8198912Y-15800000D02*
X8198912Y-18200000D01*
X8198912Y-18200000D02*
X5798912Y-18200000D01*
X5798912Y-15800000D02*
X8198912Y-15800000D01*
X5798912Y-18200000D02*
X5798912Y-15800000D01*
G04 #@! TO.C,H2*
X24723815Y-40500000D02*
G75*
G03*
X24723815Y-40500000I-3224903J0D01*
G01*
G36*
X19898912Y-40600000D02*
G01*
X19998912Y-41000000D01*
X20198912Y-41400000D01*
X20598912Y-41800000D01*
X20998912Y-42000000D01*
X21398912Y-42100000D01*
X21498912Y-42100000D01*
X21498912Y-43724903D01*
X20998912Y-43700000D01*
X19998912Y-43400000D01*
X19198912Y-42800000D01*
X18698912Y-42100000D01*
X18398912Y-41400000D01*
X18298912Y-41000000D01*
X18298912Y-40500000D01*
X19898912Y-40500000D01*
X19898912Y-40600000D01*
G37*
D12*
X19898912Y-40600000D02*
X19998912Y-41000000D01*
X20198912Y-41400000D01*
X20598912Y-41800000D01*
X20998912Y-42000000D01*
X21398912Y-42100000D01*
X21498912Y-42100000D01*
X21498912Y-43724903D01*
X20998912Y-43700000D01*
X19998912Y-43400000D01*
X19198912Y-42800000D01*
X18698912Y-42100000D01*
X18398912Y-41400000D01*
X18298912Y-41000000D01*
X18298912Y-40500000D01*
X19898912Y-40500000D01*
X19898912Y-40600000D01*
G36*
X21998912Y-37300000D02*
G01*
X22998912Y-37600000D01*
X23798912Y-38200000D01*
X24298912Y-38900000D01*
X24598912Y-39600000D01*
X24698912Y-40000000D01*
X24698912Y-40500000D01*
X23098912Y-40500000D01*
X23098912Y-40400000D01*
X22998912Y-40000000D01*
X22798912Y-39600000D01*
X22398912Y-39200000D01*
X21998912Y-39000000D01*
X21598912Y-38900000D01*
X21498912Y-38900000D01*
X21498912Y-37275097D01*
X21998912Y-37300000D01*
G37*
X21998912Y-37300000D02*
X22998912Y-37600000D01*
X23798912Y-38200000D01*
X24298912Y-38900000D01*
X24598912Y-39600000D01*
X24698912Y-40000000D01*
X24698912Y-40500000D01*
X23098912Y-40500000D01*
X23098912Y-40400000D01*
X22998912Y-40000000D01*
X22798912Y-39600000D01*
X22398912Y-39200000D01*
X21998912Y-39000000D01*
X21598912Y-38900000D01*
X21498912Y-38900000D01*
X21498912Y-37275097D01*
X21998912Y-37300000D01*
D10*
G04 #@! TO.C,J2*
X46198912Y-73000000D02*
G75*
G03*
X46198912Y-73000000I-1200000J0D01*
G01*
G04 #@! TO.C,H1*
X33723815Y-68500000D02*
G75*
G03*
X33723815Y-68500000I-3224903J0D01*
G01*
G36*
X30998912Y-65300000D02*
G01*
X31998912Y-65600000D01*
X32798912Y-66200000D01*
X33298912Y-66900000D01*
X33598912Y-67600000D01*
X33698912Y-68000000D01*
X33698912Y-68500000D01*
X32098912Y-68500000D01*
X32098912Y-68400000D01*
X31998912Y-68000000D01*
X31798912Y-67600000D01*
X31398912Y-67200000D01*
X30998912Y-67000000D01*
X30598912Y-66900000D01*
X30498912Y-66900000D01*
X30498912Y-65275097D01*
X30998912Y-65300000D01*
G37*
D12*
X30998912Y-65300000D02*
X31998912Y-65600000D01*
X32798912Y-66200000D01*
X33298912Y-66900000D01*
X33598912Y-67600000D01*
X33698912Y-68000000D01*
X33698912Y-68500000D01*
X32098912Y-68500000D01*
X32098912Y-68400000D01*
X31998912Y-68000000D01*
X31798912Y-67600000D01*
X31398912Y-67200000D01*
X30998912Y-67000000D01*
X30598912Y-66900000D01*
X30498912Y-66900000D01*
X30498912Y-65275097D01*
X30998912Y-65300000D01*
G36*
X28898912Y-68600000D02*
G01*
X28998912Y-69000000D01*
X29198912Y-69400000D01*
X29598912Y-69800000D01*
X29998912Y-70000000D01*
X30398912Y-70100000D01*
X30498912Y-70100000D01*
X30498912Y-71724903D01*
X29998912Y-71700000D01*
X28998912Y-71400000D01*
X28198912Y-70800000D01*
X27698912Y-70100000D01*
X27398912Y-69400000D01*
X27298912Y-69000000D01*
X27298912Y-68500000D01*
X28898912Y-68500000D01*
X28898912Y-68600000D01*
G37*
X28898912Y-68600000D02*
X28998912Y-69000000D01*
X29198912Y-69400000D01*
X29598912Y-69800000D01*
X29998912Y-70000000D01*
X30398912Y-70100000D01*
X30498912Y-70100000D01*
X30498912Y-71724903D01*
X29998912Y-71700000D01*
X28998912Y-71400000D01*
X28198912Y-70800000D01*
X27698912Y-70100000D01*
X27398912Y-69400000D01*
X27298912Y-69000000D01*
X27298912Y-68500000D01*
X28898912Y-68500000D01*
X28898912Y-68600000D01*
D10*
G04 #@! TO.C,J1*
X32798912Y-18200000D02*
X32798912Y-15800000D01*
X32798912Y-15800000D02*
X35198912Y-15800000D01*
X35198912Y-18200000D02*
X32798912Y-18200000D01*
X35198912Y-15800000D02*
X35198912Y-18200000D01*
G04 #@! TO.C,J2*
X46198912Y-45000000D02*
G75*
G03*
X46198912Y-45000000I-1200000J0D01*
G01*
G04 #@! TO.C,H2*
X78723815Y-54500000D02*
G75*
G03*
X78723815Y-54500000I-3224903J0D01*
G01*
G36*
X73898912Y-54600000D02*
G01*
X73998912Y-55000000D01*
X74198912Y-55400000D01*
X74598912Y-55800000D01*
X74998912Y-56000000D01*
X75398912Y-56100000D01*
X75498912Y-56100000D01*
X75498912Y-57724903D01*
X74998912Y-57700000D01*
X73998912Y-57400000D01*
X73198912Y-56800000D01*
X72698912Y-56100000D01*
X72398912Y-55400000D01*
X72298912Y-55000000D01*
X72298912Y-54500000D01*
X73898912Y-54500000D01*
X73898912Y-54600000D01*
G37*
D12*
X73898912Y-54600000D02*
X73998912Y-55000000D01*
X74198912Y-55400000D01*
X74598912Y-55800000D01*
X74998912Y-56000000D01*
X75398912Y-56100000D01*
X75498912Y-56100000D01*
X75498912Y-57724903D01*
X74998912Y-57700000D01*
X73998912Y-57400000D01*
X73198912Y-56800000D01*
X72698912Y-56100000D01*
X72398912Y-55400000D01*
X72298912Y-55000000D01*
X72298912Y-54500000D01*
X73898912Y-54500000D01*
X73898912Y-54600000D01*
G36*
X75998912Y-51300000D02*
G01*
X76998912Y-51600000D01*
X77798912Y-52200000D01*
X78298912Y-52900000D01*
X78598912Y-53600000D01*
X78698912Y-54000000D01*
X78698912Y-54500000D01*
X77098912Y-54500000D01*
X77098912Y-54400000D01*
X76998912Y-54000000D01*
X76798912Y-53600000D01*
X76398912Y-53200000D01*
X75998912Y-53000000D01*
X75598912Y-52900000D01*
X75498912Y-52900000D01*
X75498912Y-51275097D01*
X75998912Y-51300000D01*
G37*
X75998912Y-51300000D02*
X76998912Y-51600000D01*
X77798912Y-52200000D01*
X78298912Y-52900000D01*
X78598912Y-53600000D01*
X78698912Y-54000000D01*
X78698912Y-54500000D01*
X77098912Y-54500000D01*
X77098912Y-54400000D01*
X76998912Y-54000000D01*
X76798912Y-53600000D01*
X76398912Y-53200000D01*
X75998912Y-53000000D01*
X75598912Y-52900000D01*
X75498912Y-52900000D01*
X75498912Y-51275097D01*
X75998912Y-51300000D01*
D10*
X51723815Y-68500000D02*
G75*
G03*
X51723815Y-68500000I-3224903J0D01*
G01*
G36*
X48998912Y-65300000D02*
G01*
X49998912Y-65600000D01*
X50798912Y-66200000D01*
X51298912Y-66900000D01*
X51598912Y-67600000D01*
X51698912Y-68000000D01*
X51698912Y-68500000D01*
X50098912Y-68500000D01*
X50098912Y-68400000D01*
X49998912Y-68000000D01*
X49798912Y-67600000D01*
X49398912Y-67200000D01*
X48998912Y-67000000D01*
X48598912Y-66900000D01*
X48498912Y-66900000D01*
X48498912Y-65275097D01*
X48998912Y-65300000D01*
G37*
D12*
X48998912Y-65300000D02*
X49998912Y-65600000D01*
X50798912Y-66200000D01*
X51298912Y-66900000D01*
X51598912Y-67600000D01*
X51698912Y-68000000D01*
X51698912Y-68500000D01*
X50098912Y-68500000D01*
X50098912Y-68400000D01*
X49998912Y-68000000D01*
X49798912Y-67600000D01*
X49398912Y-67200000D01*
X48998912Y-67000000D01*
X48598912Y-66900000D01*
X48498912Y-66900000D01*
X48498912Y-65275097D01*
X48998912Y-65300000D01*
G36*
X46898912Y-68600000D02*
G01*
X46998912Y-69000000D01*
X47198912Y-69400000D01*
X47598912Y-69800000D01*
X47998912Y-70000000D01*
X48398912Y-70100000D01*
X48498912Y-70100000D01*
X48498912Y-71724903D01*
X47998912Y-71700000D01*
X46998912Y-71400000D01*
X46198912Y-70800000D01*
X45698912Y-70100000D01*
X45398912Y-69400000D01*
X45298912Y-69000000D01*
X45298912Y-68500000D01*
X46898912Y-68500000D01*
X46898912Y-68600000D01*
G37*
X46898912Y-68600000D02*
X46998912Y-69000000D01*
X47198912Y-69400000D01*
X47598912Y-69800000D01*
X47998912Y-70000000D01*
X48398912Y-70100000D01*
X48498912Y-70100000D01*
X48498912Y-71724903D01*
X47998912Y-71700000D01*
X46998912Y-71400000D01*
X46198912Y-70800000D01*
X45698912Y-70100000D01*
X45398912Y-69400000D01*
X45298912Y-69000000D01*
X45298912Y-68500000D01*
X46898912Y-68500000D01*
X46898912Y-68600000D01*
D10*
G04 #@! TO.C,J2*
X19198912Y-45000000D02*
G75*
G03*
X19198912Y-45000000I-1200000J0D01*
G01*
G04 #@! TO.C,J1*
X8198912Y-60200000D02*
X5798912Y-60200000D01*
X5798912Y-57800000D02*
X8198912Y-57800000D01*
X5798912Y-60200000D02*
X5798912Y-57800000D01*
X8198912Y-57800000D02*
X8198912Y-60200000D01*
G04 #@! TO.C,D1*
X38198912Y-13735000D02*
X40483912Y-13735000D01*
X40483912Y-13735000D02*
X40483912Y-12265000D01*
X40483912Y-12265000D02*
X38198912Y-12265000D01*
X67483912Y-40265000D02*
X65198912Y-40265000D01*
X65198912Y-41735000D02*
X67483912Y-41735000D01*
X67483912Y-41735000D02*
X67483912Y-40265000D01*
G04 #@! TO.C,R2*
X39708912Y-15741422D02*
X39708912Y-16258578D01*
X38288912Y-15741422D02*
X38288912Y-16258578D01*
G04 #@! TO.C,J1*
X62198912Y-74200000D02*
X59798912Y-74200000D01*
X59798912Y-74200000D02*
X59798912Y-71800000D01*
X62198912Y-71800000D02*
X62198912Y-74200000D01*
X59798912Y-71800000D02*
X62198912Y-71800000D01*
G04 #@! TO.C,R1*
X40288912Y-43741422D02*
X40288912Y-44258578D01*
X41708912Y-43741422D02*
X41708912Y-44258578D01*
G04 #@! TO.C,J2*
X19198912Y-73000000D02*
G75*
G03*
X19198912Y-73000000I-1200000J0D01*
G01*
X73198912Y-73000000D02*
G75*
G03*
X73198912Y-73000000I-1200000J0D01*
G01*
G04 #@! TO.C,D1*
X40483912Y-68265000D02*
X38198912Y-68265000D01*
X38198912Y-69735000D02*
X40483912Y-69735000D01*
X40483912Y-69735000D02*
X40483912Y-68265000D01*
X13483912Y-13735000D02*
X13483912Y-12265000D01*
X11198912Y-13735000D02*
X13483912Y-13735000D01*
X13483912Y-12265000D02*
X11198912Y-12265000D01*
G04 #@! TO.C,R2*
X39708912Y-57741422D02*
X39708912Y-58258578D01*
X38288912Y-57741422D02*
X38288912Y-58258578D01*
X11288912Y-15741422D02*
X11288912Y-16258578D01*
X12708912Y-15741422D02*
X12708912Y-16258578D01*
G04 #@! TO.C,J1*
X5798912Y-32200000D02*
X5798912Y-29800000D01*
X5798912Y-29800000D02*
X8198912Y-29800000D01*
X8198912Y-29800000D02*
X8198912Y-32200000D01*
X8198912Y-32200000D02*
X5798912Y-32200000D01*
G04 #@! TO.C,R1*
X67288912Y-43741422D02*
X67288912Y-44258578D01*
X68708912Y-43741422D02*
X68708912Y-44258578D01*
G04 #@! TO.C,J2*
X19198912Y-59000000D02*
G75*
G03*
X19198912Y-59000000I-1200000J0D01*
G01*
X73198912Y-31000000D02*
G75*
G03*
X73198912Y-31000000I-1200000J0D01*
G01*
G04 #@! TO.C,J1*
X5798912Y-43800000D02*
X8198912Y-43800000D01*
X8198912Y-43800000D02*
X8198912Y-46200000D01*
X5798912Y-46200000D02*
X5798912Y-43800000D01*
X8198912Y-46200000D02*
X5798912Y-46200000D01*
G04 #@! TO.C,R1*
X40288912Y-15741422D02*
X40288912Y-16258578D01*
X41708912Y-15741422D02*
X41708912Y-16258578D01*
G04 #@! TO.C,J1*
X32798912Y-74200000D02*
X32798912Y-71800000D01*
X35198912Y-74200000D02*
X32798912Y-74200000D01*
X32798912Y-71800000D02*
X35198912Y-71800000D01*
X35198912Y-71800000D02*
X35198912Y-74200000D01*
G04 #@! TO.C,J2*
X73198912Y-45000000D02*
G75*
G03*
X73198912Y-45000000I-1200000J0D01*
G01*
G04 #@! TO.C,R2*
X66708912Y-29741422D02*
X66708912Y-30258578D01*
X65288912Y-29741422D02*
X65288912Y-30258578D01*
G04 #@! TO.C,J1*
X62198912Y-15800000D02*
X62198912Y-18200000D01*
X59798912Y-15800000D02*
X62198912Y-15800000D01*
X59798912Y-18200000D02*
X59798912Y-15800000D01*
X62198912Y-18200000D02*
X59798912Y-18200000D01*
G04 #@! TO.C,H1*
X6723815Y-40500000D02*
G75*
G03*
X6723815Y-40500000I-3224903J0D01*
G01*
G36*
X3998912Y-37300000D02*
G01*
X4998912Y-37600000D01*
X5798912Y-38200000D01*
X6298912Y-38900000D01*
X6598912Y-39600000D01*
X6698912Y-40000000D01*
X6698912Y-40500000D01*
X5098912Y-40500000D01*
X5098912Y-40400000D01*
X4998912Y-40000000D01*
X4798912Y-39600000D01*
X4398912Y-39200000D01*
X3998912Y-39000000D01*
X3598912Y-38900000D01*
X3498912Y-38900000D01*
X3498912Y-37275097D01*
X3998912Y-37300000D01*
G37*
D12*
X3998912Y-37300000D02*
X4998912Y-37600000D01*
X5798912Y-38200000D01*
X6298912Y-38900000D01*
X6598912Y-39600000D01*
X6698912Y-40000000D01*
X6698912Y-40500000D01*
X5098912Y-40500000D01*
X5098912Y-40400000D01*
X4998912Y-40000000D01*
X4798912Y-39600000D01*
X4398912Y-39200000D01*
X3998912Y-39000000D01*
X3598912Y-38900000D01*
X3498912Y-38900000D01*
X3498912Y-37275097D01*
X3998912Y-37300000D01*
G36*
X1898912Y-40600000D02*
G01*
X1998912Y-41000000D01*
X2198912Y-41400000D01*
X2598912Y-41800000D01*
X2998912Y-42000000D01*
X3398912Y-42100000D01*
X3498912Y-42100000D01*
X3498912Y-43724903D01*
X2998912Y-43700000D01*
X1998912Y-43400000D01*
X1198912Y-42800000D01*
X698912Y-42100000D01*
X398912Y-41400000D01*
X298912Y-41000000D01*
X298912Y-40500000D01*
X1898912Y-40500000D01*
X1898912Y-40600000D01*
G37*
X1898912Y-40600000D02*
X1998912Y-41000000D01*
X2198912Y-41400000D01*
X2598912Y-41800000D01*
X2998912Y-42000000D01*
X3398912Y-42100000D01*
X3498912Y-42100000D01*
X3498912Y-43724903D01*
X2998912Y-43700000D01*
X1998912Y-43400000D01*
X1198912Y-42800000D01*
X698912Y-42100000D01*
X398912Y-41400000D01*
X298912Y-41000000D01*
X298912Y-40500000D01*
X1898912Y-40500000D01*
X1898912Y-40600000D01*
D10*
G04 #@! TO.C,H2*
X78723815Y-26500000D02*
G75*
G03*
X78723815Y-26500000I-3224903J0D01*
G01*
G36*
X73898912Y-26600000D02*
G01*
X73998912Y-27000000D01*
X74198912Y-27400000D01*
X74598912Y-27800000D01*
X74998912Y-28000000D01*
X75398912Y-28100000D01*
X75498912Y-28100000D01*
X75498912Y-29724903D01*
X74998912Y-29700000D01*
X73998912Y-29400000D01*
X73198912Y-28800000D01*
X72698912Y-28100000D01*
X72398912Y-27400000D01*
X72298912Y-27000000D01*
X72298912Y-26500000D01*
X73898912Y-26500000D01*
X73898912Y-26600000D01*
G37*
D12*
X73898912Y-26600000D02*
X73998912Y-27000000D01*
X74198912Y-27400000D01*
X74598912Y-27800000D01*
X74998912Y-28000000D01*
X75398912Y-28100000D01*
X75498912Y-28100000D01*
X75498912Y-29724903D01*
X74998912Y-29700000D01*
X73998912Y-29400000D01*
X73198912Y-28800000D01*
X72698912Y-28100000D01*
X72398912Y-27400000D01*
X72298912Y-27000000D01*
X72298912Y-26500000D01*
X73898912Y-26500000D01*
X73898912Y-26600000D01*
G36*
X75998912Y-23300000D02*
G01*
X76998912Y-23600000D01*
X77798912Y-24200000D01*
X78298912Y-24900000D01*
X78598912Y-25600000D01*
X78698912Y-26000000D01*
X78698912Y-26500000D01*
X77098912Y-26500000D01*
X77098912Y-26400000D01*
X76998912Y-26000000D01*
X76798912Y-25600000D01*
X76398912Y-25200000D01*
X75998912Y-25000000D01*
X75598912Y-24900000D01*
X75498912Y-24900000D01*
X75498912Y-23275097D01*
X75998912Y-23300000D01*
G37*
X75998912Y-23300000D02*
X76998912Y-23600000D01*
X77798912Y-24200000D01*
X78298912Y-24900000D01*
X78598912Y-25600000D01*
X78698912Y-26000000D01*
X78698912Y-26500000D01*
X77098912Y-26500000D01*
X77098912Y-26400000D01*
X76998912Y-26000000D01*
X76798912Y-25600000D01*
X76398912Y-25200000D01*
X75998912Y-25000000D01*
X75598912Y-24900000D01*
X75498912Y-24900000D01*
X75498912Y-23275097D01*
X75998912Y-23300000D01*
D10*
G04 #@! TO.C,H1*
X6723815Y-26500000D02*
G75*
G03*
X6723815Y-26500000I-3224903J0D01*
G01*
G36*
X3998912Y-23300000D02*
G01*
X4998912Y-23600000D01*
X5798912Y-24200000D01*
X6298912Y-24900000D01*
X6598912Y-25600000D01*
X6698912Y-26000000D01*
X6698912Y-26500000D01*
X5098912Y-26500000D01*
X5098912Y-26400000D01*
X4998912Y-26000000D01*
X4798912Y-25600000D01*
X4398912Y-25200000D01*
X3998912Y-25000000D01*
X3598912Y-24900000D01*
X3498912Y-24900000D01*
X3498912Y-23275097D01*
X3998912Y-23300000D01*
G37*
D12*
X3998912Y-23300000D02*
X4998912Y-23600000D01*
X5798912Y-24200000D01*
X6298912Y-24900000D01*
X6598912Y-25600000D01*
X6698912Y-26000000D01*
X6698912Y-26500000D01*
X5098912Y-26500000D01*
X5098912Y-26400000D01*
X4998912Y-26000000D01*
X4798912Y-25600000D01*
X4398912Y-25200000D01*
X3998912Y-25000000D01*
X3598912Y-24900000D01*
X3498912Y-24900000D01*
X3498912Y-23275097D01*
X3998912Y-23300000D01*
G36*
X1898912Y-26600000D02*
G01*
X1998912Y-27000000D01*
X2198912Y-27400000D01*
X2598912Y-27800000D01*
X2998912Y-28000000D01*
X3398912Y-28100000D01*
X3498912Y-28100000D01*
X3498912Y-29724903D01*
X2998912Y-29700000D01*
X1998912Y-29400000D01*
X1198912Y-28800000D01*
X698912Y-28100000D01*
X398912Y-27400000D01*
X298912Y-27000000D01*
X298912Y-26500000D01*
X1898912Y-26500000D01*
X1898912Y-26600000D01*
G37*
X1898912Y-26600000D02*
X1998912Y-27000000D01*
X2198912Y-27400000D01*
X2598912Y-27800000D01*
X2998912Y-28000000D01*
X3398912Y-28100000D01*
X3498912Y-28100000D01*
X3498912Y-29724903D01*
X2998912Y-29700000D01*
X1998912Y-29400000D01*
X1198912Y-28800000D01*
X698912Y-28100000D01*
X398912Y-27400000D01*
X298912Y-27000000D01*
X298912Y-26500000D01*
X1898912Y-26500000D01*
X1898912Y-26600000D01*
D10*
G04 #@! TO.C,D1*
X13483912Y-69735000D02*
X13483912Y-68265000D01*
X13483912Y-68265000D02*
X11198912Y-68265000D01*
X11198912Y-69735000D02*
X13483912Y-69735000D01*
X38198912Y-55735000D02*
X40483912Y-55735000D01*
X40483912Y-55735000D02*
X40483912Y-54265000D01*
X40483912Y-54265000D02*
X38198912Y-54265000D01*
G04 #@! TO.C,H2*
X24723815Y-26500000D02*
G75*
G03*
X24723815Y-26500000I-3224903J0D01*
G01*
G36*
X19898912Y-26600000D02*
G01*
X19998912Y-27000000D01*
X20198912Y-27400000D01*
X20598912Y-27800000D01*
X20998912Y-28000000D01*
X21398912Y-28100000D01*
X21498912Y-28100000D01*
X21498912Y-29724903D01*
X20998912Y-29700000D01*
X19998912Y-29400000D01*
X19198912Y-28800000D01*
X18698912Y-28100000D01*
X18398912Y-27400000D01*
X18298912Y-27000000D01*
X18298912Y-26500000D01*
X19898912Y-26500000D01*
X19898912Y-26600000D01*
G37*
D12*
X19898912Y-26600000D02*
X19998912Y-27000000D01*
X20198912Y-27400000D01*
X20598912Y-27800000D01*
X20998912Y-28000000D01*
X21398912Y-28100000D01*
X21498912Y-28100000D01*
X21498912Y-29724903D01*
X20998912Y-29700000D01*
X19998912Y-29400000D01*
X19198912Y-28800000D01*
X18698912Y-28100000D01*
X18398912Y-27400000D01*
X18298912Y-27000000D01*
X18298912Y-26500000D01*
X19898912Y-26500000D01*
X19898912Y-26600000D01*
G36*
X21998912Y-23300000D02*
G01*
X22998912Y-23600000D01*
X23798912Y-24200000D01*
X24298912Y-24900000D01*
X24598912Y-25600000D01*
X24698912Y-26000000D01*
X24698912Y-26500000D01*
X23098912Y-26500000D01*
X23098912Y-26400000D01*
X22998912Y-26000000D01*
X22798912Y-25600000D01*
X22398912Y-25200000D01*
X21998912Y-25000000D01*
X21598912Y-24900000D01*
X21498912Y-24900000D01*
X21498912Y-23275097D01*
X21998912Y-23300000D01*
G37*
X21998912Y-23300000D02*
X22998912Y-23600000D01*
X23798912Y-24200000D01*
X24298912Y-24900000D01*
X24598912Y-25600000D01*
X24698912Y-26000000D01*
X24698912Y-26500000D01*
X23098912Y-26500000D01*
X23098912Y-26400000D01*
X22998912Y-26000000D01*
X22798912Y-25600000D01*
X22398912Y-25200000D01*
X21998912Y-25000000D01*
X21598912Y-24900000D01*
X21498912Y-24900000D01*
X21498912Y-23275097D01*
X21998912Y-23300000D01*
D10*
G04 #@! TO.C,H1*
X33723815Y-26500000D02*
G75*
G03*
X33723815Y-26500000I-3224903J0D01*
G01*
G36*
X28898912Y-26600000D02*
G01*
X28998912Y-27000000D01*
X29198912Y-27400000D01*
X29598912Y-27800000D01*
X29998912Y-28000000D01*
X30398912Y-28100000D01*
X30498912Y-28100000D01*
X30498912Y-29724903D01*
X29998912Y-29700000D01*
X28998912Y-29400000D01*
X28198912Y-28800000D01*
X27698912Y-28100000D01*
X27398912Y-27400000D01*
X27298912Y-27000000D01*
X27298912Y-26500000D01*
X28898912Y-26500000D01*
X28898912Y-26600000D01*
G37*
D12*
X28898912Y-26600000D02*
X28998912Y-27000000D01*
X29198912Y-27400000D01*
X29598912Y-27800000D01*
X29998912Y-28000000D01*
X30398912Y-28100000D01*
X30498912Y-28100000D01*
X30498912Y-29724903D01*
X29998912Y-29700000D01*
X28998912Y-29400000D01*
X28198912Y-28800000D01*
X27698912Y-28100000D01*
X27398912Y-27400000D01*
X27298912Y-27000000D01*
X27298912Y-26500000D01*
X28898912Y-26500000D01*
X28898912Y-26600000D01*
G36*
X30998912Y-23300000D02*
G01*
X31998912Y-23600000D01*
X32798912Y-24200000D01*
X33298912Y-24900000D01*
X33598912Y-25600000D01*
X33698912Y-26000000D01*
X33698912Y-26500000D01*
X32098912Y-26500000D01*
X32098912Y-26400000D01*
X31998912Y-26000000D01*
X31798912Y-25600000D01*
X31398912Y-25200000D01*
X30998912Y-25000000D01*
X30598912Y-24900000D01*
X30498912Y-24900000D01*
X30498912Y-23275097D01*
X30998912Y-23300000D01*
G37*
X30998912Y-23300000D02*
X31998912Y-23600000D01*
X32798912Y-24200000D01*
X33298912Y-24900000D01*
X33598912Y-25600000D01*
X33698912Y-26000000D01*
X33698912Y-26500000D01*
X32098912Y-26500000D01*
X32098912Y-26400000D01*
X31998912Y-26000000D01*
X31798912Y-25600000D01*
X31398912Y-25200000D01*
X30998912Y-25000000D01*
X30598912Y-24900000D01*
X30498912Y-24900000D01*
X30498912Y-23275097D01*
X30998912Y-23300000D01*
D10*
G04 #@! TO.C,H2*
X78723815Y-12500000D02*
G75*
G03*
X78723815Y-12500000I-3224903J0D01*
G01*
G36*
X73898912Y-12600000D02*
G01*
X73998912Y-13000000D01*
X74198912Y-13400000D01*
X74598912Y-13800000D01*
X74998912Y-14000000D01*
X75398912Y-14100000D01*
X75498912Y-14100000D01*
X75498912Y-15724903D01*
X74998912Y-15700000D01*
X73998912Y-15400000D01*
X73198912Y-14800000D01*
X72698912Y-14100000D01*
X72398912Y-13400000D01*
X72298912Y-13000000D01*
X72298912Y-12500000D01*
X73898912Y-12500000D01*
X73898912Y-12600000D01*
G37*
D12*
X73898912Y-12600000D02*
X73998912Y-13000000D01*
X74198912Y-13400000D01*
X74598912Y-13800000D01*
X74998912Y-14000000D01*
X75398912Y-14100000D01*
X75498912Y-14100000D01*
X75498912Y-15724903D01*
X74998912Y-15700000D01*
X73998912Y-15400000D01*
X73198912Y-14800000D01*
X72698912Y-14100000D01*
X72398912Y-13400000D01*
X72298912Y-13000000D01*
X72298912Y-12500000D01*
X73898912Y-12500000D01*
X73898912Y-12600000D01*
G36*
X75998912Y-9300000D02*
G01*
X76998912Y-9600000D01*
X77798912Y-10200000D01*
X78298912Y-10900000D01*
X78598912Y-11600000D01*
X78698912Y-12000000D01*
X78698912Y-12500000D01*
X77098912Y-12500000D01*
X77098912Y-12400000D01*
X76998912Y-12000000D01*
X76798912Y-11600000D01*
X76398912Y-11200000D01*
X75998912Y-11000000D01*
X75598912Y-10900000D01*
X75498912Y-10900000D01*
X75498912Y-9275097D01*
X75998912Y-9300000D01*
G37*
X75998912Y-9300000D02*
X76998912Y-9600000D01*
X77798912Y-10200000D01*
X78298912Y-10900000D01*
X78598912Y-11600000D01*
X78698912Y-12000000D01*
X78698912Y-12500000D01*
X77098912Y-12500000D01*
X77098912Y-12400000D01*
X76998912Y-12000000D01*
X76798912Y-11600000D01*
X76398912Y-11200000D01*
X75998912Y-11000000D01*
X75598912Y-10900000D01*
X75498912Y-10900000D01*
X75498912Y-9275097D01*
X75998912Y-9300000D01*
D10*
G04 #@! TO.C,J1*
X32798912Y-57800000D02*
X35198912Y-57800000D01*
X35198912Y-57800000D02*
X35198912Y-60200000D01*
X32798912Y-60200000D02*
X32798912Y-57800000D01*
X35198912Y-60200000D02*
X32798912Y-60200000D01*
G04 #@! TO.C,R2*
X66708912Y-71741422D02*
X66708912Y-72258578D01*
X65288912Y-71741422D02*
X65288912Y-72258578D01*
G04 #@! TO.C,D1*
X67483912Y-27735000D02*
X67483912Y-26265000D01*
X65198912Y-27735000D02*
X67483912Y-27735000D01*
X67483912Y-26265000D02*
X65198912Y-26265000D01*
G04 #@! TO.C,J2*
X19198912Y-17000000D02*
G75*
G03*
X19198912Y-17000000I-1200000J0D01*
G01*
G04 #@! TO.C,R1*
X67288912Y-71741422D02*
X67288912Y-72258578D01*
X68708912Y-71741422D02*
X68708912Y-72258578D01*
G04 #@! TO.C,D1*
X40483912Y-27735000D02*
X40483912Y-26265000D01*
X38198912Y-27735000D02*
X40483912Y-27735000D01*
X40483912Y-26265000D02*
X38198912Y-26265000D01*
G04 #@! TO.C,H2*
X24723815Y-54500000D02*
G75*
G03*
X24723815Y-54500000I-3224903J0D01*
G01*
G36*
X21998912Y-51300000D02*
G01*
X22998912Y-51600000D01*
X23798912Y-52200000D01*
X24298912Y-52900000D01*
X24598912Y-53600000D01*
X24698912Y-54000000D01*
X24698912Y-54500000D01*
X23098912Y-54500000D01*
X23098912Y-54400000D01*
X22998912Y-54000000D01*
X22798912Y-53600000D01*
X22398912Y-53200000D01*
X21998912Y-53000000D01*
X21598912Y-52900000D01*
X21498912Y-52900000D01*
X21498912Y-51275097D01*
X21998912Y-51300000D01*
G37*
D12*
X21998912Y-51300000D02*
X22998912Y-51600000D01*
X23798912Y-52200000D01*
X24298912Y-52900000D01*
X24598912Y-53600000D01*
X24698912Y-54000000D01*
X24698912Y-54500000D01*
X23098912Y-54500000D01*
X23098912Y-54400000D01*
X22998912Y-54000000D01*
X22798912Y-53600000D01*
X22398912Y-53200000D01*
X21998912Y-53000000D01*
X21598912Y-52900000D01*
X21498912Y-52900000D01*
X21498912Y-51275097D01*
X21998912Y-51300000D01*
G36*
X19898912Y-54600000D02*
G01*
X19998912Y-55000000D01*
X20198912Y-55400000D01*
X20598912Y-55800000D01*
X20998912Y-56000000D01*
X21398912Y-56100000D01*
X21498912Y-56100000D01*
X21498912Y-57724903D01*
X20998912Y-57700000D01*
X19998912Y-57400000D01*
X19198912Y-56800000D01*
X18698912Y-56100000D01*
X18398912Y-55400000D01*
X18298912Y-55000000D01*
X18298912Y-54500000D01*
X19898912Y-54500000D01*
X19898912Y-54600000D01*
G37*
X19898912Y-54600000D02*
X19998912Y-55000000D01*
X20198912Y-55400000D01*
X20598912Y-55800000D01*
X20998912Y-56000000D01*
X21398912Y-56100000D01*
X21498912Y-56100000D01*
X21498912Y-57724903D01*
X20998912Y-57700000D01*
X19998912Y-57400000D01*
X19198912Y-56800000D01*
X18698912Y-56100000D01*
X18398912Y-55400000D01*
X18298912Y-55000000D01*
X18298912Y-54500000D01*
X19898912Y-54500000D01*
X19898912Y-54600000D01*
D10*
G04 #@! TO.C,J2*
X73198912Y-17000000D02*
G75*
G03*
X73198912Y-17000000I-1200000J0D01*
G01*
X19198912Y-31000000D02*
G75*
G03*
X19198912Y-31000000I-1200000J0D01*
G01*
G04 #@! TO.C,R2*
X11288912Y-71741422D02*
X11288912Y-72258578D01*
X12708912Y-71741422D02*
X12708912Y-72258578D01*
G04 #@! TD*
M02*
