G04 #@! TF.GenerationSoftware,KiCad,Pcbnew,6.0.9-8da3e8f707~116~ubuntu20.04.1*
G04 #@! TF.CreationDate,2023-04-16T17:58:49+00:00*
G04 #@! TF.ProjectId,LEC005001,4c454330-3035-4303-9031-2e6b69636164,rev?*
G04 #@! TF.SameCoordinates,Original*
G04 #@! TF.FileFunction,Legend,Bot*
G04 #@! TF.FilePolarity,Positive*
%FSLAX46Y46*%
G04 Gerber Fmt 4.6, Leading zero omitted, Abs format (unit mm)*
G04 Created by KiCad (PCBNEW 6.0.9-8da3e8f707~116~ubuntu20.04.1) date 2023-04-16 17:58:49*
%MOMM*%
%LPD*%
G01*
G04 APERTURE LIST*
%ADD10C,0.120000*%
%ADD11C,0.010000*%
G04 APERTURE END LIST*
D10*
G04 #@! TO.C,H1*
X135724903Y-91500000D02*
G75*
G03*
X135724903Y-91500000I-3224903J0D01*
G01*
G36*
X133000000Y-88300000D02*
G01*
X134000000Y-88600000D01*
X134800000Y-89200000D01*
X135300000Y-89900000D01*
X135600000Y-90600000D01*
X135700000Y-91000000D01*
X135700000Y-91500000D01*
X134100000Y-91500000D01*
X134100000Y-91400000D01*
X134000000Y-91000000D01*
X133800000Y-90600000D01*
X133400000Y-90200000D01*
X133000000Y-90000000D01*
X132600000Y-89900000D01*
X132500000Y-89900000D01*
X132500000Y-88275097D01*
X133000000Y-88300000D01*
G37*
D11*
X133000000Y-88300000D02*
X134000000Y-88600000D01*
X134800000Y-89200000D01*
X135300000Y-89900000D01*
X135600000Y-90600000D01*
X135700000Y-91000000D01*
X135700000Y-91500000D01*
X134100000Y-91500000D01*
X134100000Y-91400000D01*
X134000000Y-91000000D01*
X133800000Y-90600000D01*
X133400000Y-90200000D01*
X133000000Y-90000000D01*
X132600000Y-89900000D01*
X132500000Y-89900000D01*
X132500000Y-88275097D01*
X133000000Y-88300000D01*
G36*
X130900000Y-91600000D02*
G01*
X131000000Y-92000000D01*
X131200000Y-92400000D01*
X131600000Y-92800000D01*
X132000000Y-93000000D01*
X132400000Y-93100000D01*
X132500000Y-93100000D01*
X132500000Y-94724903D01*
X132000000Y-94700000D01*
X131000000Y-94400000D01*
X130200000Y-93800000D01*
X129700000Y-93100000D01*
X129400000Y-92400000D01*
X129300000Y-92000000D01*
X129300000Y-91500000D01*
X130900000Y-91500000D01*
X130900000Y-91600000D01*
G37*
X130900000Y-91600000D02*
X131000000Y-92000000D01*
X131200000Y-92400000D01*
X131600000Y-92800000D01*
X132000000Y-93000000D01*
X132400000Y-93100000D01*
X132500000Y-93100000D01*
X132500000Y-94724903D01*
X132000000Y-94700000D01*
X131000000Y-94400000D01*
X130200000Y-93800000D01*
X129700000Y-93100000D01*
X129400000Y-92400000D01*
X129300000Y-92000000D01*
X129300000Y-91500000D01*
X130900000Y-91500000D01*
X130900000Y-91600000D01*
D10*
G04 #@! TO.C,H2*
X153724903Y-91500000D02*
G75*
G03*
X153724903Y-91500000I-3224903J0D01*
G01*
G36*
X148900000Y-91600000D02*
G01*
X149000000Y-92000000D01*
X149200000Y-92400000D01*
X149600000Y-92800000D01*
X150000000Y-93000000D01*
X150400000Y-93100000D01*
X150500000Y-93100000D01*
X150500000Y-94724903D01*
X150000000Y-94700000D01*
X149000000Y-94400000D01*
X148200000Y-93800000D01*
X147700000Y-93100000D01*
X147400000Y-92400000D01*
X147300000Y-92000000D01*
X147300000Y-91500000D01*
X148900000Y-91500000D01*
X148900000Y-91600000D01*
G37*
D11*
X148900000Y-91600000D02*
X149000000Y-92000000D01*
X149200000Y-92400000D01*
X149600000Y-92800000D01*
X150000000Y-93000000D01*
X150400000Y-93100000D01*
X150500000Y-93100000D01*
X150500000Y-94724903D01*
X150000000Y-94700000D01*
X149000000Y-94400000D01*
X148200000Y-93800000D01*
X147700000Y-93100000D01*
X147400000Y-92400000D01*
X147300000Y-92000000D01*
X147300000Y-91500000D01*
X148900000Y-91500000D01*
X148900000Y-91600000D01*
G36*
X151000000Y-88300000D02*
G01*
X152000000Y-88600000D01*
X152800000Y-89200000D01*
X153300000Y-89900000D01*
X153600000Y-90600000D01*
X153700000Y-91000000D01*
X153700000Y-91500000D01*
X152100000Y-91500000D01*
X152100000Y-91400000D01*
X152000000Y-91000000D01*
X151800000Y-90600000D01*
X151400000Y-90200000D01*
X151000000Y-90000000D01*
X150600000Y-89900000D01*
X150500000Y-89900000D01*
X150500000Y-88275097D01*
X151000000Y-88300000D01*
G37*
X151000000Y-88300000D02*
X152000000Y-88600000D01*
X152800000Y-89200000D01*
X153300000Y-89900000D01*
X153600000Y-90600000D01*
X153700000Y-91000000D01*
X153700000Y-91500000D01*
X152100000Y-91500000D01*
X152100000Y-91400000D01*
X152000000Y-91000000D01*
X151800000Y-90600000D01*
X151400000Y-90200000D01*
X151000000Y-90000000D01*
X150600000Y-89900000D01*
X150500000Y-89900000D01*
X150500000Y-88275097D01*
X151000000Y-88300000D01*
G04 #@! TO.C,REF\u002A\u002A*
G36*
X143272971Y-95017822D02*
G01*
X139752178Y-95017822D01*
X139752178Y-94150198D01*
X143272971Y-94150198D01*
X143272971Y-95017822D01*
G37*
X143272971Y-95017822D02*
X139752178Y-95017822D01*
X139752178Y-94150198D01*
X143272971Y-94150198D01*
X143272971Y-95017822D01*
G36*
X142511662Y-89760696D02*
G01*
X142551314Y-89761782D01*
X142619109Y-89761782D01*
X142619109Y-89874951D01*
X142459577Y-89874951D01*
X142444682Y-90052732D01*
X142442682Y-90077037D01*
X142438023Y-90137880D01*
X142434731Y-90187389D01*
X142433092Y-90220992D01*
X142433390Y-90234116D01*
X142437724Y-90230343D01*
X142457496Y-90210676D01*
X142491679Y-90175818D01*
X142538541Y-90127576D01*
X142596354Y-90067757D01*
X142663387Y-89998167D01*
X142737912Y-89920615D01*
X142818197Y-89836907D01*
X142902513Y-89748849D01*
X142989130Y-89658250D01*
X143076319Y-89566915D01*
X143162349Y-89476653D01*
X143245492Y-89389269D01*
X143324016Y-89306572D01*
X143396192Y-89230368D01*
X143460291Y-89162463D01*
X143514583Y-89104666D01*
X143611592Y-89001040D01*
X143612034Y-89089315D01*
X143612475Y-89177589D01*
X143011938Y-89809158D01*
X142411401Y-90440726D01*
X142399396Y-90584674D01*
X142351365Y-91160635D01*
X142342876Y-91262791D01*
X142332343Y-91390612D01*
X142322621Y-91509767D01*
X142313898Y-91617914D01*
X142306358Y-91712713D01*
X142300187Y-91791819D01*
X142295573Y-91852892D01*
X142292700Y-91893590D01*
X142291754Y-91911570D01*
X142294251Y-91919808D01*
X142305471Y-91937599D01*
X142326751Y-91964411D01*
X142337021Y-91976129D01*
X142359225Y-92001466D01*
X142404023Y-92049986D01*
X142462281Y-92111192D01*
X142535129Y-92186307D01*
X142623703Y-92276550D01*
X142729134Y-92383145D01*
X142798492Y-92453093D01*
X142895179Y-92550658D01*
X142991526Y-92647941D01*
X143084638Y-92742014D01*
X143171618Y-92829950D01*
X143249569Y-92908820D01*
X143315596Y-92975699D01*
X143366802Y-93027658D01*
X143567514Y-93231620D01*
X143531058Y-93269671D01*
X143522460Y-93278245D01*
X143497095Y-93299297D01*
X143479695Y-93307723D01*
X143466071Y-93300530D01*
X143440743Y-93278944D01*
X143410379Y-93247995D01*
X143391896Y-93228448D01*
X143357427Y-93192752D01*
X143308712Y-93142684D01*
X143247469Y-93080001D01*
X143175420Y-93006457D01*
X143094285Y-92923810D01*
X143005784Y-92833815D01*
X142911637Y-92738228D01*
X142813565Y-92638805D01*
X142271161Y-92089343D01*
X142249066Y-92374746D01*
X142244250Y-92435662D01*
X142237216Y-92517548D01*
X142230872Y-92579569D01*
X142224748Y-92624987D01*
X142218373Y-92657062D01*
X142211277Y-92679052D01*
X142202991Y-92694219D01*
X142191393Y-92715416D01*
X142181850Y-92754386D01*
X142179010Y-92810531D01*
X142179010Y-92892773D01*
X141952674Y-92892773D01*
X141952674Y-92716733D01*
X141107082Y-92716733D01*
X141058203Y-92772262D01*
X141044836Y-92786722D01*
X140972388Y-92844813D01*
X140890532Y-92880576D01*
X140801900Y-92892773D01*
X140723692Y-92886306D01*
X140635233Y-92859047D01*
X140559507Y-92810328D01*
X140544748Y-92796403D01*
X140507864Y-92751328D01*
X140475503Y-92698819D01*
X140452297Y-92647061D01*
X140442879Y-92604239D01*
X140442697Y-92598023D01*
X140441342Y-92575246D01*
X140437800Y-92559513D01*
X140430390Y-92552068D01*
X140417431Y-92554156D01*
X140397243Y-92567020D01*
X140368145Y-92591905D01*
X140328456Y-92630053D01*
X140276496Y-92682710D01*
X140210584Y-92751119D01*
X140129040Y-92836524D01*
X140085604Y-92882112D01*
X140013000Y-92958441D01*
X139944309Y-93030808D01*
X139882223Y-93096366D01*
X139829434Y-93152274D01*
X139788634Y-93195686D01*
X139762515Y-93223758D01*
X139691119Y-93301436D01*
X139602863Y-93213416D01*
X140148690Y-92641287D01*
X140183105Y-92605188D01*
X140305546Y-92476272D01*
X140410651Y-92364754D01*
X140498736Y-92270288D01*
X140570116Y-92192529D01*
X140620588Y-92136174D01*
X140827247Y-92136174D01*
X140828872Y-92149434D01*
X140829156Y-92150819D01*
X140842698Y-92182228D01*
X140869748Y-92196863D01*
X140953129Y-92228063D01*
X141027418Y-92280038D01*
X141085846Y-92348791D01*
X141125890Y-92431315D01*
X141145026Y-92524606D01*
X141151364Y-92603565D01*
X142100838Y-92603565D01*
X142107458Y-92575273D01*
X142108629Y-92568329D01*
X142112268Y-92537281D01*
X142117234Y-92487081D01*
X142123157Y-92421727D01*
X142129669Y-92345219D01*
X142136401Y-92261555D01*
X142158724Y-91976129D01*
X141857826Y-91670565D01*
X141802636Y-91614704D01*
X141735109Y-91546888D01*
X141674529Y-91486643D01*
X141623021Y-91436052D01*
X141582710Y-91397200D01*
X141555722Y-91372170D01*
X141544182Y-91363046D01*
X141536444Y-91367405D01*
X141513395Y-91387241D01*
X141478709Y-91420375D01*
X141435487Y-91463820D01*
X141386832Y-91514587D01*
X141374140Y-91528051D01*
X141317229Y-91588275D01*
X141249414Y-91659864D01*
X141175800Y-91737437D01*
X141101493Y-91815611D01*
X141031599Y-91889005D01*
X141027401Y-91893409D01*
X140962420Y-91961785D01*
X140912836Y-92014732D01*
X140876688Y-92054767D01*
X140852016Y-92084411D01*
X140836858Y-92106181D01*
X140829256Y-92122595D01*
X140827247Y-92136174D01*
X140620588Y-92136174D01*
X140625105Y-92131131D01*
X140664019Y-92085748D01*
X140687173Y-92056035D01*
X140694882Y-92041644D01*
X140694883Y-92041559D01*
X140693825Y-92023624D01*
X140690737Y-91983421D01*
X140685858Y-91923687D01*
X140679432Y-91847158D01*
X140671700Y-91756569D01*
X140662905Y-91654657D01*
X140653287Y-91544159D01*
X140643091Y-91427811D01*
X140632556Y-91308348D01*
X140621926Y-91188507D01*
X140611442Y-91071025D01*
X140601346Y-90958637D01*
X140591881Y-90854081D01*
X140583288Y-90760091D01*
X140575809Y-90679405D01*
X140569687Y-90614759D01*
X140565162Y-90568888D01*
X140562478Y-90544530D01*
X140557067Y-90503732D01*
X140686253Y-90503732D01*
X140687908Y-90534653D01*
X140691549Y-90586653D01*
X140696995Y-90657487D01*
X140704063Y-90744911D01*
X140712570Y-90846681D01*
X140722335Y-90960552D01*
X140733174Y-91084279D01*
X140744907Y-91215618D01*
X140754079Y-91316908D01*
X140765566Y-91442526D01*
X140776322Y-91558762D01*
X140786131Y-91663380D01*
X140794781Y-91754140D01*
X140802057Y-91828804D01*
X140807746Y-91885134D01*
X140811634Y-91920891D01*
X140813506Y-91933837D01*
X140819188Y-91929826D01*
X140840020Y-91910138D01*
X140873872Y-91876322D01*
X140918412Y-91830837D01*
X140971310Y-91776146D01*
X141030236Y-91714710D01*
X141092858Y-91648990D01*
X141156848Y-91581449D01*
X141219874Y-91514547D01*
X141279606Y-91450746D01*
X141333713Y-91392507D01*
X141379865Y-91342292D01*
X141415733Y-91302563D01*
X141438984Y-91275780D01*
X141445778Y-91266477D01*
X141627601Y-91266477D01*
X141903305Y-91541968D01*
X141970726Y-91609224D01*
X142034267Y-91672162D01*
X142083490Y-91720100D01*
X142120196Y-91754594D01*
X142146190Y-91777199D01*
X142163276Y-91789471D01*
X142173256Y-91792966D01*
X142177935Y-91789238D01*
X142179116Y-91779844D01*
X142179873Y-91764749D01*
X142182601Y-91725883D01*
X142187108Y-91666895D01*
X142193179Y-91590473D01*
X142200596Y-91499305D01*
X142209142Y-91396080D01*
X142218602Y-91283483D01*
X142228758Y-91164205D01*
X142237723Y-91059077D01*
X142247066Y-90948351D01*
X142255443Y-90847814D01*
X142262653Y-90759943D01*
X142268496Y-90687215D01*
X142272769Y-90632110D01*
X142275273Y-90597104D01*
X142275805Y-90584674D01*
X142275384Y-90584908D01*
X142263509Y-90596350D01*
X142237130Y-90623198D01*
X142198570Y-90663018D01*
X142150153Y-90713372D01*
X142094203Y-90771828D01*
X142033042Y-90835948D01*
X141968995Y-90903298D01*
X141904385Y-90971443D01*
X141841535Y-91037948D01*
X141782768Y-91100377D01*
X141730409Y-91156295D01*
X141629533Y-91264406D01*
X141627601Y-91266477D01*
X141445778Y-91266477D01*
X141447290Y-91264406D01*
X141439148Y-91253383D01*
X141415478Y-91226999D01*
X141378478Y-91187527D01*
X141330350Y-91137191D01*
X141273296Y-91078217D01*
X141209520Y-91012830D01*
X141141222Y-90943255D01*
X141070605Y-90871716D01*
X140999871Y-90800438D01*
X140931222Y-90731647D01*
X140866861Y-90667566D01*
X140808989Y-90610422D01*
X140759810Y-90562439D01*
X140721524Y-90525841D01*
X140696334Y-90502854D01*
X140686442Y-90495703D01*
X140686253Y-90503732D01*
X140557067Y-90503732D01*
X140555390Y-90491089D01*
X140280297Y-90491089D01*
X140280140Y-90390495D01*
X140380891Y-90390495D01*
X140462624Y-90390495D01*
X140469895Y-90390489D01*
X140510950Y-90389613D01*
X140533277Y-90385867D01*
X140542529Y-90377270D01*
X140544357Y-90361840D01*
X140536306Y-90339159D01*
X140508730Y-90301428D01*
X140462624Y-90252179D01*
X140380891Y-90171172D01*
X140380891Y-90390495D01*
X140280140Y-90390495D01*
X140279968Y-90280471D01*
X140279639Y-90069852D01*
X139827914Y-89610891D01*
X139376189Y-89151931D01*
X139375570Y-89064848D01*
X139374951Y-88977767D01*
X139916769Y-89526952D01*
X139969137Y-89579998D01*
X140077803Y-89689772D01*
X140170709Y-89783114D01*
X140249055Y-89861173D01*
X140314043Y-89925097D01*
X140366872Y-89976035D01*
X140408743Y-90015135D01*
X140440855Y-90043548D01*
X140464410Y-90062420D01*
X140480608Y-90072901D01*
X140490649Y-90076139D01*
X140507579Y-90075158D01*
X140517084Y-90067996D01*
X140518723Y-90048401D01*
X140514782Y-90010124D01*
X140512065Y-89986025D01*
X140508284Y-89945744D01*
X140506760Y-89918961D01*
X140506015Y-89909728D01*
X140498746Y-89899839D01*
X140478668Y-89896562D01*
X140439689Y-89897992D01*
X140429737Y-89898553D01*
X140389898Y-89897921D01*
X140361560Y-89889167D01*
X140341586Y-89874951D01*
X140624852Y-89874951D01*
X140629013Y-89922104D01*
X140630935Y-89943498D01*
X140636924Y-90001909D01*
X140642826Y-90040381D01*
X140649727Y-90062912D01*
X140658712Y-90073498D01*
X140670870Y-90076139D01*
X140681801Y-90077937D01*
X140689050Y-90086530D01*
X140693100Y-90106505D01*
X140694863Y-90142450D01*
X140695248Y-90198952D01*
X140695248Y-90321766D01*
X140735447Y-90361840D01*
X140833565Y-90459654D01*
X140971881Y-90597542D01*
X140971881Y-90491089D01*
X141726337Y-90491089D01*
X141726337Y-90730000D01*
X141107831Y-90730000D01*
X141317592Y-90946906D01*
X141357770Y-90988334D01*
X141413328Y-91045200D01*
X141461570Y-91094082D01*
X141499971Y-91132441D01*
X141526003Y-91157741D01*
X141537140Y-91167442D01*
X141541373Y-91164767D01*
X141561224Y-91146782D01*
X141595451Y-91113481D01*
X141642227Y-91066712D01*
X141699724Y-91008325D01*
X141766112Y-90940169D01*
X141839564Y-90864094D01*
X141918251Y-90781950D01*
X141997341Y-90698943D01*
X142074871Y-90617136D01*
X142137746Y-90550083D01*
X142187502Y-90496007D01*
X142225678Y-90453129D01*
X142253811Y-90419673D01*
X142273440Y-90393861D01*
X142286101Y-90373914D01*
X142293334Y-90358056D01*
X142296675Y-90344509D01*
X142297561Y-90337910D01*
X142301488Y-90301548D01*
X142306459Y-90248018D01*
X142311927Y-90183421D01*
X142317344Y-90113862D01*
X142319181Y-90089635D01*
X142324488Y-90024178D01*
X142329548Y-89967717D01*
X142333863Y-89925618D01*
X142336934Y-89903243D01*
X142342955Y-89874951D01*
X140624852Y-89874951D01*
X140341586Y-89874951D01*
X140333630Y-89869289D01*
X140328820Y-89865104D01*
X140289482Y-89814427D01*
X140273903Y-89761782D01*
X140614698Y-89761782D01*
X142029221Y-89761782D01*
X142241881Y-89761782D01*
X142298908Y-89761782D01*
X142315993Y-89761662D01*
X142341308Y-89759462D01*
X142348616Y-89752334D01*
X142342943Y-89737508D01*
X142341267Y-89734682D01*
X142322448Y-89712944D01*
X142295183Y-89688820D01*
X142267987Y-89669254D01*
X142249371Y-89661188D01*
X142247697Y-89662463D01*
X142243544Y-89679976D01*
X142241881Y-89711485D01*
X142241881Y-89761782D01*
X142029221Y-89761782D01*
X142025526Y-89671095D01*
X142021832Y-89580407D01*
X141946386Y-89565252D01*
X141908551Y-89558379D01*
X141845368Y-89548756D01*
X141786065Y-89541496D01*
X141701188Y-89532893D01*
X141701188Y-89636040D01*
X141122773Y-89636040D01*
X141122773Y-89545122D01*
X141050471Y-89553753D01*
X140939998Y-89572249D01*
X140828816Y-89605691D01*
X140736850Y-89652324D01*
X140662542Y-89712786D01*
X140614698Y-89761782D01*
X140273903Y-89761782D01*
X140272172Y-89755934D01*
X140277474Y-89694575D01*
X140305975Y-89635297D01*
X140308733Y-89631606D01*
X140346822Y-89599851D01*
X140396476Y-89581067D01*
X140450002Y-89576071D01*
X140499707Y-89585678D01*
X140537900Y-89610704D01*
X140550831Y-89623480D01*
X140563428Y-89626576D01*
X140581467Y-89616998D01*
X140611928Y-89593082D01*
X140621274Y-89585731D01*
X140693430Y-89539339D01*
X140778915Y-89498084D01*
X140848830Y-89472575D01*
X141223367Y-89472575D01*
X141223367Y-89535446D01*
X141600594Y-89535446D01*
X141600594Y-89472575D01*
X141223367Y-89472575D01*
X140848830Y-89472575D01*
X140869767Y-89464936D01*
X140958027Y-89442868D01*
X141035736Y-89434852D01*
X141043991Y-89434788D01*
X141089879Y-89430321D01*
X141115079Y-89417795D01*
X141122773Y-89395784D01*
X141123676Y-89388849D01*
X141128615Y-89382885D01*
X141140611Y-89378519D01*
X141162680Y-89375503D01*
X141197836Y-89373590D01*
X141249094Y-89372530D01*
X141319471Y-89372077D01*
X141411980Y-89371980D01*
X141498660Y-89372150D01*
X141572332Y-89372834D01*
X141626265Y-89374215D01*
X141663288Y-89376470D01*
X141686230Y-89379778D01*
X141697920Y-89384320D01*
X141701188Y-89390272D01*
X141711937Y-89404888D01*
X141742055Y-89414215D01*
X141753582Y-89415847D01*
X141792886Y-89421591D01*
X141845188Y-89429378D01*
X141902376Y-89438003D01*
X141933916Y-89442393D01*
X141980074Y-89447148D01*
X142012641Y-89448295D01*
X142026023Y-89445495D01*
X142028308Y-89443671D01*
X142049405Y-89439165D01*
X142087355Y-89436029D01*
X142136048Y-89434852D01*
X142241881Y-89434852D01*
X142241894Y-89472575D01*
X142241894Y-89475718D01*
X142242388Y-89488668D01*
X142248819Y-89510411D01*
X142267123Y-89528851D01*
X142302830Y-89550801D01*
X142334174Y-89570854D01*
X142381893Y-89609356D01*
X142425138Y-89652579D01*
X142458219Y-89694627D01*
X142475442Y-89729604D01*
X142479662Y-89743081D01*
X142487480Y-89752334D01*
X142490116Y-89755454D01*
X142511662Y-89760696D01*
G37*
X142511662Y-89760696D02*
X142551314Y-89761782D01*
X142619109Y-89761782D01*
X142619109Y-89874951D01*
X142459577Y-89874951D01*
X142444682Y-90052732D01*
X142442682Y-90077037D01*
X142438023Y-90137880D01*
X142434731Y-90187389D01*
X142433092Y-90220992D01*
X142433390Y-90234116D01*
X142437724Y-90230343D01*
X142457496Y-90210676D01*
X142491679Y-90175818D01*
X142538541Y-90127576D01*
X142596354Y-90067757D01*
X142663387Y-89998167D01*
X142737912Y-89920615D01*
X142818197Y-89836907D01*
X142902513Y-89748849D01*
X142989130Y-89658250D01*
X143076319Y-89566915D01*
X143162349Y-89476653D01*
X143245492Y-89389269D01*
X143324016Y-89306572D01*
X143396192Y-89230368D01*
X143460291Y-89162463D01*
X143514583Y-89104666D01*
X143611592Y-89001040D01*
X143612034Y-89089315D01*
X143612475Y-89177589D01*
X143011938Y-89809158D01*
X142411401Y-90440726D01*
X142399396Y-90584674D01*
X142351365Y-91160635D01*
X142342876Y-91262791D01*
X142332343Y-91390612D01*
X142322621Y-91509767D01*
X142313898Y-91617914D01*
X142306358Y-91712713D01*
X142300187Y-91791819D01*
X142295573Y-91852892D01*
X142292700Y-91893590D01*
X142291754Y-91911570D01*
X142294251Y-91919808D01*
X142305471Y-91937599D01*
X142326751Y-91964411D01*
X142337021Y-91976129D01*
X142359225Y-92001466D01*
X142404023Y-92049986D01*
X142462281Y-92111192D01*
X142535129Y-92186307D01*
X142623703Y-92276550D01*
X142729134Y-92383145D01*
X142798492Y-92453093D01*
X142895179Y-92550658D01*
X142991526Y-92647941D01*
X143084638Y-92742014D01*
X143171618Y-92829950D01*
X143249569Y-92908820D01*
X143315596Y-92975699D01*
X143366802Y-93027658D01*
X143567514Y-93231620D01*
X143531058Y-93269671D01*
X143522460Y-93278245D01*
X143497095Y-93299297D01*
X143479695Y-93307723D01*
X143466071Y-93300530D01*
X143440743Y-93278944D01*
X143410379Y-93247995D01*
X143391896Y-93228448D01*
X143357427Y-93192752D01*
X143308712Y-93142684D01*
X143247469Y-93080001D01*
X143175420Y-93006457D01*
X143094285Y-92923810D01*
X143005784Y-92833815D01*
X142911637Y-92738228D01*
X142813565Y-92638805D01*
X142271161Y-92089343D01*
X142249066Y-92374746D01*
X142244250Y-92435662D01*
X142237216Y-92517548D01*
X142230872Y-92579569D01*
X142224748Y-92624987D01*
X142218373Y-92657062D01*
X142211277Y-92679052D01*
X142202991Y-92694219D01*
X142191393Y-92715416D01*
X142181850Y-92754386D01*
X142179010Y-92810531D01*
X142179010Y-92892773D01*
X141952674Y-92892773D01*
X141952674Y-92716733D01*
X141107082Y-92716733D01*
X141058203Y-92772262D01*
X141044836Y-92786722D01*
X140972388Y-92844813D01*
X140890532Y-92880576D01*
X140801900Y-92892773D01*
X140723692Y-92886306D01*
X140635233Y-92859047D01*
X140559507Y-92810328D01*
X140544748Y-92796403D01*
X140507864Y-92751328D01*
X140475503Y-92698819D01*
X140452297Y-92647061D01*
X140442879Y-92604239D01*
X140442697Y-92598023D01*
X140441342Y-92575246D01*
X140437800Y-92559513D01*
X140430390Y-92552068D01*
X140417431Y-92554156D01*
X140397243Y-92567020D01*
X140368145Y-92591905D01*
X140328456Y-92630053D01*
X140276496Y-92682710D01*
X140210584Y-92751119D01*
X140129040Y-92836524D01*
X140085604Y-92882112D01*
X140013000Y-92958441D01*
X139944309Y-93030808D01*
X139882223Y-93096366D01*
X139829434Y-93152274D01*
X139788634Y-93195686D01*
X139762515Y-93223758D01*
X139691119Y-93301436D01*
X139602863Y-93213416D01*
X140148690Y-92641287D01*
X140183105Y-92605188D01*
X140305546Y-92476272D01*
X140410651Y-92364754D01*
X140498736Y-92270288D01*
X140570116Y-92192529D01*
X140620588Y-92136174D01*
X140827247Y-92136174D01*
X140828872Y-92149434D01*
X140829156Y-92150819D01*
X140842698Y-92182228D01*
X140869748Y-92196863D01*
X140953129Y-92228063D01*
X141027418Y-92280038D01*
X141085846Y-92348791D01*
X141125890Y-92431315D01*
X141145026Y-92524606D01*
X141151364Y-92603565D01*
X142100838Y-92603565D01*
X142107458Y-92575273D01*
X142108629Y-92568329D01*
X142112268Y-92537281D01*
X142117234Y-92487081D01*
X142123157Y-92421727D01*
X142129669Y-92345219D01*
X142136401Y-92261555D01*
X142158724Y-91976129D01*
X141857826Y-91670565D01*
X141802636Y-91614704D01*
X141735109Y-91546888D01*
X141674529Y-91486643D01*
X141623021Y-91436052D01*
X141582710Y-91397200D01*
X141555722Y-91372170D01*
X141544182Y-91363046D01*
X141536444Y-91367405D01*
X141513395Y-91387241D01*
X141478709Y-91420375D01*
X141435487Y-91463820D01*
X141386832Y-91514587D01*
X141374140Y-91528051D01*
X141317229Y-91588275D01*
X141249414Y-91659864D01*
X141175800Y-91737437D01*
X141101493Y-91815611D01*
X141031599Y-91889005D01*
X141027401Y-91893409D01*
X140962420Y-91961785D01*
X140912836Y-92014732D01*
X140876688Y-92054767D01*
X140852016Y-92084411D01*
X140836858Y-92106181D01*
X140829256Y-92122595D01*
X140827247Y-92136174D01*
X140620588Y-92136174D01*
X140625105Y-92131131D01*
X140664019Y-92085748D01*
X140687173Y-92056035D01*
X140694882Y-92041644D01*
X140694883Y-92041559D01*
X140693825Y-92023624D01*
X140690737Y-91983421D01*
X140685858Y-91923687D01*
X140679432Y-91847158D01*
X140671700Y-91756569D01*
X140662905Y-91654657D01*
X140653287Y-91544159D01*
X140643091Y-91427811D01*
X140632556Y-91308348D01*
X140621926Y-91188507D01*
X140611442Y-91071025D01*
X140601346Y-90958637D01*
X140591881Y-90854081D01*
X140583288Y-90760091D01*
X140575809Y-90679405D01*
X140569687Y-90614759D01*
X140565162Y-90568888D01*
X140562478Y-90544530D01*
X140557067Y-90503732D01*
X140686253Y-90503732D01*
X140687908Y-90534653D01*
X140691549Y-90586653D01*
X140696995Y-90657487D01*
X140704063Y-90744911D01*
X140712570Y-90846681D01*
X140722335Y-90960552D01*
X140733174Y-91084279D01*
X140744907Y-91215618D01*
X140754079Y-91316908D01*
X140765566Y-91442526D01*
X140776322Y-91558762D01*
X140786131Y-91663380D01*
X140794781Y-91754140D01*
X140802057Y-91828804D01*
X140807746Y-91885134D01*
X140811634Y-91920891D01*
X140813506Y-91933837D01*
X140819188Y-91929826D01*
X140840020Y-91910138D01*
X140873872Y-91876322D01*
X140918412Y-91830837D01*
X140971310Y-91776146D01*
X141030236Y-91714710D01*
X141092858Y-91648990D01*
X141156848Y-91581449D01*
X141219874Y-91514547D01*
X141279606Y-91450746D01*
X141333713Y-91392507D01*
X141379865Y-91342292D01*
X141415733Y-91302563D01*
X141438984Y-91275780D01*
X141445778Y-91266477D01*
X141627601Y-91266477D01*
X141903305Y-91541968D01*
X141970726Y-91609224D01*
X142034267Y-91672162D01*
X142083490Y-91720100D01*
X142120196Y-91754594D01*
X142146190Y-91777199D01*
X142163276Y-91789471D01*
X142173256Y-91792966D01*
X142177935Y-91789238D01*
X142179116Y-91779844D01*
X142179873Y-91764749D01*
X142182601Y-91725883D01*
X142187108Y-91666895D01*
X142193179Y-91590473D01*
X142200596Y-91499305D01*
X142209142Y-91396080D01*
X142218602Y-91283483D01*
X142228758Y-91164205D01*
X142237723Y-91059077D01*
X142247066Y-90948351D01*
X142255443Y-90847814D01*
X142262653Y-90759943D01*
X142268496Y-90687215D01*
X142272769Y-90632110D01*
X142275273Y-90597104D01*
X142275805Y-90584674D01*
X142275384Y-90584908D01*
X142263509Y-90596350D01*
X142237130Y-90623198D01*
X142198570Y-90663018D01*
X142150153Y-90713372D01*
X142094203Y-90771828D01*
X142033042Y-90835948D01*
X141968995Y-90903298D01*
X141904385Y-90971443D01*
X141841535Y-91037948D01*
X141782768Y-91100377D01*
X141730409Y-91156295D01*
X141629533Y-91264406D01*
X141627601Y-91266477D01*
X141445778Y-91266477D01*
X141447290Y-91264406D01*
X141439148Y-91253383D01*
X141415478Y-91226999D01*
X141378478Y-91187527D01*
X141330350Y-91137191D01*
X141273296Y-91078217D01*
X141209520Y-91012830D01*
X141141222Y-90943255D01*
X141070605Y-90871716D01*
X140999871Y-90800438D01*
X140931222Y-90731647D01*
X140866861Y-90667566D01*
X140808989Y-90610422D01*
X140759810Y-90562439D01*
X140721524Y-90525841D01*
X140696334Y-90502854D01*
X140686442Y-90495703D01*
X140686253Y-90503732D01*
X140557067Y-90503732D01*
X140555390Y-90491089D01*
X140280297Y-90491089D01*
X140280140Y-90390495D01*
X140380891Y-90390495D01*
X140462624Y-90390495D01*
X140469895Y-90390489D01*
X140510950Y-90389613D01*
X140533277Y-90385867D01*
X140542529Y-90377270D01*
X140544357Y-90361840D01*
X140536306Y-90339159D01*
X140508730Y-90301428D01*
X140462624Y-90252179D01*
X140380891Y-90171172D01*
X140380891Y-90390495D01*
X140280140Y-90390495D01*
X140279968Y-90280471D01*
X140279639Y-90069852D01*
X139827914Y-89610891D01*
X139376189Y-89151931D01*
X139375570Y-89064848D01*
X139374951Y-88977767D01*
X139916769Y-89526952D01*
X139969137Y-89579998D01*
X140077803Y-89689772D01*
X140170709Y-89783114D01*
X140249055Y-89861173D01*
X140314043Y-89925097D01*
X140366872Y-89976035D01*
X140408743Y-90015135D01*
X140440855Y-90043548D01*
X140464410Y-90062420D01*
X140480608Y-90072901D01*
X140490649Y-90076139D01*
X140507579Y-90075158D01*
X140517084Y-90067996D01*
X140518723Y-90048401D01*
X140514782Y-90010124D01*
X140512065Y-89986025D01*
X140508284Y-89945744D01*
X140506760Y-89918961D01*
X140506015Y-89909728D01*
X140498746Y-89899839D01*
X140478668Y-89896562D01*
X140439689Y-89897992D01*
X140429737Y-89898553D01*
X140389898Y-89897921D01*
X140361560Y-89889167D01*
X140341586Y-89874951D01*
X140624852Y-89874951D01*
X140629013Y-89922104D01*
X140630935Y-89943498D01*
X140636924Y-90001909D01*
X140642826Y-90040381D01*
X140649727Y-90062912D01*
X140658712Y-90073498D01*
X140670870Y-90076139D01*
X140681801Y-90077937D01*
X140689050Y-90086530D01*
X140693100Y-90106505D01*
X140694863Y-90142450D01*
X140695248Y-90198952D01*
X140695248Y-90321766D01*
X140735447Y-90361840D01*
X140833565Y-90459654D01*
X140971881Y-90597542D01*
X140971881Y-90491089D01*
X141726337Y-90491089D01*
X141726337Y-90730000D01*
X141107831Y-90730000D01*
X141317592Y-90946906D01*
X141357770Y-90988334D01*
X141413328Y-91045200D01*
X141461570Y-91094082D01*
X141499971Y-91132441D01*
X141526003Y-91157741D01*
X141537140Y-91167442D01*
X141541373Y-91164767D01*
X141561224Y-91146782D01*
X141595451Y-91113481D01*
X141642227Y-91066712D01*
X141699724Y-91008325D01*
X141766112Y-90940169D01*
X141839564Y-90864094D01*
X141918251Y-90781950D01*
X141997341Y-90698943D01*
X142074871Y-90617136D01*
X142137746Y-90550083D01*
X142187502Y-90496007D01*
X142225678Y-90453129D01*
X142253811Y-90419673D01*
X142273440Y-90393861D01*
X142286101Y-90373914D01*
X142293334Y-90358056D01*
X142296675Y-90344509D01*
X142297561Y-90337910D01*
X142301488Y-90301548D01*
X142306459Y-90248018D01*
X142311927Y-90183421D01*
X142317344Y-90113862D01*
X142319181Y-90089635D01*
X142324488Y-90024178D01*
X142329548Y-89967717D01*
X142333863Y-89925618D01*
X142336934Y-89903243D01*
X142342955Y-89874951D01*
X140624852Y-89874951D01*
X140341586Y-89874951D01*
X140333630Y-89869289D01*
X140328820Y-89865104D01*
X140289482Y-89814427D01*
X140273903Y-89761782D01*
X140614698Y-89761782D01*
X142029221Y-89761782D01*
X142241881Y-89761782D01*
X142298908Y-89761782D01*
X142315993Y-89761662D01*
X142341308Y-89759462D01*
X142348616Y-89752334D01*
X142342943Y-89737508D01*
X142341267Y-89734682D01*
X142322448Y-89712944D01*
X142295183Y-89688820D01*
X142267987Y-89669254D01*
X142249371Y-89661188D01*
X142247697Y-89662463D01*
X142243544Y-89679976D01*
X142241881Y-89711485D01*
X142241881Y-89761782D01*
X142029221Y-89761782D01*
X142025526Y-89671095D01*
X142021832Y-89580407D01*
X141946386Y-89565252D01*
X141908551Y-89558379D01*
X141845368Y-89548756D01*
X141786065Y-89541496D01*
X141701188Y-89532893D01*
X141701188Y-89636040D01*
X141122773Y-89636040D01*
X141122773Y-89545122D01*
X141050471Y-89553753D01*
X140939998Y-89572249D01*
X140828816Y-89605691D01*
X140736850Y-89652324D01*
X140662542Y-89712786D01*
X140614698Y-89761782D01*
X140273903Y-89761782D01*
X140272172Y-89755934D01*
X140277474Y-89694575D01*
X140305975Y-89635297D01*
X140308733Y-89631606D01*
X140346822Y-89599851D01*
X140396476Y-89581067D01*
X140450002Y-89576071D01*
X140499707Y-89585678D01*
X140537900Y-89610704D01*
X140550831Y-89623480D01*
X140563428Y-89626576D01*
X140581467Y-89616998D01*
X140611928Y-89593082D01*
X140621274Y-89585731D01*
X140693430Y-89539339D01*
X140778915Y-89498084D01*
X140848830Y-89472575D01*
X141223367Y-89472575D01*
X141223367Y-89535446D01*
X141600594Y-89535446D01*
X141600594Y-89472575D01*
X141223367Y-89472575D01*
X140848830Y-89472575D01*
X140869767Y-89464936D01*
X140958027Y-89442868D01*
X141035736Y-89434852D01*
X141043991Y-89434788D01*
X141089879Y-89430321D01*
X141115079Y-89417795D01*
X141122773Y-89395784D01*
X141123676Y-89388849D01*
X141128615Y-89382885D01*
X141140611Y-89378519D01*
X141162680Y-89375503D01*
X141197836Y-89373590D01*
X141249094Y-89372530D01*
X141319471Y-89372077D01*
X141411980Y-89371980D01*
X141498660Y-89372150D01*
X141572332Y-89372834D01*
X141626265Y-89374215D01*
X141663288Y-89376470D01*
X141686230Y-89379778D01*
X141697920Y-89384320D01*
X141701188Y-89390272D01*
X141711937Y-89404888D01*
X141742055Y-89414215D01*
X141753582Y-89415847D01*
X141792886Y-89421591D01*
X141845188Y-89429378D01*
X141902376Y-89438003D01*
X141933916Y-89442393D01*
X141980074Y-89447148D01*
X142012641Y-89448295D01*
X142026023Y-89445495D01*
X142028308Y-89443671D01*
X142049405Y-89439165D01*
X142087355Y-89436029D01*
X142136048Y-89434852D01*
X142241881Y-89434852D01*
X142241894Y-89472575D01*
X142241894Y-89475718D01*
X142242388Y-89488668D01*
X142248819Y-89510411D01*
X142267123Y-89528851D01*
X142302830Y-89550801D01*
X142334174Y-89570854D01*
X142381893Y-89609356D01*
X142425138Y-89652579D01*
X142458219Y-89694627D01*
X142475442Y-89729604D01*
X142479662Y-89743081D01*
X142487480Y-89752334D01*
X142490116Y-89755454D01*
X142511662Y-89760696D01*
G04 #@! TD*
M02*
