M48
; DRILL file {KiCad 6.0.9-8da3e8f707~116~ubuntu20.04.1} date Sun Apr 16 18:25:49 2023
; FORMAT={-:-/ absolute / metric / decimal}
; #@! TF.CreationDate,2023-04-16T18:25:49+00:00
; #@! TF.GenerationSoftware,Kicad,Pcbnew,6.0.9-8da3e8f707~116~ubuntu20.04.1
; #@! TF.FileFunction,MixedPlating,1,2
FMAT,2
METRIC
; #@! TA.AperFunction,NonPlated,NPTH,ComponentDrill
T1C0.500
; #@! TA.AperFunction,NonPlated,NPTH,ComponentDrill
T2C3.200
%
G90
G05
T1
X9.999Y-7.0
X9.999Y-19.0
X9.999Y-21.0
X9.999Y-33.0
X9.999Y-35.0
X9.999Y-47.0
X9.999Y-49.0
X9.999Y-61.0
X9.999Y-63.0
X9.999Y-75.0
X10.832Y-7.0
X10.832Y-19.0
X10.832Y-21.0
X10.832Y-33.0
X10.832Y-35.0
X10.832Y-47.0
X10.832Y-49.0
X10.832Y-61.0
X10.832Y-63.0
X10.832Y-75.0
X11.666Y-7.0
X11.666Y-19.0
X11.666Y-21.0
X11.666Y-33.0
X11.666Y-35.0
X11.666Y-47.0
X11.666Y-49.0
X11.666Y-61.0
X11.666Y-63.0
X11.666Y-75.0
X12.499Y-7.0
X12.499Y-19.0
X12.499Y-21.0
X12.499Y-33.0
X12.499Y-35.0
X12.499Y-47.0
X12.499Y-49.0
X12.499Y-61.0
X12.499Y-63.0
X12.499Y-75.0
X13.332Y-7.0
X13.332Y-19.0
X13.332Y-21.0
X13.332Y-33.0
X13.332Y-35.0
X13.332Y-47.0
X13.332Y-49.0
X13.332Y-61.0
X13.332Y-63.0
X13.332Y-75.0
X14.166Y-7.0
X14.166Y-19.0
X14.166Y-21.0
X14.166Y-33.0
X14.166Y-35.0
X14.166Y-47.0
X14.166Y-49.0
X14.166Y-61.0
X14.166Y-63.0
X14.166Y-75.0
X14.999Y-7.0
X14.999Y-19.0
X14.999Y-21.0
X14.999Y-33.0
X14.999Y-35.0
X14.999Y-47.0
X14.999Y-49.0
X14.999Y-61.0
X14.999Y-63.0
X14.999Y-75.0
X36.999Y-7.0
X36.999Y-19.0
X36.999Y-21.0
X36.999Y-33.0
X36.999Y-35.0
X36.999Y-47.0
X36.999Y-49.0
X36.999Y-61.0
X36.999Y-63.0
X36.999Y-75.0
X37.832Y-7.0
X37.832Y-19.0
X37.832Y-21.0
X37.832Y-33.0
X37.832Y-35.0
X37.832Y-47.0
X37.832Y-49.0
X37.832Y-61.0
X37.832Y-63.0
X37.832Y-75.0
X38.666Y-7.0
X38.666Y-19.0
X38.666Y-21.0
X38.666Y-33.0
X38.666Y-35.0
X38.666Y-47.0
X38.666Y-49.0
X38.666Y-61.0
X38.666Y-63.0
X38.666Y-75.0
X39.499Y-7.0
X39.499Y-19.0
X39.499Y-21.0
X39.499Y-33.0
X39.499Y-35.0
X39.499Y-47.0
X39.499Y-49.0
X39.499Y-61.0
X39.499Y-63.0
X39.499Y-75.0
X40.332Y-7.0
X40.332Y-19.0
X40.332Y-21.0
X40.332Y-33.0
X40.332Y-35.0
X40.332Y-47.0
X40.332Y-49.0
X40.332Y-61.0
X40.332Y-63.0
X40.332Y-75.0
X41.166Y-7.0
X41.166Y-19.0
X41.166Y-21.0
X41.166Y-33.0
X41.166Y-35.0
X41.166Y-47.0
X41.166Y-49.0
X41.166Y-61.0
X41.166Y-63.0
X41.166Y-75.0
X41.999Y-7.0
X41.999Y-19.0
X41.999Y-21.0
X41.999Y-33.0
X41.999Y-35.0
X41.999Y-47.0
X41.999Y-49.0
X41.999Y-61.0
X41.999Y-63.0
X41.999Y-75.0
X63.999Y-7.0
X63.999Y-19.0
X63.999Y-21.0
X63.999Y-33.0
X63.999Y-35.0
X63.999Y-47.0
X63.999Y-49.0
X63.999Y-61.0
X63.999Y-63.0
X63.999Y-75.0
X64.832Y-7.0
X64.832Y-19.0
X64.832Y-21.0
X64.832Y-33.0
X64.832Y-35.0
X64.832Y-47.0
X64.832Y-49.0
X64.832Y-61.0
X64.832Y-63.0
X64.832Y-75.0
X65.666Y-7.0
X65.666Y-19.0
X65.666Y-21.0
X65.666Y-33.0
X65.666Y-35.0
X65.666Y-47.0
X65.666Y-49.0
X65.666Y-61.0
X65.666Y-63.0
X65.666Y-75.0
X66.499Y-7.0
X66.499Y-19.0
X66.499Y-21.0
X66.499Y-33.0
X66.499Y-35.0
X66.499Y-47.0
X66.499Y-49.0
X66.499Y-61.0
X66.499Y-63.0
X66.499Y-75.0
X67.332Y-7.0
X67.332Y-19.0
X67.332Y-21.0
X67.332Y-33.0
X67.332Y-35.0
X67.332Y-47.0
X67.332Y-49.0
X67.332Y-61.0
X67.332Y-63.0
X67.332Y-75.0
X68.166Y-7.0
X68.166Y-19.0
X68.166Y-21.0
X68.166Y-33.0
X68.166Y-35.0
X68.166Y-47.0
X68.166Y-49.0
X68.166Y-61.0
X68.166Y-63.0
X68.166Y-75.0
X68.999Y-7.0
X68.999Y-19.0
X68.999Y-21.0
X68.999Y-33.0
X68.999Y-35.0
X68.999Y-47.0
X68.999Y-49.0
X68.999Y-61.0
X68.999Y-63.0
X68.999Y-75.0
T2
X3.499Y-12.5
X3.499Y-26.5
X3.499Y-40.5
X3.499Y-54.5
X3.499Y-68.5
X21.499Y-12.5
X21.499Y-26.5
X21.499Y-40.5
X21.499Y-54.5
X21.499Y-68.5
X30.499Y-12.5
X30.499Y-26.5
X30.499Y-40.5
X30.499Y-54.5
X30.499Y-68.5
X48.499Y-12.5
X48.499Y-26.5
X48.499Y-40.5
X48.499Y-54.5
X48.499Y-68.5
X57.499Y-12.5
X57.499Y-26.5
X57.499Y-40.5
X57.499Y-54.5
X57.499Y-68.5
X75.499Y-12.5
X75.499Y-26.5
X75.499Y-40.5
X75.499Y-54.5
X75.499Y-68.5
T0
M30
