G04 #@! TF.GenerationSoftware,KiCad,Pcbnew,6.0.9-8da3e8f707~116~ubuntu20.04.1*
G04 #@! TF.CreationDate,2023-04-16T17:58:49+00:00*
G04 #@! TF.ProjectId,LEC005001,4c454330-3035-4303-9031-2e6b69636164,rev?*
G04 #@! TF.SameCoordinates,Original*
G04 #@! TF.FileFunction,Legend,Top*
G04 #@! TF.FilePolarity,Positive*
%FSLAX46Y46*%
G04 Gerber Fmt 4.6, Leading zero omitted, Abs format (unit mm)*
G04 Created by KiCad (PCBNEW 6.0.9-8da3e8f707~116~ubuntu20.04.1) date 2023-04-16 17:58:49*
%MOMM*%
%LPD*%
G01*
G04 APERTURE LIST*
%ADD10C,0.120000*%
%ADD11C,0.150000*%
%ADD12C,0.010000*%
G04 APERTURE END LIST*
D10*
X146500000Y-86250000D02*
X136500000Y-86250000D01*
X146500000Y-90750000D02*
X146500000Y-86250000D01*
X136500000Y-86250000D02*
X136500000Y-90750000D01*
X136500000Y-90750000D02*
X146500000Y-90750000D01*
D11*
X144619047Y-96071428D02*
X145380952Y-96071428D01*
X138000000Y-90202380D02*
X137523809Y-90202380D01*
X137523809Y-89202380D01*
X138333333Y-89678571D02*
X138666666Y-89678571D01*
X138809523Y-90202380D02*
X138333333Y-90202380D01*
X138333333Y-89202380D01*
X138809523Y-89202380D01*
X139809523Y-90107142D02*
X139761904Y-90154761D01*
X139619047Y-90202380D01*
X139523809Y-90202380D01*
X139380952Y-90154761D01*
X139285714Y-90059523D01*
X139238095Y-89964285D01*
X139190476Y-89773809D01*
X139190476Y-89630952D01*
X139238095Y-89440476D01*
X139285714Y-89345238D01*
X139380952Y-89250000D01*
X139523809Y-89202380D01*
X139619047Y-89202380D01*
X139761904Y-89250000D01*
X139809523Y-89297619D01*
X140428571Y-89202380D02*
X140523809Y-89202380D01*
X140619047Y-89250000D01*
X140666666Y-89297619D01*
X140714285Y-89392857D01*
X140761904Y-89583333D01*
X140761904Y-89821428D01*
X140714285Y-90011904D01*
X140666666Y-90107142D01*
X140619047Y-90154761D01*
X140523809Y-90202380D01*
X140428571Y-90202380D01*
X140333333Y-90154761D01*
X140285714Y-90107142D01*
X140238095Y-90011904D01*
X140190476Y-89821428D01*
X140190476Y-89583333D01*
X140238095Y-89392857D01*
X140285714Y-89297619D01*
X140333333Y-89250000D01*
X140428571Y-89202380D01*
X141380952Y-89202380D02*
X141476190Y-89202380D01*
X141571428Y-89250000D01*
X141619047Y-89297619D01*
X141666666Y-89392857D01*
X141714285Y-89583333D01*
X141714285Y-89821428D01*
X141666666Y-90011904D01*
X141619047Y-90107142D01*
X141571428Y-90154761D01*
X141476190Y-90202380D01*
X141380952Y-90202380D01*
X141285714Y-90154761D01*
X141238095Y-90107142D01*
X141190476Y-90011904D01*
X141142857Y-89821428D01*
X141142857Y-89583333D01*
X141190476Y-89392857D01*
X141238095Y-89297619D01*
X141285714Y-89250000D01*
X141380952Y-89202380D01*
X142619047Y-89202380D02*
X142142857Y-89202380D01*
X142095238Y-89678571D01*
X142142857Y-89630952D01*
X142238095Y-89583333D01*
X142476190Y-89583333D01*
X142571428Y-89630952D01*
X142619047Y-89678571D01*
X142666666Y-89773809D01*
X142666666Y-90011904D01*
X142619047Y-90107142D01*
X142571428Y-90154761D01*
X142476190Y-90202380D01*
X142238095Y-90202380D01*
X142142857Y-90154761D01*
X142095238Y-90107142D01*
X143285714Y-89202380D02*
X143380952Y-89202380D01*
X143476190Y-89250000D01*
X143523809Y-89297619D01*
X143571428Y-89392857D01*
X143619047Y-89583333D01*
X143619047Y-89821428D01*
X143571428Y-90011904D01*
X143523809Y-90107142D01*
X143476190Y-90154761D01*
X143380952Y-90202380D01*
X143285714Y-90202380D01*
X143190476Y-90154761D01*
X143142857Y-90107142D01*
X143095238Y-90011904D01*
X143047619Y-89821428D01*
X143047619Y-89583333D01*
X143095238Y-89392857D01*
X143142857Y-89297619D01*
X143190476Y-89250000D01*
X143285714Y-89202380D01*
X144238095Y-89202380D02*
X144333333Y-89202380D01*
X144428571Y-89250000D01*
X144476190Y-89297619D01*
X144523809Y-89392857D01*
X144571428Y-89583333D01*
X144571428Y-89821428D01*
X144523809Y-90011904D01*
X144476190Y-90107142D01*
X144428571Y-90154761D01*
X144333333Y-90202380D01*
X144238095Y-90202380D01*
X144142857Y-90154761D01*
X144095238Y-90107142D01*
X144047619Y-90011904D01*
X144000000Y-89821428D01*
X144000000Y-89583333D01*
X144047619Y-89392857D01*
X144095238Y-89297619D01*
X144142857Y-89250000D01*
X144238095Y-89202380D01*
X145523809Y-90202380D02*
X144952380Y-90202380D01*
X145238095Y-90202380D02*
X145238095Y-89202380D01*
X145142857Y-89345238D01*
X145047619Y-89440476D01*
X144952380Y-89488095D01*
X137619047Y-96071428D02*
X138380952Y-96071428D01*
X138000000Y-96452380D02*
X138000000Y-95690476D01*
G04 #@! TO.C,D1*
X143261904Y-92452380D02*
X143261904Y-91452380D01*
X143500000Y-91452380D01*
X143642857Y-91500000D01*
X143738095Y-91595238D01*
X143785714Y-91690476D01*
X143833333Y-91880952D01*
X143833333Y-92023809D01*
X143785714Y-92214285D01*
X143738095Y-92309523D01*
X143642857Y-92404761D01*
X143500000Y-92452380D01*
X143261904Y-92452380D01*
X144785714Y-92452380D02*
X144214285Y-92452380D01*
X144500000Y-92452380D02*
X144500000Y-91452380D01*
X144404761Y-91595238D01*
X144309523Y-91690476D01*
X144214285Y-91738095D01*
G04 #@! TO.C,R1*
X144952380Y-94666666D02*
X144476190Y-95000000D01*
X144952380Y-95238095D02*
X143952380Y-95238095D01*
X143952380Y-94857142D01*
X144000000Y-94761904D01*
X144047619Y-94714285D01*
X144142857Y-94666666D01*
X144285714Y-94666666D01*
X144380952Y-94714285D01*
X144428571Y-94761904D01*
X144476190Y-94857142D01*
X144476190Y-95238095D01*
X144952380Y-93714285D02*
X144952380Y-94285714D01*
X144952380Y-94000000D02*
X143952380Y-94000000D01*
X144095238Y-94095238D01*
X144190476Y-94190476D01*
X144238095Y-94285714D01*
G04 #@! TO.C,R2*
X139952380Y-94666666D02*
X139476190Y-95000000D01*
X139952380Y-95238095D02*
X138952380Y-95238095D01*
X138952380Y-94857142D01*
X139000000Y-94761904D01*
X139047619Y-94714285D01*
X139142857Y-94666666D01*
X139285714Y-94666666D01*
X139380952Y-94714285D01*
X139428571Y-94761904D01*
X139476190Y-94857142D01*
X139476190Y-95238095D01*
X139047619Y-94285714D02*
X139000000Y-94238095D01*
X138952380Y-94142857D01*
X138952380Y-93904761D01*
X139000000Y-93809523D01*
X139047619Y-93761904D01*
X139142857Y-93714285D01*
X139238095Y-93714285D01*
X139380952Y-93761904D01*
X139952380Y-94333333D01*
X139952380Y-93714285D01*
D10*
G04 #@! TO.C,D1*
X140200000Y-92735000D02*
X142485000Y-92735000D01*
X142485000Y-91265000D02*
X140200000Y-91265000D01*
X142485000Y-92735000D02*
X142485000Y-91265000D01*
G04 #@! TO.C,J1*
X137200000Y-97200000D02*
X134800000Y-97200000D01*
X134800000Y-94800000D02*
X137200000Y-94800000D01*
X137200000Y-94800000D02*
X137200000Y-97200000D01*
X134800000Y-97200000D02*
X134800000Y-94800000D01*
G04 #@! TO.C,J2*
X148200000Y-96000000D02*
G75*
G03*
X148200000Y-96000000I-1200000J0D01*
G01*
G04 #@! TO.C,R1*
X142290000Y-94741422D02*
X142290000Y-95258578D01*
X143710000Y-94741422D02*
X143710000Y-95258578D01*
G04 #@! TO.C,R2*
X141710000Y-94741422D02*
X141710000Y-95258578D01*
X140290000Y-94741422D02*
X140290000Y-95258578D01*
G04 #@! TO.C,H1*
X135724903Y-91500000D02*
G75*
G03*
X135724903Y-91500000I-3224903J0D01*
G01*
G36*
X133000000Y-88300000D02*
G01*
X134000000Y-88600000D01*
X134800000Y-89200000D01*
X135300000Y-89900000D01*
X135600000Y-90600000D01*
X135700000Y-91000000D01*
X135700000Y-91500000D01*
X134100000Y-91500000D01*
X134100000Y-91400000D01*
X134000000Y-91000000D01*
X133800000Y-90600000D01*
X133400000Y-90200000D01*
X133000000Y-90000000D01*
X132600000Y-89900000D01*
X132500000Y-89900000D01*
X132500000Y-88275097D01*
X133000000Y-88300000D01*
G37*
D12*
X133000000Y-88300000D02*
X134000000Y-88600000D01*
X134800000Y-89200000D01*
X135300000Y-89900000D01*
X135600000Y-90600000D01*
X135700000Y-91000000D01*
X135700000Y-91500000D01*
X134100000Y-91500000D01*
X134100000Y-91400000D01*
X134000000Y-91000000D01*
X133800000Y-90600000D01*
X133400000Y-90200000D01*
X133000000Y-90000000D01*
X132600000Y-89900000D01*
X132500000Y-89900000D01*
X132500000Y-88275097D01*
X133000000Y-88300000D01*
G36*
X130900000Y-91600000D02*
G01*
X131000000Y-92000000D01*
X131200000Y-92400000D01*
X131600000Y-92800000D01*
X132000000Y-93000000D01*
X132400000Y-93100000D01*
X132500000Y-93100000D01*
X132500000Y-94724903D01*
X132000000Y-94700000D01*
X131000000Y-94400000D01*
X130200000Y-93800000D01*
X129700000Y-93100000D01*
X129400000Y-92400000D01*
X129300000Y-92000000D01*
X129300000Y-91500000D01*
X130900000Y-91500000D01*
X130900000Y-91600000D01*
G37*
X130900000Y-91600000D02*
X131000000Y-92000000D01*
X131200000Y-92400000D01*
X131600000Y-92800000D01*
X132000000Y-93000000D01*
X132400000Y-93100000D01*
X132500000Y-93100000D01*
X132500000Y-94724903D01*
X132000000Y-94700000D01*
X131000000Y-94400000D01*
X130200000Y-93800000D01*
X129700000Y-93100000D01*
X129400000Y-92400000D01*
X129300000Y-92000000D01*
X129300000Y-91500000D01*
X130900000Y-91500000D01*
X130900000Y-91600000D01*
D10*
G04 #@! TO.C,H2*
X153724903Y-91500000D02*
G75*
G03*
X153724903Y-91500000I-3224903J0D01*
G01*
G36*
X151000000Y-88300000D02*
G01*
X152000000Y-88600000D01*
X152800000Y-89200000D01*
X153300000Y-89900000D01*
X153600000Y-90600000D01*
X153700000Y-91000000D01*
X153700000Y-91500000D01*
X152100000Y-91500000D01*
X152100000Y-91400000D01*
X152000000Y-91000000D01*
X151800000Y-90600000D01*
X151400000Y-90200000D01*
X151000000Y-90000000D01*
X150600000Y-89900000D01*
X150500000Y-89900000D01*
X150500000Y-88275097D01*
X151000000Y-88300000D01*
G37*
D12*
X151000000Y-88300000D02*
X152000000Y-88600000D01*
X152800000Y-89200000D01*
X153300000Y-89900000D01*
X153600000Y-90600000D01*
X153700000Y-91000000D01*
X153700000Y-91500000D01*
X152100000Y-91500000D01*
X152100000Y-91400000D01*
X152000000Y-91000000D01*
X151800000Y-90600000D01*
X151400000Y-90200000D01*
X151000000Y-90000000D01*
X150600000Y-89900000D01*
X150500000Y-89900000D01*
X150500000Y-88275097D01*
X151000000Y-88300000D01*
G36*
X148900000Y-91600000D02*
G01*
X149000000Y-92000000D01*
X149200000Y-92400000D01*
X149600000Y-92800000D01*
X150000000Y-93000000D01*
X150400000Y-93100000D01*
X150500000Y-93100000D01*
X150500000Y-94724903D01*
X150000000Y-94700000D01*
X149000000Y-94400000D01*
X148200000Y-93800000D01*
X147700000Y-93100000D01*
X147400000Y-92400000D01*
X147300000Y-92000000D01*
X147300000Y-91500000D01*
X148900000Y-91500000D01*
X148900000Y-91600000D01*
G37*
X148900000Y-91600000D02*
X149000000Y-92000000D01*
X149200000Y-92400000D01*
X149600000Y-92800000D01*
X150000000Y-93000000D01*
X150400000Y-93100000D01*
X150500000Y-93100000D01*
X150500000Y-94724903D01*
X150000000Y-94700000D01*
X149000000Y-94400000D01*
X148200000Y-93800000D01*
X147700000Y-93100000D01*
X147400000Y-92400000D01*
X147300000Y-92000000D01*
X147300000Y-91500000D01*
X148900000Y-91500000D01*
X148900000Y-91600000D01*
G04 #@! TD*
M02*
